<svg width="48" height="46" viewBox="0 0 48 46" fill="none" xmlns="http://www.w3.org/2000/svg">
<path d="M36.9746 42.4923C36.5111 42.6121 36.0163 42.659 35.4902 42.6329C34.084 42.5548 31.3131 41.8257 28.5788 37.7684C26.9017 35.2788 25.5631 31.9455 24.6256 27.9611C24.6673 32.0548 24.1673 35.6069 23.1361 38.4298C21.4486 43.0236 18.9329 44.3986 17.584 44.81C15.4069 45.4715 13.334 44.5861 12.3027 42.56C11.6673 41.2996 10.9173 38.534 13.0631 34.1382C14.3808 31.4402 16.5944 28.6173 19.5736 25.81C16.0527 27.8934 12.7246 29.2371 9.76626 29.7527C4.94335 30.5913 2.49543 29.1017 1.46418 28.1382C-0.197279 26.5861 -0.468113 24.3465 0.771471 22.4402C1.5423 21.2579 3.56314 19.2267 8.44335 18.8829C11.4433 18.6746 14.9954 19.185 18.9121 20.3621C15.3444 18.3569 12.5215 16.1434 10.5944 13.8413C7.45897 10.0809 7.52147 7.21628 7.84439 5.84128C8.36001 3.62774 10.1569 2.27357 12.4329 2.39337C13.8392 2.47149 16.61 3.20066 19.3444 7.25795C21.0267 9.75274 22.36 13.0809 23.2975 17.0652C23.2558 12.9715 23.7558 9.41941 24.7923 6.6017C26.4746 2.00274 28.9902 0.62774 30.3392 0.216282C32.5163 -0.445176 34.5892 0.440241 35.6204 2.46628C36.2611 3.7267 37.0111 6.49232 34.8652 10.8882C33.5475 13.5861 31.3288 16.409 28.3496 19.2163C31.8704 17.1329 35.1986 15.7892 38.1569 15.2736C42.9798 14.435 45.4277 15.9246 46.459 16.8882C48.1204 18.4402 48.3913 20.6798 47.1517 22.5861C46.3808 23.7684 44.36 25.7996 39.4798 26.1434C36.485 26.3517 32.9329 25.8413 29.0111 24.6642C32.5788 26.6694 35.4069 28.883 37.3288 31.185C40.4694 34.9454 40.4017 37.81 40.084 39.185C39.6881 40.8882 38.5267 42.0861 36.9798 42.4871L36.9746 42.4923ZM24.3496 23.034C25.1986 29.0965 26.834 34.0496 29.0996 37.4142C30.985 40.2111 33.3288 41.883 35.5267 42.0027C37.4798 42.1069 39.0267 40.9454 39.4694 39.0392C39.9642 36.8986 39.0111 34.185 36.8444 31.5913C34.2454 28.4819 29.9381 25.534 24.3496 23.034ZM23.709 23.1121C18.8808 26.8777 15.4069 30.7684 13.6256 34.4142C12.1465 37.4454 11.8704 40.31 12.8652 42.2736C13.7506 44.0184 15.5319 44.7736 17.4017 44.2059C19.5058 43.5652 21.3808 41.383 22.5423 38.2111C23.9381 34.4038 24.334 29.2007 23.709 23.1121ZM24.6048 22.435C30.2819 24.7319 35.3861 25.7944 39.4329 25.5132C42.8027 25.2788 45.4225 24.0861 46.6204 22.2423C47.6881 20.6017 47.4538 18.685 46.0267 17.3465C44.4173 15.8465 41.5892 15.3152 38.2663 15.8934C34.2715 16.5913 29.5631 18.8465 24.6048 22.435ZM5.81835 19.9402C3.75064 20.4767 2.1621 21.4611 1.30272 22.784C0.235013 24.4246 0.469387 26.3413 1.89647 27.6798C3.50585 29.1798 6.33397 29.7111 9.65689 29.1329C13.6569 28.435 18.36 26.1798 23.3183 22.5913C17.6465 20.2944 12.5371 19.2319 8.49022 19.5132C7.53189 19.5809 6.63605 19.7215 5.81835 19.935V19.9402ZM30.6986 0.773574C30.6413 0.789198 30.5788 0.804824 30.5215 0.820449C28.4173 1.46107 26.5423 3.64857 25.3808 6.81524C23.985 10.6225 23.584 15.8257 24.2142 21.9142C29.0423 18.1486 32.5163 14.2579 34.2975 10.6121C35.7767 7.58087 36.0527 4.71628 35.0579 2.75274C34.1986 1.06524 32.5006 0.299616 30.6986 0.768366V0.773574ZM11.1204 3.14857C9.7923 3.49232 8.79751 4.51837 8.45376 5.98712C7.95897 8.13295 8.9121 10.8465 11.0788 13.435C13.6777 16.5496 17.985 19.4975 23.5683 21.9923C22.7246 15.9298 21.0892 10.9767 18.8236 7.61212C16.9381 4.81524 14.5944 3.14336 12.3965 3.02357C11.9486 2.99753 11.5215 3.04441 11.1204 3.14857Z" fill="#9C6C69"/>
</svg>
