<svg width="8" height="8" viewBox="0 0 8 8" fill="none" xmlns="http://www.w3.org/2000/svg">
<path d="M6.44271 1.10417C6.79688 1.45833 7.06771 1.86458 7.26042 2.32812C7.44792 2.79167 7.54688 3.27083 7.54688 3.77083C7.54688 4.27083 7.44792 4.75521 7.26042 5.21354C7.06771 5.67708 6.79688 6.08333 6.44271 6.4375C6.08854 6.79167 5.67708 7.0625 5.21875 7.25521C4.75521 7.44792 4.27604 7.54167 3.77604 7.54167C3.27604 7.54167 2.79167 7.44792 2.32812 7.25521C1.86979 7.0625 1.45833 6.79167 1.10938 6.4375C0.755208 6.08333 0.479167 5.67708 0.291667 5.21354C0.0989587 4.75521 0 4.27083 0 3.77083C0 3.27083 0.0989587 2.79167 0.291667 2.32812C0.479167 1.86458 0.755208 1.45833 1.10938 1.10417C1.45833 0.75 1.86979 0.479166 2.32812 0.286458C2.79167 0.093749 3.27604 0 3.77604 0C4.27604 0 4.75521 0.093749 5.21875 0.286458C5.67708 0.479166 6.08854 0.75 6.44271 1.10417Z" fill="#9C6C69"/>
</svg>
