<svg width="273" height="61" viewBox="0 0 273 61" fill="none" xmlns="http://www.w3.org/2000/svg">
<mask id="mask0_311_36295" style="mask-type:luminance" maskUnits="userSpaceOnUse" x="0" y="0" width="273" height="61">
<path d="M0 0H272.969V61H0V0Z" fill="white"/>
</mask>
<g mask="url(#mask0_311_36295)">
<mask id="mask1_311_36295" style="mask-type:luminance" maskUnits="userSpaceOnUse" x="0" y="0" width="273" height="61">
<path d="M19.955 0H253.014C264.032 0 272.969 12.1153 272.969 27.0688V33.9312C272.969 48.8777 264.032 61 253.014 61H19.955C8.93136 61 0 48.8777 0 33.9312V27.0688C0 12.1153 8.93136 0 19.955 0Z" fill="white"/>
</mask>
<g mask="url(#mask1_311_36295)">
<mask id="mask2_311_36295" style="mask-type:luminance" maskUnits="userSpaceOnUse" x="-1" y="-2" width="274" height="65">
<path d="M273 -1.03809H-0.145752V62.2212H273V-1.03809Z" fill="white"/>
</mask>
<g mask="url(#mask2_311_36295)">
<mask id="mask3_311_36295" style="mask-type:luminance" maskUnits="userSpaceOnUse" x="0" y="0" width="273" height="61">
<path d="M0 0H272.969V61H0V0Z" fill="white"/>
</mask>
<g mask="url(#mask3_311_36295)">
<mask id="mask4_311_36295" style="mask-type:luminance" maskUnits="userSpaceOnUse" x="0" y="0" width="273" height="61">
<path d="M19.955 0H253.014C264.032 0 272.969 12.1153 272.969 27.0688V33.9312C272.969 48.8777 264.032 61 253.014 61H19.955C8.93136 61 0 48.8777 0 33.9312V27.0688C0 12.1153 8.93136 0 19.955 0Z" fill="white"/>
</mask>
<g mask="url(#mask4_311_36295)">
<path d="M0 0H272.969V61H0V0Z" fill="#FAEFE8"/>
</g>
</g>
</g>
</g>
</g>
<mask id="mask5_311_36295" style="mask-type:luminance" maskUnits="userSpaceOnUse" x="0" y="0" width="273" height="61">
<path d="M0.041748 0H273V60.5058H0.041748V0Z" fill="white"/>
</mask>
<g mask="url(#mask5_311_36295)">
<mask id="mask6_311_36295" style="mask-type:luminance" maskUnits="userSpaceOnUse" x="0" y="0" width="273" height="61">
<path d="M19.9916 0H252.977C263.991 0 272.922 12.1153 272.922 27.0617V33.9242C272.922 48.8635 263.991 60.9788 252.977 60.9788H19.9916C8.97311 60.9788 0.041748 48.8635 0.041748 33.9242V27.0617C0.041748 12.1153 8.97311 0 19.9916 0Z" fill="white"/>
</mask>
<g mask="url(#mask6_311_36295)">
<path d="M23.4787 -0.677734H26.4766V0.677821H23.4787V-0.677734ZM26.9711 -0.677734H29.9638V0.677821H26.9711V-0.677734ZM30.4635 -0.677734H33.4562V0.677821H30.4635V-0.677734ZM33.9558 -0.677734H36.9486V0.677821H33.9558V-0.677734ZM37.4482 -0.677734H40.441V0.677821H37.4482V-0.677734ZM40.9406 -0.677734H43.9334V0.677821H40.9406V-0.677734ZM44.433 -0.677734H47.4258V0.677821H44.433V-0.677734ZM47.9254 -0.677734H50.9181V0.677821H47.9254V-0.677734ZM51.4178 -0.677734H54.4105V0.677821H51.4178V-0.677734ZM54.905 -0.677734H57.9029V0.677821H54.905V-0.677734ZM58.3974 -0.677734H61.3901V0.677821H58.3974V-0.677734ZM61.8898 -0.677734H64.8825V0.677821H61.8898V-0.677734ZM65.3822 -0.677734H68.3749V0.677821H65.3822V-0.677734ZM68.8746 -0.677734H71.8673V0.677821H68.8746V-0.677734ZM72.367 -0.677734H75.3597V0.677821H72.367V-0.677734ZM75.8593 -0.677734H78.8521V0.677821H75.8593V-0.677734ZM79.3517 -0.677734H82.3445V0.677821H79.3517V-0.677734ZM82.8441 -0.677734H85.8369V0.677821H82.8441V-0.677734ZM86.3313 -0.677734H89.324V0.677821H86.3313V-0.677734ZM89.8237 -0.677734H92.8164V0.677821H89.8237V-0.677734ZM93.3161 -0.677734H96.3088V0.677821H93.3161V-0.677734ZM96.8085 -0.677734H99.8012V0.677821H96.8085V-0.677734ZM100.301 -0.677734H103.294V0.677821H100.301V-0.677734ZM103.793 -0.677734H106.786V0.677821H103.793V-0.677734ZM107.286 -0.677734H110.278V0.677821H107.286V-0.677734ZM110.778 -0.677734H113.771V0.677821H110.778V-0.677734ZM114.27 -0.677734H117.263V0.677821H114.27V-0.677734ZM117.758 -0.677734H120.75V0.677821H117.758V-0.677734ZM121.25 -0.677734H124.243V0.677821H121.25V-0.677734ZM124.742 -0.677734H127.735V0.677821H124.742V-0.677734ZM128.235 -0.677734H131.228V0.677821H128.235V-0.677734ZM131.727 -0.677734H134.72V0.677821H131.727V-0.677734ZM135.22 -0.677734H138.212V0.677821H135.22V-0.677734ZM138.712 -0.677734H141.705V0.677821H138.712V-0.677734ZM142.204 -0.677734H145.197V0.677821H142.204V-0.677734ZM145.697 -0.677734H148.689V0.677821H145.697V-0.677734ZM149.184 -0.677734H152.177V0.677821H149.184V-0.677734ZM152.676 -0.677734H155.669V0.677821H152.676V-0.677734ZM156.169 -0.677734H159.161V0.677821H156.169V-0.677734ZM159.661 -0.677734H162.654V0.677821H159.661V-0.677734ZM163.154 -0.677734H166.146V0.677821H163.154V-0.677734ZM166.646 -0.677734H169.639V0.677821H166.646V-0.677734ZM170.138 -0.677734H173.131V0.677821H170.138V-0.677734ZM173.631 -0.677734H176.623V0.677821H173.631V-0.677734ZM177.123 -0.677734H180.116V0.677821H177.123V-0.677734ZM180.61 -0.677734H183.603V0.677821H180.61V-0.677734ZM184.103 -0.677734H187.095V0.677821H184.103V-0.677734ZM187.595 -0.677734H190.588V0.677821H187.595V-0.677734ZM191.087 -0.677734H194.08V0.677821H191.087V-0.677734ZM194.58 -0.677734H197.573V0.677821H194.58V-0.677734ZM198.072 -0.677734H201.065V0.677821H198.072V-0.677734ZM201.565 -0.677734H204.557V0.677821H201.565V-0.677734ZM205.057 -0.677734H208.05V0.677821H205.057V-0.677734ZM208.549 -0.677734H211.542V0.677821H208.549V-0.677734ZM212.037 -0.677734H215.029V0.677821H212.037V-0.677734ZM215.529 -0.677734H218.522V0.677821H215.529V-0.677734ZM219.021 -0.677734H222.014V0.677821H219.021V-0.677734ZM222.514 -0.677734H225.507V0.677821H222.514V-0.677734ZM226.006 -0.677734H228.999V0.677821H226.006V-0.677734ZM229.499 -0.677734H232.491V0.677821H229.499V-0.677734ZM232.991 -0.677734H235.984V0.677821H232.991V-0.677734ZM236.483 -0.677734H239.476V0.677821H236.483V-0.677734ZM239.971 -0.677734H242.968V0.677821H239.971V-0.677734ZM243.463 -0.677734H246.456V0.677821H243.463V-0.677734ZM246.955 -0.677734H249.948V0.677821H246.955V-0.677734ZM250.448 -0.677734H252.977C253.139 -0.677734 253.3 -0.670675 253.461 -0.670675L253.44 0.68488C253.284 0.677821 253.128 0.677821 252.977 0.677821H250.448V-0.677734ZM253.982 -0.642434C255.002 -0.578893 256.017 -0.409449 257.016 -0.134101L256.818 1.19321C255.866 0.931987 254.908 0.769603 253.93 0.706062L253.982 -0.642434ZM257.516 0.0141621C258.52 0.31775 259.499 0.727241 260.451 1.23557L260.087 2.49935C259.181 2.01219 258.25 1.62388 257.297 1.33442L257.516 0.0141621ZM260.925 1.4968C261.877 2.04044 262.793 2.68291 263.678 3.42423L263.153 4.57504C262.315 3.87608 261.44 3.26185 260.535 2.74645L260.925 1.4968ZM264.11 3.79842C264.974 4.55386 265.786 5.40108 266.556 6.32597L265.89 7.33557C265.162 6.45305 264.386 5.65525 263.569 4.92805L264.11 3.79842ZM266.936 6.79194C267.686 7.74507 268.378 8.76879 269.013 9.85606L268.232 10.6962C267.623 9.65838 266.968 8.69113 266.255 7.78037L266.936 6.79194ZM269.325 10.4068C269.945 11.5293 270.502 12.7013 270.991 13.9298L270.111 14.5723C269.648 13.4003 269.117 12.2848 268.529 11.2187L269.325 10.4068ZM271.23 14.5511C271.694 15.8007 272.084 17.0857 272.407 18.4059L271.459 18.8296C271.152 17.5728 270.777 16.3444 270.34 15.1653L271.23 14.5511ZM272.557 19.0696C272.854 20.3969 273.073 21.7525 273.219 23.1292L272.23 23.3198C272.094 22.0137 271.886 20.7217 271.605 19.4579L272.557 19.0696ZM273.281 23.814C273.375 24.8872 273.422 25.9674 273.422 27.0617V27.9796H272.422V27.0617C272.422 26.0239 272.381 24.9931 272.292 23.9694L273.281 23.814ZM273.422 28.6573V32.7169H272.422V28.6573H273.422ZM273.422 33.3947V33.9242C273.422 35.1456 273.364 36.3529 273.245 37.5602L272.256 37.3837C272.365 36.24 272.422 35.0821 272.422 33.9242V33.3947H273.422ZM273.172 38.238C273.016 39.6147 272.781 40.9703 272.474 42.2906L271.522 41.8811C271.813 40.6243 272.037 39.3394 272.188 38.0333L273.172 38.238ZM272.313 42.9471C271.98 44.2674 271.569 45.5453 271.095 46.7879L270.21 46.1595C270.663 44.9805 271.053 43.7661 271.371 42.5094L272.313 42.9471ZM270.845 47.4021C270.345 48.6235 269.778 49.7814 269.148 50.8899L268.357 50.0638C268.961 49.0118 269.497 47.9034 269.976 46.7455L270.845 47.4021ZM268.831 51.4335C268.18 52.5137 267.478 53.5233 266.718 54.4552L266.046 53.4527C266.77 52.5631 267.441 51.6029 268.055 50.5792L268.831 51.4335ZM266.333 54.9142C265.557 55.832 264.735 56.658 263.866 57.3993L263.329 56.2556C264.157 55.5496 264.943 54.7588 265.682 53.8904L266.333 54.9142ZM263.423 57.7665C262.533 58.4866 261.612 59.1079 260.654 59.6304L260.279 58.3807C261.19 57.8794 262.07 57.2864 262.913 56.6015L263.423 57.7665ZM260.181 59.8845C259.218 60.3787 258.234 60.7671 257.229 61.0565L257.021 59.7292C257.979 59.4539 258.916 59.0867 259.827 58.6208L260.181 59.8845ZM256.73 61.1907C255.725 61.4448 254.71 61.5931 253.685 61.6425L253.649 60.287C254.627 60.2446 255.59 60.0963 256.548 59.8563L256.73 61.1907ZM253.159 61.6566H250.161V60.3011H253.154L253.159 61.6566ZM249.662 61.6566H246.669V60.3011H249.662V61.6566ZM246.169 61.6566H243.177V60.3011H246.169V61.6566ZM242.677 61.6566H239.684V60.3011H242.677V61.6566ZM239.19 61.6566H236.197V60.3011H239.19V61.6566ZM235.697 61.6566H232.705V60.3011H235.697V61.6566ZM232.205 61.6566H229.212V60.3011H232.205V61.6566ZM228.713 61.6566H225.72V60.3011H228.713V61.6566ZM225.22 61.6566H222.228V60.3011H225.22V61.6566ZM221.728 61.6566H218.735V60.3011H221.728V61.6566ZM218.235 61.6566H215.243V60.3011H218.235V61.6566ZM214.743 61.6566H211.75V60.3011H214.743V61.6566ZM211.256 61.6566H208.258V60.3011H211.256V61.6566ZM207.763 61.6566H204.771V60.3011H207.763V61.6566ZM204.271 61.6566H201.278V60.3011H204.271V61.6566ZM200.779 61.6566H197.786V60.3011H200.779V61.6566ZM197.286 61.6566H194.294V60.3011H197.286V61.6566ZM193.794 61.6566H190.801V60.3011H193.794V61.6566ZM190.302 61.6566H187.309V60.3011H190.302V61.6566ZM186.809 61.6566H183.816V60.3011H186.809V61.6566ZM183.317 61.6566H180.324V60.3011H183.317V61.6566ZM179.83 61.6566H176.832V60.3011H179.83V61.6566ZM176.337 61.6566H173.344V60.3011H176.337V61.6566ZM172.845 61.6566H169.852V60.3011H172.845V61.6566ZM169.352 61.6566H166.36V60.3011H169.352V61.6566ZM165.86 61.6566H162.867V60.3011H165.86V61.6566ZM162.368 61.6566H159.375V60.3011H162.368V61.6566ZM158.875 61.6566H155.882V60.3011H158.875V61.6566ZM155.383 61.6566H152.39V60.3011H155.383V61.6566ZM151.89 61.6566H148.898V60.3011H151.89V61.6566ZM148.403 61.6566H145.405V60.3011H148.403V61.6566ZM144.911 61.6566H141.918V60.3011H144.911V61.6566ZM141.418 61.6566H138.426V60.3011H141.418V61.6566ZM137.926 61.6566H134.933V60.3011H137.926V61.6566ZM134.434 61.6566H131.441V60.3011H134.434V61.6566ZM130.941 61.6566H127.949V60.3011H130.941V61.6566ZM127.449 61.6566H124.456V60.3011H127.449V61.6566ZM123.956 61.6566H120.964V60.3011H123.956V61.6566ZM120.464 61.6566H117.471V60.3011H120.464V61.6566ZM116.977 61.6566H113.984V60.3011H116.977V61.6566ZM113.485 61.6566H110.492V60.3011H113.485V61.6566ZM109.992 61.6566H106.999V60.3011H109.992V61.6566ZM106.5 61.6566H103.507V60.3011H106.5V61.6566ZM103.007 61.6566H100.015V60.3011H103.007V61.6566ZM99.515 61.6566H96.5222V60.3011H99.515V61.6566ZM96.0226 61.6566H93.0298V60.3011H96.0226V61.6566ZM92.5302 61.6566H89.5374V60.3011H92.5302V61.6566ZM89.0378 61.6566H86.0451V60.3011H89.0378V61.6566ZM85.5506 61.6566H82.5579V60.3011H85.5506V61.6566ZM82.0582 61.6566H79.0655V60.3011H82.0582V61.6566ZM78.5658 61.6566H75.5731V60.3011H78.5658V61.6566ZM75.0734 61.6566H72.0807V60.3011H75.0734V61.6566ZM71.581 61.6566H68.5883V60.3011H71.581V61.6566ZM68.0886 61.6566H65.0959V60.3011H68.0886V61.6566ZM64.5962 61.6566H61.6035V60.3011H64.5962V61.6566ZM61.1039 61.6566H58.1111V60.3011H61.1039V61.6566ZM57.6115 61.6566H54.6187V60.3011H57.6115V61.6566ZM54.1243 61.6566H51.1315V60.3011H54.1243V61.6566ZM50.6319 61.6566H47.6391V60.3011H50.6319V61.6566ZM47.1395 61.6566H44.1468V60.3011H47.1395V61.6566ZM43.6471 61.6566H40.6544V60.3011H43.6471V61.6566ZM40.1547 61.6566H37.162V60.3011H40.1547V61.6566ZM36.6623 61.6566H33.6696V60.3011H36.6623V61.6566ZM33.1699 61.6566H30.1772V60.3011H33.1699V61.6566ZM29.6775 61.6566H26.6848V60.3011H29.6775V61.6566ZM26.1851 61.6566H23.1924V60.3011H26.1851V61.6566ZM22.698 61.6566H19.6948L19.7 60.3011H22.698V61.6566ZM19.1691 61.6355C18.1438 61.579 17.1289 61.4237 16.1296 61.1624L16.3169 59.8351C17.2694 60.0822 18.2323 60.2305 19.2108 60.2799L19.1691 61.6355ZM15.6299 61.0212C14.6254 60.7247 13.6417 60.3293 12.684 59.8351L13.0379 58.5713C13.954 59.0444 14.8856 59.4186 15.8381 59.701L15.6299 61.0212ZM12.2104 59.5809C11.2527 59.0444 10.3315 58.416 9.44664 57.6888L9.96192 56.5309C10.8051 57.2228 11.6795 57.8159 12.5903 58.3242L12.2104 59.5809ZM9.00944 57.3217C8.14025 56.5733 7.3231 55.7402 6.5476 54.8224L7.20339 53.7987C7.94247 54.6741 8.72318 55.4649 9.54554 56.1779L9.00944 57.3217ZM6.16765 54.3564C5.40775 53.4174 4.71032 52.4007 4.06493 51.3205L4.84044 50.4733C5.4546 51.5041 6.12081 52.4643 6.83906 53.3609L6.16765 54.3564ZM3.74744 50.7698C3.12286 49.6614 2.56075 48.4965 2.0663 47.275L2.93549 46.6184C3.40913 47.7834 3.94522 48.8918 4.53856 49.9509L3.74744 50.7698ZM1.82168 46.6537C1.34804 45.4112 0.947276 44.1333 0.614171 42.813L1.56144 42.3753C1.87372 43.632 2.25888 44.8534 2.70648 46.0325L1.82168 46.6537ZM0.458029 42.1493C0.156153 40.822 -0.0728551 39.4735 -0.223794 38.0968L0.759906 37.8921C0.905638 39.2053 1.12424 40.4902 1.4105 41.7469L0.458029 42.1493ZM-0.29666 37.412C-0.400755 36.2612 -0.458008 35.0962 -0.458008 33.9242V33.2465H0.541305V33.9242C0.541305 35.0397 0.593354 36.1482 0.692243 37.2425L-0.29666 37.412ZM-0.458008 32.5687V28.5091H0.541305V32.5687H-0.458008ZM-0.458008 27.8313V27.0617C-0.458008 25.918 -0.40596 24.7884 -0.30707 23.6728L0.687039 23.8352C0.588148 24.9013 0.541305 25.9745 0.541305 27.0617V27.8313H-0.458008ZM-0.239407 22.988C-0.0884698 21.6113 0.135335 20.2557 0.43721 18.9284L1.38968 19.3238C1.10342 20.5875 0.890025 21.8725 0.749496 23.1857L-0.239407 22.988ZM0.593354 18.2647C0.916048 16.9445 1.31681 15.6595 1.78524 14.4169L2.67526 15.0382C2.22765 16.2173 1.8477 17.4387 1.54062 18.6954L0.593354 18.2647ZM2.02466 13.8027C2.51911 12.5742 3.07602 11.4022 3.70059 10.2867L4.49692 11.1057C3.90358 12.1718 3.37269 13.2803 2.90426 14.4452L2.02466 13.8027ZM4.01808 9.7431C4.65827 8.65583 5.35571 7.63916 6.11039 6.6931L6.78701 7.68858C6.06876 8.58523 5.40775 9.55247 4.7988 10.5903L4.01808 9.7431ZM6.49034 6.22713C7.26065 5.3093 8.07779 4.46914 8.94178 3.7137L9.48308 4.85039C8.66073 5.57053 7.88522 6.36833 7.15135 7.24379L6.49034 6.22713ZM9.37898 3.34657C10.2638 2.61231 11.185 1.9769 12.1427 1.44032L12.5227 2.68997C11.617 3.20537 10.7426 3.80548 9.89946 4.50444L9.37898 3.34657ZM12.6111 1.18615C13.5688 0.684881 14.5525 0.28245 15.5518 -0.021138L15.7704 1.29912C14.818 1.58858 13.8811 1.96983 12.9703 2.44993L12.6111 1.18615ZM16.0567 -0.162342C17.056 -0.430628 18.0709 -0.593012 19.0963 -0.649494L19.1379 0.699002C18.1594 0.762543 17.1965 0.910806 16.2441 1.16497L16.0567 -0.162342ZM19.6167 -0.670675L19.9863 -0.677734H22.9842V0.677821H19.9915L19.6271 0.68488L19.6167 -0.670675Z" fill="#EDD7CA"/>
</g>
</g>
<mask id="mask7_311_36295" style="mask-type:luminance" maskUnits="userSpaceOnUse" x="1" y="2" width="270" height="57">
<path d="M1.79053 2.47119H270.564V58.1972H1.79053V2.47119Z" fill="white"/>
</mask>
<g mask="url(#mask7_311_36295)">
<mask id="mask8_311_36295" style="mask-type:luminance" maskUnits="userSpaceOnUse" x="1" y="2" width="270" height="57">
<path d="M21.7404 2.47119H250.573C255.866 2.47119 260.941 5.32351 264.683 10.3998C268.425 15.4761 270.528 22.3597 270.528 29.5399V31.1285C270.528 38.3087 268.425 45.1924 264.683 50.2686C260.941 55.3449 255.866 58.1972 250.573 58.1972H21.7404C16.4471 58.1972 11.3725 55.3449 7.63027 50.2686C3.88805 45.1924 1.79053 38.3087 1.79053 31.1285V29.5399C1.79053 22.3597 3.88805 15.4761 7.63027 10.3998C11.3725 5.32351 16.4471 2.47119 21.7404 2.47119Z" fill="white"/>
</mask>
<g mask="url(#mask8_311_36295)">
<mask id="mask9_311_36295" style="mask-type:luminance" maskUnits="userSpaceOnUse" x="1" y="0" width="271" height="59">
<path d="M271.668 0.769531H1.18677V58.6066H271.668V0.769531Z" fill="white"/>
</mask>
<g mask="url(#mask9_311_36295)">
<mask id="mask10_311_36295" style="mask-type:luminance" maskUnits="userSpaceOnUse" x="1" y="2" width="270" height="57">
<path d="M1.79053 2.47119H270.564V58.1972H1.79053V2.47119Z" fill="white"/>
</mask>
<g mask="url(#mask10_311_36295)">
<mask id="mask11_311_36295" style="mask-type:luminance" maskUnits="userSpaceOnUse" x="1" y="2" width="270" height="57">
<path d="M21.7404 2.47119H250.573C255.866 2.47119 260.941 5.32351 264.683 10.3998C268.425 15.4761 270.528 22.3597 270.528 29.5399V31.1285C270.528 38.3087 268.425 45.1924 264.683 50.2686C260.941 55.3449 255.866 58.1972 250.573 58.1972H21.7404C16.4471 58.1972 11.3725 55.3449 7.63027 50.2686C3.88804 45.1924 1.79053 38.3087 1.79053 31.1285V29.5399C1.79053 22.3597 3.88804 15.4761 7.63027 10.3998C11.3725 5.32351 16.4471 2.47119 21.7404 2.47119Z" fill="white"/>
</mask>
<g mask="url(#mask11_311_36295)">
<path d="M1.79053 2.47119H270.564V58.1972H1.79053V2.47119Z" fill="#F6E5DC"/>
</g>
</g>
</g>
</g>
</g>
<mask id="mask12_311_36295" style="mask-type:luminance" maskUnits="userSpaceOnUse" x="1" y="2" width="270" height="56">
<path d="M1.80078 2.47119H270.387V57.7171H1.80078V2.47119Z" fill="white"/>
</mask>
<g mask="url(#mask12_311_36295)">
<mask id="mask13_311_36295" style="mask-type:luminance" maskUnits="userSpaceOnUse" x="1" y="2" width="270" height="57">
<path d="M21.7506 2.47119H250.562C255.85 2.47119 260.925 5.32351 264.667 10.3998C268.409 15.4761 270.512 22.3597 270.512 29.5329V31.1285C270.512 38.3016 268.409 45.1853 264.667 50.2616C260.925 55.3379 255.85 58.1902 250.562 58.1902H21.7506C16.4626 58.1902 11.3879 55.3379 7.64572 50.2616C3.9035 45.1853 1.80078 38.3016 1.80078 31.1285V29.5329C1.80078 22.3597 3.9035 15.4761 7.64572 10.3998C11.3879 5.32351 16.4626 2.47119 21.7506 2.47119Z" fill="white"/>
</mask>
<g mask="url(#mask13_311_36295)">
<path d="M25.2429 1.79346H28.2356V3.14901H25.2429V1.79346ZM28.7353 1.79346H31.728V3.14901H28.7353V1.79346ZM32.2277 1.79346H35.2204V3.14901H32.2277V1.79346ZM35.7201 1.79346H38.7128V3.14901H35.7201V1.79346ZM39.2125 1.79346H42.2052V3.14901H39.2125V1.79346ZM42.7049 1.79346H45.6976V3.14901H42.7049V1.79346ZM46.1921 1.79346H49.1848V3.14901H46.1921V1.79346ZM49.6844 1.79346H52.6772V3.14901H49.6844V1.79346ZM53.1768 1.79346H56.1696V3.14901H53.1768V1.79346ZM56.6692 1.79346H59.662V3.14901H56.6692V1.79346ZM60.1616 1.79346H63.1544V3.14901H60.1616V1.79346ZM63.654 1.79346H66.6468V3.14901H63.654V1.79346ZM67.1464 1.79346H70.1391V3.14901H67.1464V1.79346ZM70.6388 1.79346H73.6315V3.14901H70.6388V1.79346ZM74.126 1.79346H77.1239V3.14901H74.126V1.79346ZM77.6184 1.79346H80.6111V3.14901H77.6184V1.79346ZM81.1108 1.79346H84.1035V3.14901H81.1108V1.79346ZM84.6032 1.79346H87.5959V3.14901H84.6032V1.79346ZM88.0956 1.79346H91.0883V3.14901H88.0956V1.79346ZM91.588 1.79346H94.5807V3.14901H91.588V1.79346ZM95.0803 1.79346H98.0731V3.14901H95.0803V1.79346ZM98.5727 1.79346H101.565V3.14901H98.5727V1.79346ZM102.065 1.79346H105.058V3.14901H102.065V1.79346ZM105.552 1.79346H108.55V3.14901H105.552V1.79346ZM109.045 1.79346H112.037V3.14901H109.045V1.79346ZM112.537 1.79346H115.53V3.14901H112.537V1.79346ZM116.029 1.79346H119.022V3.14901H116.029V1.79346ZM119.522 1.79346H122.515V3.14901H119.522V1.79346ZM123.014 1.79346H126.007V3.14901H123.014V1.79346ZM126.507 1.79346H129.499V3.14901H126.507V1.79346ZM129.999 1.79346H132.992V3.14901H129.999V1.79346ZM133.491 1.79346H136.484V3.14901H133.491V1.79346ZM136.979 1.79346H139.977V3.14901H136.979V1.79346ZM140.471 1.79346H143.464V3.14901H140.471V1.79346ZM143.963 1.79346H146.956V3.14901H143.963V1.79346ZM147.456 1.79346H150.449V3.14901H147.456V1.79346ZM150.948 1.79346H153.941V3.14901H150.948V1.79346ZM154.441 1.79346H157.433V3.14901H154.441V1.79346ZM157.933 1.79346H160.926V3.14901H157.933V1.79346ZM161.425 1.79346H164.418V3.14901H161.425V1.79346ZM164.918 1.79346H167.911V3.14901H164.918V1.79346ZM168.405 1.79346H171.403V3.14901H168.405V1.79346ZM171.897 1.79346H174.89V3.14901H171.897V1.79346ZM175.39 1.79346H178.382V3.14901H175.39V1.79346ZM178.882 1.79346H181.875V3.14901H178.882V1.79346ZM182.375 1.79346H185.367V3.14901H182.375V1.79346ZM185.867 1.79346H188.86V3.14901H185.867V1.79346ZM189.359 1.79346H192.352V3.14901H189.359V1.79346ZM192.852 1.79346H195.844V3.14901H192.852V1.79346ZM196.344 1.79346H199.337V3.14901H196.344V1.79346ZM199.831 1.79346H202.824V3.14901H199.831V1.79346ZM203.324 1.79346H206.316V3.14901H203.324V1.79346ZM206.816 1.79346H209.809V3.14901H206.816V1.79346ZM210.308 1.79346H213.301V3.14901H210.308V1.79346ZM213.801 1.79346H216.794V3.14901H213.801V1.79346ZM217.293 1.79346H220.286V3.14901H217.293V1.79346ZM220.786 1.79346H223.778V3.14901H220.786V1.79346ZM224.278 1.79346H227.271V3.14901H224.278V1.79346ZM227.77 1.79346H230.763V3.14901H227.77V1.79346ZM231.258 1.79346H234.25V3.14901H231.258V1.79346ZM234.75 1.79346H237.743V3.14901H234.75V1.79346ZM238.242 1.79346H241.235V3.14901H238.242V1.79346ZM241.735 1.79346H244.728V3.14901H241.735V1.79346ZM245.227 1.79346H248.22V3.14901H245.227V1.79346ZM248.72 1.79346H250.562C250.958 1.79346 251.353 1.81464 251.749 1.84288L251.691 3.19138C251.312 3.16313 250.937 3.14901 250.562 3.14901H248.72V1.79346ZM252.259 1.8923C253.279 2.00526 254.289 2.22413 255.288 2.5489L255.054 3.86209C254.106 3.5585 253.149 3.3467 252.176 3.2408L252.259 1.8923ZM255.782 2.71834C256.777 3.07135 257.739 3.5232 258.681 4.0739L258.286 5.31649C257.391 4.79404 256.469 4.36336 255.527 4.02448L255.782 2.71834ZM259.15 4.36336C260.082 4.9423 260.977 5.62008 261.83 6.38964L261.279 7.51927C260.467 6.78501 259.618 6.14253 258.728 5.59184L259.15 4.36336ZM262.257 6.77795C263.106 7.58281 263.907 8.47239 264.657 9.43964L263.97 10.421C263.256 9.49612 262.491 8.65596 261.685 7.89346L262.257 6.77795ZM265.026 9.93385C265.76 10.9293 266.437 11.9954 267.051 13.1251L266.244 13.9299C265.661 12.8497 265.021 11.833 264.323 10.887L265.026 9.93385ZM267.347 13.6969C267.936 14.8407 268.456 16.0339 268.909 17.2906L268.014 17.8836C267.582 16.6975 267.087 15.5538 266.53 14.4665L267.347 13.6969ZM269.127 17.9119C269.559 19.1756 269.913 20.4747 270.2 21.8091L269.242 22.1903C268.971 20.9195 268.633 19.684 268.222 18.4837L269.127 17.9119ZM270.34 22.4798C270.6 23.8212 270.783 25.1838 270.892 26.5676L269.903 26.7159C269.799 25.4027 269.622 24.1036 269.372 22.8258L270.34 22.4798ZM270.944 27.2595C270.986 28.015 271.012 28.7775 271.012 29.5329V31.3898L270.012 31.3827V29.5329C270.012 28.8128 269.991 28.0926 269.945 27.3725L270.944 27.2595ZM270.996 32.0958C270.965 33.4866 270.85 34.8634 270.663 36.226L269.679 35.9789C269.861 34.6798 269.965 33.3666 270.002 32.0464L270.996 32.0958ZM270.559 36.9108C270.345 38.2734 270.059 39.6007 269.7 40.9069L268.763 40.4268C269.107 39.1913 269.382 37.9204 269.585 36.6284L270.559 36.9108ZM269.513 41.5494C269.127 42.8414 268.669 44.084 268.149 45.2771L267.29 44.5923C267.79 43.4486 268.222 42.2695 268.586 41.041L269.513 41.5494ZM267.883 45.8702C267.332 47.0563 266.723 48.1859 266.046 49.245L265.292 48.3624C265.932 47.3528 266.515 46.2797 267.035 45.1571L267.883 45.8702ZM265.703 49.7674C265.484 50.0992 265.255 50.424 265.021 50.7417C264.521 51.4195 263.99 52.062 263.444 52.6692L262.814 51.6172C263.34 51.0453 263.839 50.4311 264.313 49.7815C264.537 49.485 264.755 49.1744 264.964 48.8637L265.703 49.7674ZM263.038 53.1069C262.221 53.9541 261.362 54.7237 260.461 55.3944L259.977 54.2153C260.836 53.5729 261.653 52.8457 262.429 52.0337L263.038 53.1069ZM260.014 55.7262C259.103 56.3687 258.166 56.9123 257.193 57.3642L256.87 56.0863C257.791 55.6556 258.687 55.1402 259.551 54.526L260.014 55.7262ZM256.709 57.583C255.73 57.9996 254.736 58.3173 253.721 58.5362L253.565 57.1947C254.533 56.99 255.481 56.6935 256.407 56.291L256.709 57.583ZM253.216 58.6279C252.337 58.7903 251.452 58.868 250.562 58.868H250.156V57.5124H250.562C251.405 57.5124 252.248 57.4418 253.086 57.2865L253.216 58.6279ZM249.656 58.868H246.664V57.5124H249.656V58.868ZM246.164 58.868H243.171V57.5124H246.164V58.868ZM242.672 58.868H239.679V57.5124H242.672V58.868ZM239.179 58.868H236.187V57.5124H239.179V58.868ZM235.692 58.868H232.699V57.5124H235.692V58.868ZM232.2 58.868H229.207V57.5124H232.2V58.868ZM228.707 58.868H225.715V57.5124H228.707V58.868ZM225.215 58.868H222.222V57.5124H225.215V58.868ZM221.722 58.868H218.73V57.5124H221.722V58.868ZM218.23 58.868H215.237V57.5124H218.23V58.868ZM214.738 58.868H211.745V57.5124H214.738V58.868ZM211.245 58.868H208.253V57.5124H211.245V58.868ZM207.753 58.868H204.76V57.5124H207.753V58.868ZM204.266 58.868H201.273V57.5124H204.266V58.868ZM200.773 58.868H197.781V57.5124H200.773V58.868ZM197.281 58.868H194.288V57.5124H197.281V58.868ZM193.789 58.868H190.796V57.5124H193.789V58.868ZM190.296 58.868H187.303V57.5124H190.296V58.868ZM186.804 58.868H183.811V57.5124H186.804V58.868ZM183.311 58.868H180.319V57.5124H183.311V58.868ZM179.819 58.868H176.826V57.5124H179.819V58.868ZM176.327 58.868H173.334V57.5124H176.327V58.868ZM172.839 58.868H169.847V57.5124H172.839V58.868ZM169.347 58.868H166.354V57.5124H169.347V58.868ZM165.855 58.868H162.862V57.5124H165.855V58.868ZM162.362 58.868H159.37V57.5124H162.362V58.868ZM158.87 58.868H155.877V57.5124H158.87V58.868ZM155.377 58.868H152.385V57.5124H155.377V58.868ZM151.885 58.868H148.892V57.5124H151.885V58.868ZM148.393 58.868H145.4V57.5124H148.393V58.868ZM144.9 58.868H141.908V57.5124H144.9V58.868ZM141.413 58.868H138.42V57.5124H141.413V58.868ZM137.921 58.868H134.928V57.5124H137.921V58.868ZM134.428 58.868H131.436V57.5124H134.428V58.868ZM130.936 58.868H127.943V57.5124H130.936V58.868ZM127.444 58.868H124.451V57.5124H127.444V58.868ZM123.951 58.868H120.958V57.5124H123.951V58.868ZM120.459 58.868H117.466V57.5124H120.459V58.868ZM116.966 58.868H113.974V57.5124H116.966V58.868ZM113.479 58.868H110.481V57.5124H113.479V58.868ZM109.987 58.868H106.994V57.5124H109.987V58.868ZM106.494 58.868H103.502V57.5124H106.494V58.868ZM103.002 58.868H100.009V57.5124H103.002V58.868ZM99.5096 58.868H96.5169V57.5124H99.5096V58.868ZM96.0172 58.868H93.0245V57.5124H96.0172V58.868ZM92.5248 58.868H89.5321V57.5124H92.5248V58.868ZM89.0324 58.868H86.0397V57.5124H89.0324V58.868ZM85.54 58.868H82.5473V57.5124H85.54V58.868ZM82.0528 58.868H79.0549V57.5124H82.0528V58.868ZM78.5604 58.868H75.5677V57.5124H78.5604V58.868ZM75.068 58.868H72.0753V57.5124H75.068V58.868ZM71.5757 58.868H68.5829V57.5124H71.5757V58.868ZM68.0833 58.868H65.0905V57.5124H68.0833V58.868ZM64.5909 58.868H61.5981V57.5124H64.5909V58.868ZM61.0985 58.868H58.1057V57.5124H61.0985V58.868ZM57.6061 58.868H54.6134V57.5124H57.6061V58.868ZM54.1137 58.868H51.121V57.5124H54.1137V58.868ZM50.6265 58.868H47.6286V57.5124H50.6265V58.868ZM47.1341 58.868H44.1414V57.5124H47.1341V58.868ZM43.6417 58.868H40.649V57.5124H43.6417V58.868ZM40.1493 58.868H37.1566V57.5124H40.1493V58.868ZM36.6569 58.868H33.6642V57.5124H36.6569V58.868ZM33.1645 58.868H30.1718V57.5124H33.1645V58.868ZM29.6722 58.868H26.6794V57.5124H29.6722V58.868ZM26.1798 58.868H23.187V57.5124H26.1798V58.868ZM22.6874 58.868H21.7505C21.0427 58.868 20.34 58.8186 19.6374 58.7197L19.7415 57.3712C20.4077 57.463 21.0791 57.5124 21.7505 57.5124H22.6874V58.868ZM19.1325 58.635C18.1124 58.4585 17.1131 58.1761 16.1294 57.7948L16.4 56.4958C17.3421 56.8629 18.2894 57.1241 19.2574 57.2936L19.1325 58.635ZM15.6401 57.5972C14.6616 57.1806 13.7092 56.6723 12.7879 56.058L13.2251 54.8437C14.1047 55.4226 15.0051 55.9098 15.9368 56.3051L15.6401 57.5972ZM12.3299 55.7474C11.4191 55.1049 10.5447 54.3707 9.71712 53.5517L10.3053 52.4573C11.0912 53.241 11.9239 53.9329 12.7931 54.5472L12.3299 55.7474ZM9.30074 53.1351C8.59289 52.3938 7.92148 51.596 7.2917 50.7417C7.18761 50.6005 7.08872 50.4593 6.98982 50.3181L7.70808 49.3862C7.80177 49.5203 7.90066 49.6545 7.99434 49.7815C8.59809 50.6005 9.23828 51.356 9.90969 52.062L9.30074 53.1351ZM6.6307 49.8098C5.93846 48.7719 5.30348 47.6635 4.73096 46.4986L5.55852 45.7502C6.10502 46.8586 6.70877 47.9106 7.36977 48.892L6.6307 49.8098ZM4.4499 45.9126C3.9034 44.7406 3.42457 43.5121 3.01339 42.2342L3.92943 41.6906C4.31978 42.9049 4.7726 44.0698 5.29307 45.1924L4.4499 45.9126ZM2.81561 41.5988C2.42525 40.3068 2.11297 38.9865 1.87355 37.638L2.84163 37.3203C3.07064 38.6053 3.36731 39.862 3.73685 41.0834L2.81561 41.5988ZM1.75904 36.9532C1.54044 35.5976 1.40512 34.2279 1.34266 32.8371L2.33677 32.7524C2.39402 34.0726 2.52935 35.3788 2.73233 36.6708L1.75904 36.9532ZM1.31664 32.1452C1.30623 31.8063 1.30103 31.4674 1.30103 31.1285V29.5329C1.30103 29.0246 1.31143 28.5163 1.33225 28.0009L2.32636 28.0785C2.31075 28.5657 2.30034 29.0528 2.30034 29.5329V31.1285C2.30034 31.4462 2.30554 31.771 2.31075 32.0958L1.31664 32.1452ZM1.36869 27.309C1.45196 25.9252 1.60811 24.5555 1.84232 23.1999L2.8104 23.5106C2.59181 24.7955 2.44087 26.1017 2.36279 27.4149L1.36869 27.309ZM1.96723 22.5292C2.22227 21.1807 2.55537 19.8675 2.96134 18.5896L3.87738 19.1262C3.49223 20.3406 3.17474 21.5902 2.93011 22.8681L1.96723 22.5292ZM3.16953 17.9542C3.59632 16.6904 4.09078 15.4761 4.65289 14.3112L5.49085 15.0525C4.95476 16.1609 4.48113 17.3188 4.07516 18.519L3.16953 17.9542ZM4.94435 13.7322C5.53249 12.5814 6.18309 11.4942 6.89614 10.4704L7.6196 11.4024C6.94298 12.3767 6.32362 13.4075 5.7615 14.5089L4.94435 13.7322ZM7.25527 9.96915L7.2917 9.91973C8.01516 8.93837 8.78546 8.04172 9.60782 7.21568L10.2012 8.30295C9.42045 9.08663 8.68658 9.94797 7.99955 10.8799L7.96312 10.9223L7.25527 9.96915ZM10.0242 6.80619C10.8674 6.00839 11.747 5.30237 12.6682 4.68107L13.1106 5.89543C12.2362 6.48142 11.3983 7.1592 10.5967 7.91464L10.0242 6.80619ZM13.1314 4.37749C14.0579 3.79149 15.0156 3.30434 15.9993 2.91603L16.2803 4.2151C15.3435 4.58223 14.4378 5.0482 13.553 5.60596L13.1314 4.37749ZM16.4937 2.7254C17.4826 2.37239 18.4871 2.11823 19.5073 1.9629L19.6166 3.3114C18.6485 3.4526 17.6908 3.69265 16.7487 4.0386L16.4937 2.7254ZM20.0173 1.8923C20.5951 1.82876 21.1728 1.79346 21.7505 1.79346H24.7433V3.14901H21.7505C21.1988 3.14901 20.6523 3.17725 20.1006 3.2408L20.0173 1.8923Z" fill="#EDD7CA"/>
</g>
</g>
</svg>
