<svg width="18" height="15" viewBox="0 0 18 15" fill="none" xmlns="http://www.w3.org/2000/svg">
<mask id="mask0_471_22159" style="mask-type:luminance" maskUnits="userSpaceOnUse" x="0" y="0" width="18" height="15">
<path d="M17.3333 0H0V14.6667H17.3333V0Z" fill="white"/>
</mask>
<g mask="url(#mask0_471_22159)">
<mask id="mask1_471_22159" style="mask-type:luminance" maskUnits="userSpaceOnUse" x="0" y="1" width="16" height="11">
<path d="M0.182312 1.33325H16V11.9999H0.182312V1.33325Z" fill="white"/>
</mask>
<g mask="url(#mask1_471_22159)">
<path d="M3.72524 10.6653C2.72524 10.6653 1.99607 10.2174 1.53774 9.31112C1.18878 8.60278 1.01691 7.69653 1.01691 6.58195C1.01691 5.62362 1.24607 4.8007 1.70441 4.10278C2.23045 3.26945 2.95441 2.85278 3.87107 2.85278C4.73045 2.85278 5.40232 3.22258 5.89191 3.95695C6.29295 4.58195 6.49607 5.35278 6.49607 6.26945C6.49607 7.74341 6.26691 8.84758 5.80857 9.58195C5.35024 10.3059 4.65232 10.6653 3.72524 10.6653ZM3.87107 3.79028C3.25649 3.79028 2.77211 4.10278 2.41274 4.72778C2.12107 5.24341 1.97524 5.83195 1.97524 6.49862C1.97524 7.57153 2.12107 8.37362 2.41274 8.91528C2.70441 9.45695 3.14191 9.72778 3.72524 9.72778C4.41795 9.72778 4.91274 9.33195 5.20441 8.54028C5.41274 7.9882 5.51691 7.29028 5.51691 6.45695C5.51691 5.57153 5.37628 4.90487 5.10024 4.45695C4.83461 4.01424 4.42316 3.79028 3.87107 3.79028Z" fill="#DB2C2C"/>
<path d="M9.01614 5.37354C8.55781 5.37354 8.19323 5.21729 7.93281 4.89437C7.69323 4.6027 7.57864 4.2277 7.57864 3.76937C7.57864 3.45166 7.74531 3.14437 8.07864 2.8527C8.39635 2.57666 8.71406 2.43604 9.03698 2.43604C9.50573 2.43604 9.88073 2.59229 10.162 2.89437C10.438 3.20166 10.5786 3.59229 10.5786 4.06104C10.5786 4.46729 10.412 4.7902 10.0786 5.0402C9.77135 5.26416 9.41719 5.37354 9.01614 5.37354ZM12.8911 3.2902C12.7766 3.48812 12.6516 3.74333 12.5161 4.06104L12.162 4.8527L11.2036 6.93604L10.0995 9.24854C10.0005 9.49854 9.83385 9.87354 9.59948 10.3735C9.50052 10.5402 9.37552 10.6235 9.22448 10.6235C9.12552 10.6235 9.02656 10.5819 8.93281 10.4985C8.84948 10.4308 8.80781 10.3423 8.80781 10.2277C8.80781 10.1756 8.81823 10.1183 8.84948 10.061C9.00052 9.61833 9.25573 9.0402 9.62031 8.33187C10.037 7.48812 10.3078 6.9152 10.4328 6.62354L11.7661 3.68604C11.9432 3.24333 12.1047 2.94645 12.2453 2.7902C12.3391 2.68083 12.4432 2.62354 12.5578 2.62354C12.6672 2.62354 12.7661 2.6652 12.8495 2.74854C12.9432 2.83187 12.9953 2.93083 12.9953 3.0402C12.9953 3.11312 12.9589 3.19645 12.8911 3.2902ZM13.037 10.561C12.5891 10.561 12.2141 10.4308 11.912 10.1652C11.6047 9.88916 11.4536 9.52978 11.4536 9.08187C11.4536 8.61312 11.5891 8.21729 11.8703 7.89437C12.162 7.55062 12.5422 7.37354 13.0161 7.37354C13.4589 7.37354 13.8495 7.49854 14.1828 7.74854C14.5578 8.02978 14.7453 8.38395 14.7453 8.81104C14.7453 9.31104 14.5839 9.7277 14.2661 10.061C13.9432 10.3944 13.537 10.561 13.037 10.561ZM9.01614 3.24854C8.85989 3.24854 8.72448 3.30062 8.59948 3.39437C8.45885 3.50895 8.39114 3.63395 8.39114 3.76937C8.39114 4.01937 8.43802 4.21729 8.53698 4.3527C8.64635 4.4777 8.80781 4.5402 9.01614 4.5402C9.19323 4.5402 9.35469 4.50895 9.49531 4.43604C9.66198 4.34229 9.74531 4.21729 9.74531 4.06104C9.74531 3.80062 9.68281 3.59749 9.55781 3.45687C9.44323 3.32145 9.26614 3.24854 9.01614 3.24854ZM13.0161 8.20687C12.7766 8.20687 12.5891 8.30062 12.4536 8.4777C12.3391 8.63395 12.287 8.83187 12.287 9.08187C12.287 9.30583 12.3547 9.47249 12.4953 9.58187C12.6307 9.69645 12.8495 9.74854 13.1411 9.74854C13.4016 9.74854 13.5995 9.67562 13.7245 9.51937C13.8495 9.36833 13.912 9.13395 13.912 8.81104C13.912 8.63395 13.813 8.4777 13.6203 8.3527C13.438 8.25895 13.2349 8.20687 13.0161 8.20687Z" fill="#DB2C2C"/>
</g>
</g>
</svg>
