<svg width="141" height="26" viewBox="0 0 141 26" fill="none" xmlns="http://www.w3.org/2000/svg">
<mask id="mask0_471_24850" style="mask-type:luminance" maskUnits="userSpaceOnUse" x="0" y="0" width="141" height="26">
<path d="M0 0H140.583V25.0208H0V0Z" fill="white"/>
</mask>
<g mask="url(#mask0_471_24850)">
<mask id="mask1_471_24850" style="mask-type:luminance" maskUnits="userSpaceOnUse" x="0" y="0" width="141" height="26">
<path d="M10.0833 0.098877H130.547C133.193 0.098877 135.734 1.15096 137.604 3.02075C139.479 4.89575 140.526 7.43221 140.526 10.0833V15.0364C140.526 17.6874 139.479 20.2239 137.604 22.0989C135.734 23.9687 133.193 25.0208 130.547 25.0208H10.0833C7.43229 25.0208 4.89583 23.9687 3.02083 22.0989C1.15104 20.2239 0.0989532 17.6874 0.0989532 15.0364V10.0833C0.0989532 7.43221 1.15104 4.89575 3.02083 3.02075C4.89583 1.15096 7.43229 0.098877 10.0833 0.098877Z" fill="white"/>
</mask>
<g mask="url(#mask1_471_24850)">
<mask id="mask2_471_24850" style="mask-type:luminance" maskUnits="userSpaceOnUse" x="-1" y="-1" width="142" height="28">
<path d="M140.802 -0.541748H-0.53125V26.1249H140.802V-0.541748Z" fill="white"/>
</mask>
<g mask="url(#mask2_471_24850)">
<mask id="mask3_471_24850" style="mask-type:luminance" maskUnits="userSpaceOnUse" x="0" y="0" width="141" height="26">
<path d="M0 0H140.583V25.0208H0V0Z" fill="white"/>
</mask>
<g mask="url(#mask3_471_24850)">
<mask id="mask4_471_24850" style="mask-type:luminance" maskUnits="userSpaceOnUse" x="0" y="0" width="141" height="26">
<path d="M10.0833 0.098877H130.547C133.193 0.098877 135.734 1.15096 137.604 3.02075C139.479 4.89575 140.526 7.43221 140.526 10.0833V15.0364C140.526 17.6874 139.479 20.2239 137.604 22.0989C135.734 23.9687 133.193 25.0208 130.547 25.0208H10.0833C7.43229 25.0208 4.89583 23.9687 3.02083 22.0989C1.15104 20.2239 0.0989532 17.6874 0.0989532 15.0364V10.0833C0.0989532 7.43221 1.15104 4.89575 3.02083 3.02075C4.89583 1.15096 7.43229 0.098877 10.0833 0.098877Z" fill="white"/>
</mask>
<g mask="url(#mask4_471_24850)">
<path d="M0.0989532 0.098877H140.484V25.0208H0.0989532V0.098877Z" fill="#FAF1E9"/>
</g>
</g>
</g>
</g>
</g>
<mask id="mask5_471_24850" style="mask-type:luminance" maskUnits="userSpaceOnUse" x="0" y="0" width="141" height="26">
<path d="M0.125 0.098877H140.802V25.0572H0.125V0.098877Z" fill="white"/>
</mask>
<g mask="url(#mask5_471_24850)">
<mask id="mask6_471_24850" style="mask-type:luminance" maskUnits="userSpaceOnUse" x="0" y="0" width="141" height="26">
<path d="M10.1042 0.098877H130.516C133.161 0.098877 135.698 1.15096 137.573 3.02075C139.443 4.89575 140.495 7.43221 140.495 10.078V15.0312C140.495 17.677 139.443 20.2187 137.573 22.0885C135.698 23.9583 133.161 25.0103 130.516 25.0103H10.1042C7.45833 25.0103 4.92188 23.9583 3.04688 22.0885C1.17708 20.2187 0.125 17.677 0.125 15.0312V10.078C0.125 7.43221 1.17708 4.89575 3.04688 3.02075C4.92188 1.15096 7.45833 0.098877 10.1042 0.098877Z" fill="white"/>
</mask>
<g mask="url(#mask6_471_24850)">
<path d="M10.1042 0.098877H130.516C133.161 0.098877 135.698 1.15096 137.573 3.02075C139.443 4.89575 140.495 7.43221 140.495 10.078V15.0312C140.495 17.677 139.443 20.2187 137.573 22.0885C135.698 23.9582 133.161 25.0103 130.516 25.0103H10.1042C7.45833 25.0103 4.92187 23.9582 3.04687 22.0885C1.17708 20.2187 0.125 17.677 0.125 15.0312V10.078C0.125 7.43221 1.17708 4.89575 3.04687 3.02075C4.92187 1.15096 7.45833 0.098877 10.1042 0.098877Z" stroke="#9C6C69" stroke-width="0.998344"/>
</g>
</g>
<mask id="mask7_471_24850" style="mask-type:luminance" maskUnits="userSpaceOnUse" x="28" y="10" width="72" height="6">
<path d="M28.0521 10.0625H99.5157V15.0573H28.0521V10.0625Z" fill="white"/>
</mask>
<g mask="url(#mask7_471_24850)">
<mask id="mask8_471_24850" style="mask-type:luminance" maskUnits="userSpaceOnUse" x="28" y="10" width="72" height="6">
<path d="M30.5469 10.0625H97C98.3802 10.0625 99.4948 11.1823 99.4948 12.5625C99.4948 13.9375 98.3802 15.0573 97 15.0573H30.5469C29.1667 15.0573 28.0521 13.9375 28.0521 12.5625C28.0521 11.1823 29.1667 10.0625 30.5469 10.0625Z" fill="white"/>
</mask>
<g mask="url(#mask8_471_24850)">
<mask id="mask9_471_24850" style="mask-type:luminance" maskUnits="userSpaceOnUse" x="27" y="8" width="74" height="8">
<path d="M100.802 8.79175H27.4688V15.4584H100.802V8.79175Z" fill="white"/>
</mask>
<g mask="url(#mask9_471_24850)">
<mask id="mask10_471_24850" style="mask-type:luminance" maskUnits="userSpaceOnUse" x="28" y="10" width="72" height="6">
<path d="M28.0521 10.0625H99.5105V15.0573H28.0521V10.0625Z" fill="white"/>
</mask>
<g mask="url(#mask10_471_24850)">
<mask id="mask11_471_24850" style="mask-type:luminance" maskUnits="userSpaceOnUse" x="28" y="10" width="72" height="6">
<path d="M30.5469 10.0625H97C98.3802 10.0625 99.4948 11.1823 99.4948 12.5625C99.4948 13.9375 98.3802 15.0573 97 15.0573H30.5469C29.1667 15.0573 28.0521 13.9375 28.0521 12.5625C28.0521 11.1823 29.1667 10.0625 30.5469 10.0625Z" fill="white"/>
</mask>
<g mask="url(#mask11_471_24850)">
<path d="M28.0521 10.0625H99.4948V15.0573H28.0521V10.0625Z" fill="#EECCBF"/>
</g>
</g>
</g>
<mask id="mask12_471_24850" style="mask-type:luminance" maskUnits="userSpaceOnUse" x="27" y="8" width="74" height="8">
<path d="M100.802 8.79175H27.4688V15.4584H100.802V8.79175Z" fill="white"/>
</mask>
<g mask="url(#mask12_471_24850)">
<mask id="mask13_471_24850" style="mask-type:luminance" maskUnits="userSpaceOnUse" x="28" y="10" width="72" height="6">
<path d="M28.0521 10.0625H99.5105V15.0573H28.0521V10.0625Z" fill="white"/>
</mask>
<g mask="url(#mask13_471_24850)">
<mask id="mask14_471_24850" style="mask-type:luminance" maskUnits="userSpaceOnUse" x="28" y="10" width="72" height="6">
<path d="M30.5469 10.0625H97C98.3802 10.0625 99.4948 11.1823 99.4948 12.5625C99.4948 13.9375 98.3802 15.0573 97 15.0573H30.5469C29.1667 15.0573 28.0521 13.9375 28.0521 12.5625C28.0521 11.1823 29.1667 10.0625 30.5469 10.0625Z" fill="white"/>
</mask>
<g mask="url(#mask14_471_24850)">
<path d="M28.0521 10.0625H99.4948V15.0573H28.0521V10.0625Z" fill="#61A41E"/>
</g>
</g>
</g>
</g>
</g>
<mask id="mask15_471_24850" style="mask-type:luminance" maskUnits="userSpaceOnUse" x="105" y="5" width="29" height="16">
<path d="M133.734 5.49463H105.734V20.1613H133.734V5.49463Z" fill="white"/>
</mask>
<g mask="url(#mask15_471_24850)">
<path d="M109.934 16.6844H107.976C107.752 16.6844 107.59 16.674 107.496 16.6427C107.33 16.5907 107.246 16.4657 107.246 16.2677C107.246 15.9344 107.502 15.7677 108.017 15.7677H108.246L108.455 15.7886C108.455 15.6375 108.439 15.4084 108.413 15.1011C108.382 14.7834 108.371 14.549 108.371 14.3927C108.371 13.9761 108.403 13.3459 108.476 12.4969C108.559 11.6636 108.59 11.0334 108.58 10.6011C108.147 10.95 107.871 11.1219 107.746 11.1219C107.621 11.1219 107.507 11.075 107.413 10.9761C107.314 10.8823 107.267 10.7677 107.267 10.6427C107.267 10.4917 107.403 10.3042 107.684 10.0802C107.861 9.95524 108.111 9.75732 108.434 9.47607C108.726 9.18441 109.002 9.03857 109.267 9.03857C109.476 9.03857 109.58 9.16357 109.58 9.41357C109.58 9.49691 109.569 9.6167 109.559 9.76774C109.543 9.90837 109.538 10.0125 109.538 10.0802C109.538 10.1948 109.538 10.3615 109.538 10.5802C109.548 10.8042 109.559 10.9709 109.559 11.0802C109.559 11.4448 109.517 11.9969 109.434 12.7469C109.361 13.4865 109.33 14.0334 109.33 14.3927C109.33 14.5907 109.34 14.825 109.371 15.1011C109.397 15.3667 109.413 15.5907 109.413 15.7677L109.934 15.7469C110.069 15.7469 110.184 15.799 110.267 15.8927C110.361 15.9761 110.413 16.0907 110.413 16.2261C110.413 16.3667 110.361 16.4761 110.267 16.5594C110.184 16.6427 110.069 16.6844 109.934 16.6844Z" fill="#61A41E"/>
<path d="M113.993 16.8721C112.993 16.8721 112.264 16.4242 111.805 15.5179C111.456 14.8096 111.284 13.9033 111.284 12.7887C111.284 11.8304 111.514 11.0075 111.972 10.3096C112.498 9.47624 113.222 9.05957 114.139 9.05957C114.998 9.05957 115.67 9.42936 116.159 10.1637C116.56 10.7887 116.764 11.5596 116.764 12.4762C116.764 13.9502 116.534 15.0544 116.076 15.7887C115.618 16.5127 114.92 16.8721 113.993 16.8721ZM114.139 9.99707C113.524 9.99707 113.04 10.3096 112.68 10.9346C112.389 11.4502 112.243 12.0387 112.243 12.7054C112.243 13.7783 112.389 14.5804 112.68 15.1221C112.972 15.6637 113.409 15.9346 113.993 15.9346C114.685 15.9346 115.18 15.5387 115.472 14.7471C115.68 14.195 115.784 13.4971 115.784 12.6637C115.784 11.7783 115.644 11.1117 115.368 10.6637C115.102 10.221 114.691 9.99707 114.139 9.99707Z" fill="#61A41E"/>
<path d="M120.117 16.8721C119.117 16.8721 118.388 16.4242 117.929 15.5179C117.58 14.8096 117.409 13.9033 117.409 12.7887C117.409 11.8304 117.638 11.0075 118.096 10.3096C118.622 9.47624 119.346 9.05957 120.263 9.05957C121.122 9.05957 121.794 9.42936 122.284 10.1637C122.685 10.7887 122.888 11.5596 122.888 12.4762C122.888 13.9502 122.659 15.0544 122.2 15.7887C121.742 16.5127 121.044 16.8721 120.117 16.8721ZM120.263 9.99707C119.648 9.99707 119.164 10.3096 118.804 10.9346C118.513 11.4502 118.367 12.0387 118.367 12.7054C118.367 13.7783 118.513 14.5804 118.804 15.1221C119.096 15.6637 119.534 15.9346 120.117 15.9346C120.81 15.9346 121.304 15.5387 121.596 14.7471C121.804 14.195 121.909 13.4971 121.909 12.6637C121.909 11.7783 121.768 11.1117 121.492 10.6637C121.226 10.221 120.815 9.99707 120.263 9.99707Z" fill="#61A41E"/>
<path d="M125.408 11.5803C124.949 11.5803 124.585 11.4241 124.324 11.1012C124.085 10.8095 123.97 10.4345 123.97 9.97616C123.97 9.65845 124.137 9.35116 124.47 9.05949C124.788 8.78345 125.106 8.64282 125.429 8.64282C125.897 8.64282 126.272 8.79907 126.554 9.10116C126.83 9.40845 126.97 9.79907 126.97 10.2678C126.97 10.6741 126.804 10.997 126.47 11.247C126.163 11.4709 125.809 11.5803 125.408 11.5803ZM129.283 9.49699C129.168 9.6949 129.043 9.95011 128.908 10.2678L128.554 11.0595L127.595 13.1428L126.491 15.4553C126.392 15.7053 126.226 16.0803 125.991 16.5803C125.892 16.747 125.767 16.8303 125.616 16.8303C125.517 16.8303 125.418 16.7887 125.324 16.7053C125.241 16.6376 125.199 16.5491 125.199 16.4345C125.199 16.3824 125.21 16.3251 125.241 16.2678C125.392 15.8251 125.647 15.247 126.012 14.5387C126.429 13.6949 126.699 13.122 126.824 12.8303L128.158 9.89282C128.335 9.45011 128.496 9.15324 128.637 8.99699C128.731 8.88761 128.835 8.83032 128.949 8.83032C129.059 8.83032 129.158 8.87199 129.241 8.95532C129.335 9.03866 129.387 9.13761 129.387 9.24699C129.387 9.3199 129.351 9.40324 129.283 9.49699ZM129.429 16.7678C128.981 16.7678 128.606 16.6376 128.304 16.372C127.996 16.0959 127.845 15.7366 127.845 15.2887C127.845 14.8199 127.981 14.4241 128.262 14.1012C128.554 13.7574 128.934 13.5803 129.408 13.5803C129.851 13.5803 130.241 13.7053 130.574 13.9553C130.949 14.2366 131.137 14.5907 131.137 15.0178C131.137 15.5178 130.976 15.9345 130.658 16.2678C130.335 16.6012 129.929 16.7678 129.429 16.7678ZM125.408 9.45532C125.252 9.45532 125.116 9.50741 124.991 9.60116C124.851 9.71574 124.783 9.84074 124.783 9.97616C124.783 10.2262 124.83 10.4241 124.929 10.5595C125.038 10.6845 125.199 10.747 125.408 10.747C125.585 10.747 125.746 10.7157 125.887 10.6428C126.054 10.5491 126.137 10.4241 126.137 10.2678C126.137 10.0074 126.074 9.80428 125.949 9.66366C125.835 9.52824 125.658 9.45532 125.408 9.45532ZM129.408 14.4137C129.168 14.4137 128.981 14.5074 128.845 14.6845C128.731 14.8407 128.679 15.0387 128.679 15.2887C128.679 15.5126 128.746 15.6793 128.887 15.7887C129.022 15.9032 129.241 15.9553 129.533 15.9553C129.793 15.9553 129.991 15.8824 130.116 15.7262C130.241 15.5751 130.304 15.3407 130.304 15.0178C130.304 14.8407 130.205 14.6845 130.012 14.5595C129.83 14.4657 129.627 14.4137 129.408 14.4137Z" fill="#61A41E"/>
</g>
<mask id="mask16_471_24850" style="mask-type:luminance" maskUnits="userSpaceOnUse" x="10" y="8" width="11" height="9">
<path d="M10.7084 8.00513H20.6927V16.9895H10.7084V8.00513Z" fill="white"/>
</mask>
<g mask="url(#mask16_471_24850)">
<path d="M13.25 8.01025C12.974 8.00504 12.7709 8.0415 12.5521 8.13004C11.9584 8.36442 11.5209 8.82275 11.1355 9.61442C10.8438 10.2082 10.75 10.6092 10.7292 11.3436C10.7188 11.7655 10.724 11.8748 10.7709 12.1509C10.8021 12.328 10.8646 12.5936 10.9167 12.7446C11.0157 13.0467 11.3021 13.6144 11.5313 13.9686C12.0053 14.7082 12.7344 15.3696 13.6459 15.9009C13.7865 15.9842 13.9844 16.104 14.0834 16.1717C14.1823 16.2394 14.448 16.4009 14.6771 16.5311C14.9011 16.6613 15.1459 16.8123 15.2188 16.8644C15.2865 16.9165 15.4011 16.9946 15.474 17.0311C15.5469 17.0675 15.6355 17.0988 15.6719 17.0988C15.7605 17.0988 15.9688 16.9894 16.4636 16.6769C17.6042 15.9582 18.4375 15.3123 19.1719 14.5675C19.5938 14.1457 19.9948 13.5832 20.2709 13.0363C20.4532 12.6769 20.5261 12.4842 20.6511 12.0519C20.7917 11.5571 20.8282 11.3019 20.8125 10.854C20.7813 10.0623 20.5886 9.54671 20.1459 9.07796C19.9115 8.82796 19.6511 8.6665 19.2969 8.5415C19.0625 8.46338 19.0417 8.45817 18.6667 8.46338C18.1823 8.46338 17.9011 8.53108 17.4844 8.73942C16.9688 8.99463 16.5157 9.40609 16.1875 9.92171L16.0469 10.1457L15.9636 9.95817C15.5938 9.08317 15.0105 8.479 14.2448 8.19254C13.9323 8.07796 13.7292 8.03629 13.375 8.01546C13.3334 8.01546 13.2917 8.01025 13.25 8.01025Z" fill="#61A41E"/>
</g>
</svg>
