<svg width="141" height="26" viewBox="0 0 141 26" fill="none" xmlns="http://www.w3.org/2000/svg">
<mask id="mask0_471_24847" style="mask-type:luminance" maskUnits="userSpaceOnUse" x="0" y="0" width="141" height="26">
<path d="M0 0H140.583V25.0156H0V0Z" fill="white"/>
</mask>
<g mask="url(#mask0_471_24847)">
<mask id="mask1_471_24847" style="mask-type:luminance" maskUnits="userSpaceOnUse" x="0" y="0" width="141" height="26">
<path d="M10.0833 0.09375H130.547C133.193 0.09375 135.734 1.14583 137.604 3.02083C139.479 4.89063 140.526 7.43229 140.526 10.0781V15.0365C140.526 17.6823 139.479 20.224 137.604 22.0938C135.734 23.9635 133.193 25.0156 130.547 25.0156H10.0833C7.43229 25.0156 4.89583 23.9635 3.02083 22.0938C1.15104 20.224 0.0989532 17.6823 0.0989532 15.0365V10.0781C0.0989532 7.43229 1.15104 4.89063 3.02083 3.02083C4.89583 1.14583 7.43229 0.09375 10.0833 0.09375Z" fill="white"/>
</mask>
<g mask="url(#mask1_471_24847)">
<mask id="mask2_471_24847" style="mask-type:luminance" maskUnits="userSpaceOnUse" x="-1" y="-1" width="142" height="27">
<path d="M140.802 -0.75H-0.53125V25.9167H140.802V-0.75Z" fill="white"/>
</mask>
<g mask="url(#mask2_471_24847)">
<mask id="mask3_471_24847" style="mask-type:luminance" maskUnits="userSpaceOnUse" x="0" y="0" width="141" height="26">
<path d="M0 0H140.583V25.0156H0V0Z" fill="white"/>
</mask>
<g mask="url(#mask3_471_24847)">
<mask id="mask4_471_24847" style="mask-type:luminance" maskUnits="userSpaceOnUse" x="0" y="0" width="141" height="26">
<path d="M10.0833 0.09375H130.547C133.193 0.09375 135.734 1.14583 137.604 3.02083C139.479 4.89063 140.526 7.43229 140.526 10.0781V15.0365C140.526 17.6823 139.479 20.224 137.604 22.0938C135.734 23.9635 133.193 25.0156 130.547 25.0156H10.0833C7.43229 25.0156 4.89583 23.9635 3.02083 22.0938C1.15104 20.224 0.0989532 17.6823 0.0989532 15.0365V10.0781C0.0989532 7.43229 1.15104 4.89063 3.02083 3.02083C4.89583 1.14583 7.43229 0.09375 10.0833 0.09375Z" fill="white"/>
</mask>
<g mask="url(#mask4_471_24847)">
<path d="M0.0989532 0.09375H140.484V25.0156H0.0989532V0.09375Z" fill="#FAF1E9"/>
</g>
</g>
</g>
</g>
</g>
<mask id="mask5_471_24847" style="mask-type:luminance" maskUnits="userSpaceOnUse" x="0" y="0" width="141" height="26">
<path d="M0.125 0.09375H140.802V25.0521H0.125V0.09375Z" fill="white"/>
</mask>
<g mask="url(#mask5_471_24847)">
<mask id="mask6_471_24847" style="mask-type:luminance" maskUnits="userSpaceOnUse" x="0" y="0" width="141" height="26">
<path d="M10.1042 0.09375H130.516C133.161 0.09375 135.698 1.14583 137.573 3.01562C139.443 4.89062 140.495 7.42708 140.495 10.0729V15.026C140.495 17.6719 139.443 20.2135 137.573 22.0833C135.698 23.9531 133.161 25.0052 130.516 25.0052H10.1042C7.45833 25.0052 4.92188 23.9531 3.04688 22.0833C1.17708 20.2135 0.125 17.6719 0.125 15.026V10.0729C0.125 7.42708 1.17708 4.89062 3.04688 3.01562C4.92188 1.14583 7.45833 0.09375 10.1042 0.09375Z" fill="white"/>
</mask>
<g mask="url(#mask6_471_24847)">
<path d="M10.1042 0.09375H130.516C133.161 0.09375 135.698 1.14583 137.573 3.01562C139.443 4.89062 140.495 7.42708 140.495 10.0729V15.026C140.495 17.6719 139.443 20.2135 137.573 22.0833C135.698 23.9531 133.161 25.0052 130.516 25.0052H10.1042C7.45833 25.0052 4.92187 23.9531 3.04687 22.0833C1.17708 20.2135 0.125 17.6719 0.125 15.026V10.0729C0.125 7.42708 1.17708 4.89062 3.04687 3.01562C4.92187 1.14583 7.45833 0.09375 10.1042 0.09375Z" stroke="#9C6C69" stroke-width="0.998344"/>
</g>
</g>
<mask id="mask7_471_24847" style="mask-type:luminance" maskUnits="userSpaceOnUse" x="28" y="10" width="72" height="6">
<path d="M28.0521 10.0625H99.5157V15.0521H28.0521V10.0625Z" fill="white"/>
</mask>
<g mask="url(#mask7_471_24847)">
<mask id="mask8_471_24847" style="mask-type:luminance" maskUnits="userSpaceOnUse" x="28" y="10" width="72" height="6">
<path d="M30.5469 10.0625H97C98.3802 10.0625 99.4948 11.1771 99.4948 12.5573C99.4948 13.9375 98.3802 15.0521 97 15.0521H30.5469C29.1667 15.0521 28.0521 13.9375 28.0521 12.5573C28.0521 11.1771 29.1667 10.0625 30.5469 10.0625Z" fill="white"/>
</mask>
<g mask="url(#mask8_471_24847)">
<mask id="mask9_471_24847" style="mask-type:luminance" maskUnits="userSpaceOnUse" x="27" y="9" width="74" height="7">
<path d="M100.802 9.91675H27.4688V15.2501H100.802V9.91675Z" fill="white"/>
</mask>
<g mask="url(#mask9_471_24847)">
<mask id="mask10_471_24847" style="mask-type:luminance" maskUnits="userSpaceOnUse" x="28" y="10" width="72" height="6">
<path d="M28.0521 10.0625H99.5105V15.0521H28.0521V10.0625Z" fill="white"/>
</mask>
<g mask="url(#mask10_471_24847)">
<mask id="mask11_471_24847" style="mask-type:luminance" maskUnits="userSpaceOnUse" x="28" y="10" width="72" height="6">
<path d="M30.5469 10.0625H97C98.3802 10.0625 99.4948 11.1771 99.4948 12.5573C99.4948 13.9375 98.3802 15.0521 97 15.0521H30.5469C29.1667 15.0521 28.0521 13.9375 28.0521 12.5573C28.0521 11.1771 29.1667 10.0625 30.5469 10.0625Z" fill="white"/>
</mask>
<g mask="url(#mask11_471_24847)">
<path d="M28.0521 10.0625H99.4948V15.0521H28.0521V10.0625Z" fill="#EECCBF"/>
</g>
</g>
</g>
</g>
</g>
<mask id="mask12_471_24847" style="mask-type:luminance" maskUnits="userSpaceOnUse" x="28" y="10" width="23" height="6">
<path d="M28.0521 10.0625H50.0469V15.0521H28.0521V10.0625Z" fill="white"/>
</mask>
<g mask="url(#mask12_471_24847)">
<mask id="mask13_471_24847" style="mask-type:luminance" maskUnits="userSpaceOnUse" x="28" y="10" width="23" height="6">
<path d="M30.5469 10.0625H47.5313C48.9115 10.0625 50.0261 11.1771 50.0261 12.5573C50.0261 13.9375 48.9115 15.0521 47.5313 15.0521H30.5469C29.1667 15.0521 28.0521 13.9375 28.0521 12.5573C28.0521 11.1771 29.1667 10.0625 30.5469 10.0625Z" fill="white"/>
</mask>
<g mask="url(#mask13_471_24847)">
<mask id="mask14_471_24847" style="mask-type:luminance" maskUnits="userSpaceOnUse" x="27" y="9" width="24" height="7">
<path d="M50.1354 9.91675H27.4688V15.2501H50.1354V9.91675Z" fill="white"/>
</mask>
<g mask="url(#mask14_471_24847)">
<mask id="mask15_471_24847" style="mask-type:luminance" maskUnits="userSpaceOnUse" x="28" y="10" width="23" height="6">
<path d="M28.0521 10.0625H50.0469V15.0521H28.0521V10.0625Z" fill="white"/>
</mask>
<g mask="url(#mask15_471_24847)">
<mask id="mask16_471_24847" style="mask-type:luminance" maskUnits="userSpaceOnUse" x="28" y="10" width="23" height="6">
<path d="M30.5469 10.0625H47.5313C48.9115 10.0625 50.0261 11.1771 50.0261 12.5573C50.0261 13.9375 48.9115 15.0521 47.5313 15.0521H30.5469C29.1667 15.0521 28.0521 13.9375 28.0521 12.5573C28.0521 11.1771 29.1667 10.0625 30.5469 10.0625Z" fill="white"/>
</mask>
<g mask="url(#mask16_471_24847)">
<path d="M28.0521 10.0625H50.0261V15.0521H28.0521V10.0625Z" fill="#F6B717"/>
</g>
</g>
</g>
</g>
</g>
<mask id="mask17_471_24847" style="mask-type:luminance" maskUnits="userSpaceOnUse" x="107" y="4" width="25" height="17">
<path d="M131.734 4.95312H107.734V20.9531H131.734V4.95312Z" fill="white"/>
</mask>
<g mask="url(#mask17_471_24847)">
<path d="M114.34 16.3473C114.257 16.3473 114.137 16.3265 113.986 16.2848C113.845 16.2327 113.736 16.2015 113.652 16.2015C113.486 16.2015 113.236 16.2171 112.902 16.2432C112.569 16.2588 112.319 16.264 112.152 16.264C112.027 16.264 111.84 16.2848 111.59 16.3265C111.34 16.3525 111.152 16.3682 111.027 16.3682C110.986 16.3682 110.928 16.3577 110.861 16.3473C110.788 16.3369 110.741 16.3265 110.715 16.3265C110.475 16.3265 110.324 16.2171 110.257 15.9932C110.225 15.8838 110.215 15.6911 110.215 15.4098C110.215 14.6494 110.413 14.0348 110.819 13.5765C111.012 13.3577 111.527 12.9619 112.361 12.389C112.829 12.0713 113.142 11.8213 113.298 11.639C113.574 11.3213 113.715 10.9515 113.715 10.5348C113.715 10.3265 113.579 10.139 113.319 9.97233C113.079 9.83691 112.845 9.764 112.611 9.764C112.319 9.764 112.033 9.84733 111.757 10.014L111.048 10.5765C110.908 10.6911 110.798 10.7432 110.715 10.7432C110.382 10.7432 110.215 10.6077 110.215 10.3265C110.215 10.1755 110.277 10.0452 110.402 9.93066C110.777 9.57129 111.111 9.31608 111.402 9.15983C111.788 8.92546 112.194 8.80566 112.611 8.80566C113.137 8.80566 113.611 8.9515 114.027 9.24316C114.496 9.5765 114.736 9.99316 114.736 10.4932C114.736 10.8265 114.684 11.1338 114.59 11.4098C114.491 11.6911 114.345 11.9463 114.152 12.1807C113.902 12.4723 113.486 12.8005 112.902 13.1598C112.288 13.5505 111.887 13.8473 111.694 14.0557C111.329 14.4307 111.152 14.8838 111.152 15.4098L112.173 15.3265C112.866 15.2848 113.361 15.264 113.652 15.264C113.902 15.264 114.137 15.3057 114.361 15.389C114.652 15.5036 114.798 15.6598 114.798 15.8682C114.798 15.9932 114.757 16.1077 114.673 16.2015C114.59 16.3005 114.475 16.3473 114.34 16.3473Z" fill="#F6B717"/>
<path d="M118.277 16.6599C117.344 16.6599 116.662 16.3162 116.235 15.6182C116.178 15.5349 116.152 15.4464 116.152 15.3474C116.152 15.2224 116.198 15.1182 116.297 15.0349C116.391 14.9412 116.506 14.8891 116.631 14.8891C116.766 14.8891 116.902 14.962 117.027 15.0974C117.193 15.3057 117.323 15.4412 117.422 15.4932C117.631 15.6495 117.912 15.7224 118.277 15.7224C118.844 15.7224 119.318 15.5089 119.693 15.0766C120.037 14.6599 120.214 14.1599 120.214 13.5766C120.214 13.1078 120.136 12.7172 119.985 12.4099C119.787 12.0349 119.475 11.8474 119.047 11.8474C118.698 11.8474 118.412 11.8995 118.193 11.9932C118.011 12.0766 117.829 12.212 117.652 12.3891L117.131 12.9724C116.975 13.113 116.829 13.1807 116.693 13.1807C116.553 13.1807 116.433 13.1391 116.339 13.0557C116.256 12.962 116.214 12.8474 116.214 12.7224C116.214 12.6547 116.24 12.363 116.297 11.8474C116.407 10.8214 116.464 10.1391 116.464 9.80575C116.464 9.69637 116.428 9.57658 116.36 9.45158C116.303 9.31616 116.277 9.212 116.277 9.13908C116.277 8.93075 116.448 8.82658 116.797 8.82658C116.865 8.82658 116.964 8.837 117.089 8.84741C117.225 8.86304 117.329 8.86825 117.402 8.86825C117.579 8.86825 117.86 8.86304 118.235 8.84741C118.62 8.837 118.912 8.82658 119.11 8.82658C119.193 8.82658 119.323 8.837 119.506 8.84741C119.683 8.84741 119.818 8.84741 119.902 8.84741C119.969 8.84741 120.058 8.8422 120.172 8.82658C120.297 8.80054 120.386 8.78491 120.443 8.78491C120.568 8.78491 120.678 8.837 120.777 8.93075C120.87 9.01408 120.922 9.11825 120.922 9.24325C120.922 9.61825 120.532 9.80575 119.756 9.80575C119.657 9.80575 119.532 9.80575 119.381 9.80575C119.225 9.79533 119.136 9.78491 119.11 9.78491H118.277L117.443 9.82658C117.443 9.9672 117.381 10.5089 117.256 11.4516C117.714 11.0922 118.308 10.9099 119.047 10.9099C119.766 10.9099 120.318 11.1964 120.693 11.7641C121.011 12.238 121.172 12.8422 121.172 13.5766C121.172 14.4672 120.912 15.1964 120.402 15.7641C119.87 16.3578 119.162 16.6599 118.277 16.6599Z" fill="#F6B717"/>
<path d="M123.818 11.2432C123.359 11.2432 122.995 11.0869 122.734 10.764C122.495 10.4723 122.38 10.0973 122.38 9.639C122.38 9.32129 122.547 9.014 122.88 8.72233C123.198 8.44629 123.515 8.30566 123.838 8.30566C124.307 8.30566 124.682 8.46191 124.963 8.764C125.239 9.07129 125.38 9.46191 125.38 9.93066C125.38 10.3369 125.213 10.6598 124.88 10.9098C124.573 11.1338 124.219 11.2432 123.818 11.2432ZM127.693 9.15983C127.578 9.35775 127.453 9.61296 127.318 9.93066L126.963 10.7223L126.005 12.8057L124.901 15.1182C124.802 15.3682 124.635 15.7432 124.401 16.2432C124.302 16.4098 124.177 16.4932 124.026 16.4932C123.927 16.4932 123.828 16.4515 123.734 16.3682C123.651 16.3005 123.609 16.2119 123.609 16.0973C123.609 16.0452 123.62 15.988 123.651 15.9307C123.802 15.488 124.057 14.9098 124.422 14.2015C124.838 13.3577 125.109 12.7848 125.234 12.4932L126.568 9.55566C126.745 9.11296 126.906 8.81608 127.047 8.65983C127.14 8.55046 127.245 8.49316 127.359 8.49316C127.469 8.49316 127.568 8.53483 127.651 8.61816C127.745 8.7015 127.797 8.80046 127.797 8.90983C127.797 8.98275 127.76 9.06608 127.693 9.15983ZM127.838 16.4307C127.39 16.4307 127.015 16.3005 126.713 16.0348C126.406 15.7588 126.255 15.3994 126.255 14.9515C126.255 14.4827 126.39 14.0869 126.672 13.764C126.963 13.4202 127.344 13.2432 127.818 13.2432C128.26 13.2432 128.651 13.3682 128.984 13.6182C129.359 13.8994 129.547 14.2536 129.547 14.6807C129.547 15.1807 129.385 15.5973 129.068 15.9307C128.745 16.264 128.338 16.4307 127.838 16.4307ZM123.818 9.11816C123.661 9.11816 123.526 9.17025 123.401 9.264C123.26 9.37858 123.193 9.50358 123.193 9.639C123.193 9.889 123.239 10.0869 123.338 10.2223C123.448 10.3473 123.609 10.4098 123.818 10.4098C123.995 10.4098 124.156 10.3786 124.297 10.3057C124.463 10.2119 124.547 10.0869 124.547 9.93066C124.547 9.67025 124.484 9.46712 124.359 9.3265C124.245 9.19108 124.068 9.11816 123.818 9.11816ZM127.818 14.0765C127.578 14.0765 127.39 14.1702 127.255 14.3473C127.14 14.5036 127.088 14.7015 127.088 14.9515C127.088 15.1755 127.156 15.3421 127.297 15.4515C127.432 15.5661 127.651 15.6182 127.943 15.6182C128.203 15.6182 128.401 15.5452 128.526 15.389C128.651 15.238 128.713 15.0036 128.713 14.6807C128.713 14.5036 128.614 14.3473 128.422 14.2223C128.239 14.1286 128.036 14.0765 127.818 14.0765Z" fill="#F6B717"/>
</g>
<mask id="mask18_471_24847" style="mask-type:luminance" maskUnits="userSpaceOnUse" x="10" y="8" width="11" height="9">
<path d="M10.7084 8H20.6927V16.9844H10.7084V8Z" fill="white"/>
</mask>
<g mask="url(#mask18_471_24847)">
<path d="M13.25 8.00512C12.974 7.99992 12.7709 8.03637 12.5521 8.12492C11.9584 8.35929 11.5209 8.81762 11.1355 9.6145C10.8438 10.203 10.75 10.6041 10.7292 11.3385C10.7188 11.7655 10.724 11.8697 10.7709 12.1457C10.8021 12.3228 10.8646 12.5885 10.9167 12.7395C11.0157 13.0416 11.3021 13.6093 11.5313 13.9687C12.0053 14.703 12.7344 15.3645 13.6459 15.8957C13.7865 15.9791 13.9844 16.1041 14.0834 16.1666C14.1823 16.2343 14.448 16.3958 14.6771 16.526C14.9011 16.6562 15.1459 16.8072 15.2188 16.8645C15.2865 16.9166 15.4011 16.9895 15.474 17.026C15.5469 17.0624 15.6355 17.0937 15.6719 17.0937C15.7605 17.0937 15.9688 16.9843 16.4636 16.6718C17.6042 15.953 18.4375 15.3072 19.1719 14.5676C19.5938 14.1458 19.9948 13.578 20.2709 13.0364C20.4532 12.677 20.5261 12.4791 20.6511 12.0468C20.7917 11.552 20.8282 11.302 20.8125 10.8489C20.7813 10.0624 20.5886 9.54158 20.1459 9.07283C19.9115 8.82283 19.6511 8.66137 19.2969 8.54158C19.0625 8.45825 19.0417 8.45825 18.6667 8.45825C18.1823 8.46346 17.9011 8.52596 17.4844 8.73429C16.9688 8.9895 16.5157 9.40617 16.1875 9.91658L16.0469 10.1405L15.9636 9.95304C15.5938 9.07804 15.0105 8.47387 14.2448 8.18742C13.9323 8.07283 13.7292 8.03117 13.375 8.01033C13.3334 8.01033 13.2917 8.00512 13.25 8.00512Z" fill="#F6B717"/>
</g>
</svg>
