<svg width="141" height="26" viewBox="0 0 141 26" fill="none" xmlns="http://www.w3.org/2000/svg">
<mask id="mask0_471_24862" style="mask-type:luminance" maskUnits="userSpaceOnUse" x="0" y="0" width="141" height="26">
<path d="M0 0H140.583V25.0208H0V0Z" fill="white"/>
</mask>
<g mask="url(#mask0_471_24862)">
<mask id="mask1_471_24862" style="mask-type:luminance" maskUnits="userSpaceOnUse" x="0" y="0" width="141" height="26">
<path d="M10.0834 0.098877H130.547C133.193 0.098877 135.734 1.15096 137.604 3.02075C139.474 4.89575 140.526 7.43221 140.526 10.0833V15.0364C140.526 17.6874 139.474 20.2239 137.604 22.0989C135.734 23.9687 133.193 25.0208 130.547 25.0208H10.0834C7.43233 25.0208 4.89587 23.9687 3.02087 22.0989C1.15108 20.2239 0.098999 17.6874 0.098999 15.0364V10.0833C0.098999 7.43221 1.15108 4.89575 3.02087 3.02075C4.89587 1.15096 7.43233 0.098877 10.0834 0.098877Z" fill="white"/>
</mask>
<g mask="url(#mask1_471_24862)">
<mask id="mask2_471_24862" style="mask-type:luminance" maskUnits="userSpaceOnUse" x="-2" y="-1" width="144" height="28">
<path d="M141.646 -0.541748H-1.02075V26.1249H141.646V-0.541748Z" fill="white"/>
</mask>
<g mask="url(#mask2_471_24862)">
<mask id="mask3_471_24862" style="mask-type:luminance" maskUnits="userSpaceOnUse" x="0" y="0" width="141" height="26">
<path d="M6.10352e-05 0H140.583V25.0208H6.10352e-05V0Z" fill="white"/>
</mask>
<g mask="url(#mask3_471_24862)">
<mask id="mask4_471_24862" style="mask-type:luminance" maskUnits="userSpaceOnUse" x="0" y="0" width="141" height="26">
<path d="M10.0834 0.098877H130.547C133.193 0.098877 135.734 1.15096 137.604 3.02075C139.474 4.89575 140.526 7.43221 140.526 10.0833V15.0364C140.526 17.6874 139.474 20.2239 137.604 22.0989C135.734 23.9687 133.193 25.0208 130.547 25.0208H10.0834C7.43233 25.0208 4.89587 23.9687 3.02087 22.0989C1.15108 20.2239 0.098999 17.6874 0.098999 15.0364V10.0833C0.098999 7.43221 1.15108 4.89575 3.02087 3.02075C4.89587 1.15096 7.43233 0.098877 10.0834 0.098877Z" fill="white"/>
</mask>
<g mask="url(#mask4_471_24862)">
<path d="M0.098999 0.098877H140.484V25.0208H0.098999V0.098877Z" fill="#FAF1E9"/>
</g>
</g>
</g>
</g>
</g>
<mask id="mask5_471_24862" style="mask-type:luminance" maskUnits="userSpaceOnUse" x="0" y="0" width="141" height="26">
<path d="M0.125 0.0991211H140.865V25.0575H0.125V0.0991211Z" fill="white"/>
</mask>
<g mask="url(#mask5_471_24862)">
<mask id="mask6_471_24862" style="mask-type:luminance" maskUnits="userSpaceOnUse" x="0" y="0" width="141" height="26">
<path d="M10.1042 0.0991211H130.516C133.161 0.0991211 135.698 1.1512 137.573 3.021C139.443 4.89079 140.495 7.43245 140.495 10.0783V15.0314C140.495 17.6772 139.443 20.2189 137.573 22.0887C135.698 23.9585 133.161 25.0106 130.516 25.0106H10.1042C7.45833 25.0106 4.92188 23.9585 3.04688 22.0887C1.17708 20.2189 0.125 17.6772 0.125 15.0314V10.0783C0.125 7.43245 1.17708 4.89079 3.04688 3.021C4.92188 1.1512 7.45833 0.0991211 10.1042 0.0991211Z" fill="white"/>
</mask>
<g mask="url(#mask6_471_24862)">
<path d="M10.1042 0.0991211H130.516C133.161 0.0991211 135.698 1.1512 137.573 3.021C139.443 4.89079 140.495 7.43245 140.495 10.0783V15.0314C140.495 17.6772 139.443 20.2189 137.573 22.0887C135.698 23.9585 133.161 25.0106 130.516 25.0106H10.1042C7.45833 25.0106 4.92187 23.9585 3.04687 22.0887C1.17708 20.2189 0.125 17.6772 0.125 15.0314V10.0783C0.125 7.43245 1.17708 4.89079 3.04687 3.021C4.92187 1.1512 7.45833 0.0991211 10.1042 0.0991211Z" stroke="#9C6C69" stroke-width="0.998344"/>
</g>
</g>
<mask id="mask7_471_24862" style="mask-type:luminance" maskUnits="userSpaceOnUse" x="28" y="10" width="72" height="6">
<path d="M28.0521 10.0625H99.5157V15.0573H28.0521V10.0625Z" fill="white"/>
</mask>
<g mask="url(#mask7_471_24862)">
<mask id="mask8_471_24862" style="mask-type:luminance" maskUnits="userSpaceOnUse" x="28" y="10" width="72" height="6">
<path d="M30.5469 10.0625H97C98.3802 10.0625 99.4948 11.1823 99.4948 12.5625C99.4948 13.9375 98.3802 15.0573 97 15.0573H30.5469C29.1667 15.0573 28.0521 13.9375 28.0521 12.5625C28.0521 11.1823 29.1667 10.0625 30.5469 10.0625Z" fill="white"/>
</mask>
<g mask="url(#mask8_471_24862)">
<mask id="mask9_471_24862" style="mask-type:luminance" maskUnits="userSpaceOnUse" x="26" y="8" width="75" height="8">
<path d="M100.313 8.79175H26.9792V15.4584H100.313V8.79175Z" fill="white"/>
</mask>
<g mask="url(#mask9_471_24862)">
<mask id="mask10_471_24862" style="mask-type:luminance" maskUnits="userSpaceOnUse" x="28" y="10" width="72" height="6">
<path d="M28.0521 10.0625H99.5052V15.0573H28.0521V10.0625Z" fill="white"/>
</mask>
<g mask="url(#mask10_471_24862)">
<mask id="mask11_471_24862" style="mask-type:luminance" maskUnits="userSpaceOnUse" x="28" y="10" width="72" height="6">
<path d="M30.5469 10.0625H97C98.3802 10.0625 99.4948 11.1823 99.4948 12.5625C99.4948 13.9375 98.3802 15.0573 97 15.0573H30.5469C29.1667 15.0573 28.0521 13.9375 28.0521 12.5625C28.0521 11.1823 29.1667 10.0625 30.5469 10.0625Z" fill="white"/>
</mask>
<g mask="url(#mask11_471_24862)">
<path d="M28.0521 10.0625H99.4948V15.0573H28.0521V10.0625Z" fill="#EECCBF"/>
</g>
</g>
</g>
</g>
</g>
<mask id="mask12_471_24862" style="mask-type:luminance" maskUnits="userSpaceOnUse" x="28" y="10" width="36" height="6">
<path d="M28.0521 10.0625H63.7917V15.0573H28.0521V10.0625Z" fill="white"/>
</mask>
<g mask="url(#mask12_471_24862)">
<mask id="mask13_471_24862" style="mask-type:luminance" maskUnits="userSpaceOnUse" x="28" y="10" width="36" height="6">
<path d="M30.5469 10.0625H61.2761C62.6563 10.0625 63.7761 11.1823 63.7761 12.5625C63.7761 13.9375 62.6563 15.0573 61.2761 15.0573H30.5469C29.1667 15.0573 28.0521 13.9375 28.0521 12.5625C28.0521 11.1823 29.1667 10.0625 30.5469 10.0625Z" fill="white"/>
</mask>
<g mask="url(#mask13_471_24862)">
<mask id="mask14_471_24862" style="mask-type:luminance" maskUnits="userSpaceOnUse" x="26" y="8" width="39" height="8">
<path d="M64.3126 8.79175H26.9792V15.4584H64.3126V8.79175Z" fill="white"/>
</mask>
<g mask="url(#mask14_471_24862)">
<mask id="mask15_471_24862" style="mask-type:luminance" maskUnits="userSpaceOnUse" x="28" y="10" width="36" height="6">
<path d="M28.0521 10.0625H63.7917V15.0573H28.0521V10.0625Z" fill="white"/>
</mask>
<g mask="url(#mask15_471_24862)">
<mask id="mask16_471_24862" style="mask-type:luminance" maskUnits="userSpaceOnUse" x="28" y="10" width="36" height="6">
<path d="M30.5469 10.0625H61.2761C62.6563 10.0625 63.7761 11.1823 63.7761 12.5625C63.7761 13.9375 62.6563 15.0573 61.2761 15.0573H30.5469C29.1667 15.0573 28.0521 13.9375 28.0521 12.5625C28.0521 11.1823 29.1667 10.0625 30.5469 10.0625Z" fill="white"/>
</mask>
<g mask="url(#mask16_471_24862)">
<path d="M28.0521 10.0625H63.7761V15.0573H28.0521V10.0625Z" fill="#F6B717"/>
</g>
</g>
</g>
</g>
</g>
<mask id="mask17_471_24862" style="mask-type:luminance" maskUnits="userSpaceOnUse" x="10" y="6" width="5" height="5">
<path d="M10.9792 6.82812H14.9792V10.125H10.9792V6.82812Z" fill="white"/>
</mask>
<g mask="url(#mask17_471_24862)">
<path d="M13.2292 8.97917C12.6355 8.97917 12.1563 8.49479 12.1563 7.90625C12.1563 7.3125 12.6355 6.82812 13.2292 6.82812C13.8178 6.82812 14.2969 7.3125 14.2969 7.90625C14.2969 8.49479 13.8178 8.97917 13.2292 8.97917Z" fill="#F6B717"/>
</g>
<path d="M16.5209 12.0991C16.5209 12.5678 16.1459 12.9428 15.6772 12.9428C15.2136 12.9428 14.8386 12.5678 14.8386 12.0991C14.8386 11.6355 15.2136 11.2606 15.6772 11.2606C16.1459 11.2553 16.5209 11.6355 16.5209 12.0991Z" fill="#F6B717"/>
<mask id="mask18_471_24862" style="mask-type:luminance" maskUnits="userSpaceOnUse" x="16" y="7" width="4" height="4">
<path d="M16.3125 7.4585H19.8594V10.1252H16.3125V7.4585Z" fill="white"/>
</mask>
<g mask="url(#mask18_471_24862)">
<path d="M18.0156 9.83341C17.4792 9.83341 17.0417 9.39592 17.0417 8.85946C17.0417 8.323 17.4792 7.8855 18.0156 7.8855C18.5521 7.8855 18.9844 8.323 18.9844 8.85946C18.9844 9.39592 18.5521 9.83341 18.0156 9.83341Z" fill="#F6B717"/>
</g>
<mask id="mask19_471_24862" style="mask-type:luminance" maskUnits="userSpaceOnUse" x="14" y="10" width="6" height="9">
<path d="M14.9792 10.125H19.8595V18.125H14.9792V10.125Z" fill="white"/>
</mask>
<g mask="url(#mask19_471_24862)">
<path d="M17.4375 16.3437V14.3124C17.4375 13.677 17.0052 13.1405 16.4167 12.9895C16.6719 12.776 16.8334 12.4583 16.8334 12.0989C16.8334 11.6145 16.5261 11.1978 16.099 11.026C16.3959 10.4999 16.9584 10.1458 17.599 10.1458H18.4271C19.375 10.1458 20.1459 10.9218 20.1459 11.8749V14.9843C20.1459 15.1093 20.0677 15.2239 19.9532 15.2655L19.4792 13.8176V11.9062C19.4792 11.8176 19.4115 11.7499 19.323 11.7499C19.2344 11.7499 19.1667 11.8176 19.1667 11.9062V13.8385C19.1667 13.8541 19.1667 13.8749 19.1719 13.8853L20.0782 16.6614L20.1407 16.8489C20.1615 16.9114 20.1459 16.9739 20.1094 17.0208C20.0782 17.0728 20.0157 17.0989 19.9532 17.0989H16.7969V16.828H16.9636C17.224 16.8228 17.4375 16.6093 17.4375 16.3437Z" fill="#F6B717"/>
</g>
<mask id="mask20_471_24862" style="mask-type:luminance" maskUnits="userSpaceOnUse" x="17" y="16" width="3" height="3">
<path d="M17.6459 16.7917H19.8594V18.8074H17.6459V16.7917Z" fill="white"/>
</mask>
<g mask="url(#mask20_471_24862)">
<path d="M19.2292 18.3231C19.2292 18.62 18.9948 18.8543 18.6979 18.8543C18.4063 18.8543 18.1719 18.6147 18.1719 18.3231V17.4116H19.2292V18.3231Z" fill="#F6B717"/>
</g>
<mask id="mask21_471_24862" style="mask-type:luminance" maskUnits="userSpaceOnUse" x="16" y="16" width="3" height="3">
<path d="M16.3125 16.7917H18.9792V18.8074H16.3125V16.7917Z" fill="white"/>
</mask>
<g mask="url(#mask21_471_24862)">
<path d="M17.8594 18.3231C17.8594 18.62 17.625 18.8543 17.3282 18.8543C17.0365 18.8543 16.8021 18.6147 16.8021 18.3231V17.4116H17.8594V18.3231Z" fill="#F6B717"/>
</g>
<mask id="mask22_471_24862" style="mask-type:luminance" maskUnits="userSpaceOnUse" x="13" y="12" width="5" height="7">
<path d="M13.6459 12.7917H17.6459V18.8074H13.6459V12.7917Z" fill="white"/>
</mask>
<g mask="url(#mask22_471_24862)">
<path d="M14.2344 16.3439V14.3127C14.2344 13.7293 14.7031 13.2554 15.2865 13.2554H16.0781C16.6562 13.2554 17.1302 13.7293 17.1302 14.3127V16.3439C17.1302 16.4377 17.0573 16.5106 16.9635 16.5106H16.6406C16.5573 16.5106 16.4844 16.5835 16.4844 16.6668V18.5314C16.4844 18.7085 16.3385 18.8543 16.1615 18.8543C15.9844 18.8543 15.8385 18.7085 15.8385 18.5314V16.6147C15.8385 16.521 15.7552 16.4481 15.6667 16.4585C15.5833 16.4637 15.5208 16.5366 15.5208 16.62V18.5314C15.5208 18.7137 15.3802 18.8543 15.1979 18.8543C15.0208 18.8543 14.875 18.7137 14.875 18.5314V16.672C14.875 16.5835 14.8021 16.5158 14.7188 16.5158H14.3958C14.3073 16.5106 14.2344 16.4377 14.2344 16.3439Z" fill="#F6B717"/>
</g>
<mask id="mask23_471_24862" style="mask-type:luminance" maskUnits="userSpaceOnUse" x="10" y="8" width="7" height="11">
<path d="M10.875 8.79175H16.3125V18.8074H10.875V8.79175Z" fill="white"/>
</mask>
<g mask="url(#mask23_471_24862)">
<path d="M12.776 9.29175H13.6771C14.6406 9.29175 15.4323 10.0209 15.5521 10.9532C14.974 11.0157 14.526 11.5053 14.526 12.099C14.526 12.4532 14.6875 12.7709 14.9375 12.9845C14.3542 13.1407 13.9167 13.672 13.9167 14.3074V16.3438C13.9167 16.6095 14.1302 16.823 14.3958 16.823H14.5625V18.2605C14.5625 18.5886 14.2969 18.849 13.974 18.849C13.6458 18.849 13.3854 18.5886 13.3854 18.2605V14.4897C13.3854 14.4011 13.3021 14.3282 13.2135 14.3334C13.1302 14.3438 13.0729 14.4167 13.0729 14.5001V18.2605C13.0729 18.5886 12.8073 18.8542 12.4792 18.8542C12.1562 18.8542 11.8906 18.5886 11.8906 18.2605V11.6667C11.8906 11.5782 11.8125 11.5053 11.7188 11.5105C11.6406 11.5209 11.5781 11.5938 11.5781 11.6772V14.5626C11.5781 14.7449 11.4375 14.9063 11.2552 14.9167C11.0573 14.9272 10.8906 14.7709 10.8906 14.573V11.1824C10.8906 10.1407 11.7344 9.29175 12.776 9.29175Z" fill="#F6B717"/>
</g>
<mask id="mask24_471_24862" style="mask-type:luminance" maskUnits="userSpaceOnUse" x="105" y="4" width="24" height="17">
<path d="M128.313 4.79175H105.646V20.7917H128.313V4.79175Z" fill="white"/>
</mask>
<g mask="url(#mask24_471_24862)">
<path d="M109.404 16.7998C108.472 16.7998 107.79 16.4561 107.363 15.7581C107.305 15.6748 107.279 15.5863 107.279 15.4873C107.279 15.3623 107.326 15.2581 107.425 15.1748C107.519 15.0811 107.633 15.029 107.758 15.029C107.894 15.029 108.029 15.1019 108.154 15.2373C108.321 15.4456 108.451 15.5811 108.55 15.6331C108.758 15.7894 109.04 15.8623 109.404 15.8623C109.972 15.8623 110.446 15.6488 110.821 15.2165C111.165 14.7998 111.342 14.2998 111.342 13.7165C111.342 13.2477 111.264 12.8571 111.113 12.5498C110.915 12.1748 110.602 11.9873 110.175 11.9873C109.826 11.9873 109.54 12.0394 109.321 12.1331C109.139 12.2165 108.956 12.3519 108.779 12.529L108.258 13.1123C108.102 13.2529 107.956 13.3206 107.821 13.3206C107.68 13.3206 107.56 13.279 107.467 13.1956C107.383 13.1019 107.342 12.9873 107.342 12.8623C107.342 12.7946 107.368 12.5029 107.425 11.9873C107.534 10.9613 107.592 10.279 107.592 9.94564C107.592 9.83626 107.555 9.71647 107.488 9.59147C107.43 9.45605 107.404 9.35189 107.404 9.27897C107.404 9.07064 107.576 8.96647 107.925 8.96647C107.993 8.96647 108.092 8.97689 108.217 8.9873C108.352 9.00293 108.456 9.00814 108.529 9.00814C108.706 9.00814 108.988 9.00293 109.363 8.9873C109.748 8.97689 110.04 8.96647 110.238 8.96647C110.321 8.96647 110.451 8.97689 110.633 8.9873C110.81 8.9873 110.946 8.9873 111.029 8.9873C111.097 8.9873 111.185 8.9821 111.3 8.96647C111.425 8.94043 111.514 8.9248 111.571 8.9248C111.696 8.9248 111.805 8.97689 111.904 9.07064C111.998 9.15397 112.05 9.25814 112.05 9.38314C112.05 9.75814 111.659 9.94564 110.883 9.94564C110.784 9.94564 110.659 9.94564 110.508 9.94564C110.352 9.93522 110.264 9.9248 110.238 9.9248H109.404L108.571 9.96647C108.571 10.1071 108.508 10.6488 108.383 11.5915C108.842 11.2321 109.435 11.0498 110.175 11.0498C110.894 11.0498 111.446 11.3363 111.821 11.904C112.139 12.3779 112.3 12.9821 112.3 13.7165C112.3 14.6071 112.04 15.3363 111.529 15.904C110.998 16.4977 110.29 16.7998 109.404 16.7998Z" fill="#F6B717"/>
<path d="M115.778 16.6748C114.778 16.6748 114.049 16.2269 113.591 15.3206C113.242 14.6123 113.07 13.7061 113.07 12.5915C113.07 11.6331 113.299 10.8102 113.758 10.1123C114.284 9.27897 115.008 8.8623 115.924 8.8623C116.784 8.8623 117.455 9.2321 117.945 9.96647C118.346 10.5915 118.549 11.3623 118.549 12.279C118.549 13.7529 118.32 14.8571 117.862 15.5915C117.403 16.3154 116.705 16.6748 115.778 16.6748ZM115.924 9.7998C115.31 9.7998 114.825 10.1123 114.466 10.7373C114.174 11.2529 114.028 11.8415 114.028 12.5081C114.028 13.5811 114.174 14.3831 114.466 14.9248C114.758 15.4665 115.195 15.7373 115.778 15.7373C116.471 15.7373 116.966 15.3415 117.258 14.5498C117.466 13.9977 117.57 13.2998 117.57 12.4665C117.57 11.5811 117.429 10.9144 117.153 10.4665C116.888 10.0238 116.476 9.7998 115.924 9.7998Z" fill="#F6B717"/>
<path d="M121.069 11.3831C120.611 11.3831 120.246 11.2268 119.986 10.9039C119.746 10.6122 119.632 10.2372 119.632 9.77889C119.632 9.46118 119.798 9.15389 120.132 8.86222C120.449 8.58618 120.767 8.44556 121.09 8.44556C121.559 8.44556 121.934 8.60181 122.215 8.90389C122.491 9.21118 122.632 9.60181 122.632 10.0706C122.632 10.4768 122.465 10.7997 122.132 11.0497C121.824 11.2737 121.47 11.3831 121.069 11.3831ZM124.944 9.29972C124.83 9.49764 124.705 9.75285 124.569 10.0706L124.215 10.8622L123.257 12.9456L122.153 15.2581C122.054 15.5081 121.887 15.8831 121.653 16.3831C121.554 16.5497 121.429 16.6331 121.278 16.6331C121.179 16.6331 121.08 16.5914 120.986 16.5081C120.903 16.4403 120.861 16.3518 120.861 16.2372C120.861 16.1851 120.871 16.1278 120.903 16.0706C121.054 15.6278 121.309 15.0497 121.673 14.3414C122.09 13.4976 122.361 12.9247 122.486 12.6331L123.819 9.69556C123.996 9.25285 124.158 8.95597 124.298 8.79972C124.392 8.69035 124.496 8.63306 124.611 8.63306C124.72 8.63306 124.819 8.67472 124.903 8.75806C124.996 8.84139 125.048 8.94035 125.048 9.04972C125.048 9.12264 125.012 9.20597 124.944 9.29972ZM125.09 16.5706C124.642 16.5706 124.267 16.4403 123.965 16.1747C123.658 15.8987 123.507 15.5393 123.507 15.0914C123.507 14.6226 123.642 14.2268 123.923 13.9039C124.215 13.5601 124.595 13.3831 125.069 13.3831C125.512 13.3831 125.903 13.5081 126.236 13.7581C126.611 14.0393 126.798 14.3935 126.798 14.8206C126.798 15.3206 126.637 15.7372 126.319 16.0706C125.996 16.4039 125.59 16.5706 125.09 16.5706ZM121.069 9.25806C120.913 9.25806 120.778 9.31014 120.653 9.40389C120.512 9.51847 120.444 9.64347 120.444 9.77889C120.444 10.0289 120.491 10.2268 120.59 10.3622C120.699 10.4872 120.861 10.5497 121.069 10.5497C121.246 10.5497 121.408 10.5185 121.548 10.4456C121.715 10.3518 121.798 10.2268 121.798 10.0706C121.798 9.81014 121.736 9.60702 121.611 9.46639C121.496 9.33097 121.319 9.25806 121.069 9.25806ZM125.069 14.2164C124.83 14.2164 124.642 14.3101 124.507 14.4872C124.392 14.6435 124.34 14.8414 124.34 15.0914C124.34 15.3153 124.408 15.482 124.548 15.5914C124.684 15.706 124.903 15.7581 125.194 15.7581C125.455 15.7581 125.653 15.6851 125.778 15.5289C125.903 15.3778 125.965 15.1435 125.965 14.8206C125.965 14.6435 125.866 14.4872 125.673 14.3622C125.491 14.2685 125.288 14.2164 125.069 14.2164Z" fill="#F6B717"/>
</g>
</svg>
