<svg width="141" height="26" viewBox="0 0 141 26" fill="none" xmlns="http://www.w3.org/2000/svg">
<mask id="mask0_471_48845" style="mask-type:luminance" maskUnits="userSpaceOnUse" x="0" y="0" width="141" height="26">
<path d="M0 0H140.583V25.0208H0V0Z" fill="white"/>
</mask>
<g mask="url(#mask0_471_48845)">
<mask id="mask1_471_48845" style="mask-type:luminance" maskUnits="userSpaceOnUse" x="0" y="0" width="141" height="26">
<path d="M10.0833 0.098877H130.547C133.193 0.098877 135.734 1.15096 137.604 3.02075C139.479 4.89575 140.526 7.43221 140.526 10.078V15.0364C140.526 17.6822 139.479 20.2239 137.604 22.0937C135.734 23.9687 133.193 25.0208 130.547 25.0208H10.0833C7.43229 25.0208 4.89583 23.9687 3.02083 22.0937C1.15104 20.2239 0.0989532 17.6822 0.0989532 15.0364V10.078C0.0989532 7.43221 1.15104 4.89575 3.02083 3.02075C4.89583 1.15096 7.43229 0.098877 10.0833 0.098877Z" fill="white"/>
</mask>
<g mask="url(#mask1_471_48845)">
<mask id="mask2_471_48845" style="mask-type:luminance" maskUnits="userSpaceOnUse" x="-1" y="-1" width="142" height="27">
<path d="M140.802 -0.0366211H-0.53125V25.2967H140.802V-0.0366211Z" fill="white"/>
</mask>
<g mask="url(#mask2_471_48845)">
<mask id="mask3_471_48845" style="mask-type:luminance" maskUnits="userSpaceOnUse" x="0" y="-1" width="141" height="27">
<path d="M0 -0.000244141H140.583V25.0206H0V-0.000244141Z" fill="white"/>
</mask>
<g mask="url(#mask3_471_48845)">
<mask id="mask4_471_48845" style="mask-type:luminance" maskUnits="userSpaceOnUse" x="0" y="0" width="141" height="26">
<path d="M10.0833 0.0986328H130.547C133.193 0.0986328 135.734 1.15072 137.604 3.02051C139.479 4.89551 140.526 7.43197 140.526 10.0778V15.0361C140.526 17.682 139.479 20.2236 137.604 22.0934C135.734 23.9684 133.193 25.0205 130.547 25.0205H10.0833C7.43229 25.0205 4.89583 23.9684 3.02083 22.0934C1.15104 20.2236 0.0989532 17.682 0.0989532 15.0361V10.0778C0.0989532 7.43197 1.15104 4.89551 3.02083 3.02051C4.89583 1.15072 7.43229 0.0986328 10.0833 0.0986328Z" fill="white"/>
</mask>
<g mask="url(#mask4_471_48845)">
<path d="M0.0989532 0.0986328H140.484V25.0205H0.0989532V0.0986328Z" fill="#FAF1E9"/>
</g>
</g>
</g>
</g>
</g>
<mask id="mask5_471_48845" style="mask-type:luminance" maskUnits="userSpaceOnUse" x="0" y="0" width="141" height="26">
<path d="M0.125 0.0991211H140.802V25.0575H0.125V0.0991211Z" fill="white"/>
</mask>
<g mask="url(#mask5_471_48845)">
<mask id="mask6_471_48845" style="mask-type:luminance" maskUnits="userSpaceOnUse" x="0" y="0" width="141" height="26">
<path d="M10.1042 0.0991211H130.516C133.161 0.0991211 135.698 1.146 137.573 3.021C139.443 4.89079 140.495 7.42725 140.495 10.0783V15.0314C140.495 17.6772 139.443 20.2137 137.573 22.0887C135.698 23.9585 133.161 25.0106 130.516 25.0106H10.1042C7.45833 25.0106 4.92188 23.9585 3.04688 22.0887C1.17708 20.2137 0.125 17.6772 0.125 15.0314V10.0783C0.125 7.42725 1.17708 4.89079 3.04688 3.021C4.92188 1.146 7.45833 0.0991211 10.1042 0.0991211Z" fill="white"/>
</mask>
<g mask="url(#mask6_471_48845)">
<path d="M10.1042 0.0991211H130.516C133.161 0.0991211 135.698 1.146 137.573 3.021C139.443 4.89079 140.495 7.42724 140.495 10.0783V15.0314C140.495 17.6772 139.443 20.2137 137.573 22.0887C135.698 23.9585 133.161 25.0106 130.516 25.0106H10.1042C7.45833 25.0106 4.92187 23.9585 3.04687 22.0887C1.17708 20.2137 0.125 17.6772 0.125 15.0314V10.0783C0.125 7.42724 1.17708 4.89079 3.04687 3.021C4.92187 1.146 7.45833 0.0991211 10.1042 0.0991211Z" stroke="#9C6C69" stroke-width="0.998344"/>
</g>
</g>
<mask id="mask7_471_48845" style="mask-type:luminance" maskUnits="userSpaceOnUse" x="28" y="10" width="72" height="6">
<path d="M28.0521 10.0625H99.5156V15.0521H28.0521V10.0625Z" fill="white"/>
</mask>
<g mask="url(#mask7_471_48845)">
<mask id="mask8_471_48845" style="mask-type:luminance" maskUnits="userSpaceOnUse" x="28" y="10" width="72" height="6">
<path d="M30.5469 10.0625H97C98.3802 10.0625 99.4948 11.1823 99.4948 12.5573C99.4948 13.9375 98.3802 15.0521 97 15.0521H30.5469C29.1667 15.0521 28.0521 13.9375 28.0521 12.5573C28.0521 11.1823 29.1667 10.0625 30.5469 10.0625Z" fill="white"/>
</mask>
<g mask="url(#mask8_471_48845)">
<mask id="mask9_471_48845" style="mask-type:luminance" maskUnits="userSpaceOnUse" x="27" y="9" width="74" height="7">
<path d="M100.802 9.29688H27.4688V15.9635H100.802V9.29688Z" fill="white"/>
</mask>
<g mask="url(#mask9_471_48845)">
<mask id="mask10_471_48845" style="mask-type:luminance" maskUnits="userSpaceOnUse" x="28" y="10" width="72" height="6">
<path d="M28.0521 10.0625H99.5104V15.0521H28.0521V10.0625Z" fill="white"/>
</mask>
<g mask="url(#mask10_471_48845)">
<mask id="mask11_471_48845" style="mask-type:luminance" maskUnits="userSpaceOnUse" x="28" y="10" width="72" height="6">
<path d="M30.5469 10.0625H97C98.3802 10.0625 99.4948 11.1823 99.4948 12.5573C99.4948 13.9375 98.3802 15.0521 97 15.0521H30.5469C29.1667 15.0521 28.0521 13.9375 28.0521 12.5573C28.0521 11.1823 29.1667 10.0625 30.5469 10.0625Z" fill="white"/>
</mask>
<g mask="url(#mask11_471_48845)">
<path d="M28.0521 10.0625H99.4948V15.0521H28.0521V10.0625Z" fill="#EECCBF"/>
</g>
</g>
</g>
</g>
</g>
<mask id="mask12_471_48845" style="mask-type:luminance" maskUnits="userSpaceOnUse" x="28" y="10" width="6" height="6">
<path d="M28.0521 10.0625H33.0417V15.0521H28.0521V10.0625Z" fill="white"/>
</mask>
<g mask="url(#mask12_471_48845)">
<mask id="mask13_471_48845" style="mask-type:luminance" maskUnits="userSpaceOnUse" x="28" y="10" width="6" height="6">
<path d="M30.5469 10.0625C31.9271 10.0625 33.0417 11.1823 33.0417 12.5573C33.0417 13.9375 31.9271 15.0521 30.5469 15.0521C29.1667 15.0521 28.0521 13.9375 28.0521 12.5573C28.0521 11.1823 29.1667 10.0625 30.5469 10.0625Z" fill="white"/>
</mask>
<g mask="url(#mask13_471_48845)">
<mask id="mask14_471_48845" style="mask-type:luminance" maskUnits="userSpaceOnUse" x="27" y="9" width="8" height="7">
<path d="M34.1354 9.29688H27.4688V15.9635H34.1354V9.29688Z" fill="white"/>
</mask>
<g mask="url(#mask14_471_48845)">
<mask id="mask15_471_48845" style="mask-type:luminance" maskUnits="userSpaceOnUse" x="28" y="10" width="6" height="6">
<path d="M28.0521 10.0625H33.0417V15.0521H28.0521V10.0625Z" fill="white"/>
</mask>
<g mask="url(#mask15_471_48845)">
<mask id="mask16_471_48845" style="mask-type:luminance" maskUnits="userSpaceOnUse" x="28" y="10" width="6" height="6">
<path d="M30.5469 10.0625C31.9271 10.0625 33.0417 11.1823 33.0417 12.5573C33.0417 13.9375 31.9271 15.0521 30.5469 15.0521C29.1667 15.0521 28.0521 13.9375 28.0521 12.5573C28.0521 11.1823 29.1667 10.0625 30.5469 10.0625Z" fill="white"/>
</mask>
<g mask="url(#mask16_471_48845)">
<path d="M28.0521 10.0625H33.0417V15.0521H28.0521V10.0625Z" fill="#DB2B2C"/>
</g>
</g>
</g>
</g>
</g>
<mask id="mask17_471_48845" style="mask-type:luminance" maskUnits="userSpaceOnUse" x="106" y="3" width="27" height="16">
<path d="M132.802 3.96362H106.135V18.6303H132.802V3.96362Z" fill="white"/>
</mask>
<g mask="url(#mask17_471_48845)">
<path d="M110.38 12.3128C109.932 12.3701 109.14 12.3962 108.005 12.3962C107.723 12.3962 107.588 12.266 107.588 12.0003C107.588 11.7503 107.723 11.6253 108.005 11.6253C108.255 11.6253 108.635 11.6149 109.151 11.5837C109.677 11.5576 110.067 11.542 110.317 11.542C110.609 11.542 110.755 11.6774 110.755 11.9378C110.755 12.1618 110.63 12.2868 110.38 12.3128Z" fill="#DB2B2C"/>
<path d="M113.976 14.9587C113.043 14.9587 112.361 14.615 111.934 13.9171C111.877 13.8337 111.851 13.7452 111.851 13.6462C111.851 13.5212 111.897 13.4171 111.996 13.3337C112.09 13.24 112.205 13.1879 112.33 13.1879C112.465 13.1879 112.601 13.2608 112.726 13.3962C112.892 13.6046 113.022 13.74 113.121 13.7921C113.33 13.9483 113.611 14.0212 113.976 14.0212C114.543 14.0212 115.017 13.8077 115.392 13.3754C115.736 12.9587 115.913 12.4587 115.913 11.8754C115.913 11.4067 115.835 11.016 115.684 10.7087C115.486 10.3337 115.173 10.1462 114.746 10.1462C114.397 10.1462 114.111 10.1983 113.892 10.2921C113.71 10.3754 113.528 10.5108 113.351 10.6879L112.83 11.2712C112.673 11.4119 112.528 11.4796 112.392 11.4796C112.252 11.4796 112.132 11.4379 112.038 11.3546C111.955 11.2608 111.913 11.1462 111.913 11.0212C111.913 10.9535 111.939 10.6619 111.996 10.1462C112.106 9.1202 112.163 8.43791 112.163 8.10457C112.163 7.9952 112.127 7.87541 112.059 7.75041C112.002 7.61499 111.976 7.51082 111.976 7.43791C111.976 7.22957 112.147 7.12541 112.496 7.12541C112.564 7.12541 112.663 7.13582 112.788 7.14624C112.923 7.16187 113.028 7.16707 113.101 7.16707C113.278 7.16707 113.559 7.16187 113.934 7.14624C114.319 7.13582 114.611 7.12541 114.809 7.12541C114.892 7.12541 115.022 7.13582 115.205 7.14624C115.382 7.14624 115.517 7.14624 115.601 7.14624C115.668 7.14624 115.757 7.14103 115.871 7.12541C115.996 7.09937 116.085 7.08374 116.142 7.08374C116.267 7.08374 116.377 7.13582 116.476 7.22957C116.569 7.31291 116.621 7.41707 116.621 7.54207C116.621 7.91707 116.231 8.10457 115.455 8.10457C115.356 8.10457 115.231 8.10457 115.08 8.10457C114.923 8.09416 114.835 8.08374 114.809 8.08374H113.976L113.142 8.12541C113.142 8.26603 113.08 8.8077 112.955 9.75041C113.413 9.39103 114.007 9.20874 114.746 9.20874C115.465 9.20874 116.017 9.4952 116.392 10.0629C116.71 10.5369 116.871 11.141 116.871 11.8754C116.871 12.766 116.611 13.4952 116.101 14.0629C115.569 14.6567 114.861 14.9587 113.976 14.9587Z" fill="#DB2B2C"/>
<path d="M120.35 14.8337C119.35 14.8337 118.621 14.3858 118.162 13.4796C117.813 12.7712 117.641 11.865 117.641 10.7504C117.641 9.79207 117.871 8.96916 118.329 8.27124C118.855 7.43791 119.579 7.02124 120.496 7.02124C121.355 7.02124 122.027 7.39103 122.516 8.12541C122.917 8.75041 123.121 9.52124 123.121 10.4379C123.121 11.9119 122.891 13.016 122.433 13.7504C121.975 14.4744 121.277 14.8337 120.35 14.8337ZM120.496 7.95874C119.881 7.95874 119.397 8.27124 119.037 8.89624C118.746 9.41187 118.6 10.0004 118.6 10.6671C118.6 11.74 118.746 12.5421 119.037 13.0837C119.329 13.6254 119.766 13.8962 120.35 13.8962C121.042 13.8962 121.537 13.5004 121.829 12.7087C122.037 12.1567 122.141 11.4587 122.141 10.6254C122.141 9.73999 122.001 9.07332 121.725 8.62541C121.459 8.1827 121.048 7.95874 120.496 7.95874Z" fill="#DB2B2C"/>
<path d="M125.641 9.54199C125.182 9.54199 124.818 9.38574 124.557 9.06283C124.318 8.77116 124.203 8.39616 124.203 7.93783C124.203 7.62012 124.37 7.31283 124.703 7.02116C125.021 6.74512 125.339 6.60449 125.661 6.60449C126.13 6.60449 126.505 6.76074 126.786 7.06283C127.062 7.37012 127.203 7.76074 127.203 8.22949C127.203 8.63574 127.036 8.95866 126.703 9.20866C126.396 9.43262 126.042 9.54199 125.641 9.54199ZM129.516 7.45866C129.401 7.65657 129.276 7.91178 129.141 8.22949L128.786 9.02116L127.828 11.1045L126.724 13.417C126.625 13.667 126.458 14.042 126.224 14.542C126.125 14.7087 126 14.792 125.849 14.792C125.75 14.792 125.651 14.7503 125.557 14.667C125.474 14.5993 125.432 14.5107 125.432 14.3962C125.432 14.3441 125.443 14.2868 125.474 14.2295C125.625 13.7868 125.88 13.2087 126.245 12.5003C126.661 11.6566 126.932 11.0837 127.057 10.792L128.391 7.85449C128.568 7.41178 128.729 7.11491 128.87 6.95866C128.964 6.84928 129.068 6.79199 129.182 6.79199C129.292 6.79199 129.391 6.83366 129.474 6.91699C129.568 7.00033 129.62 7.09928 129.62 7.20866C129.62 7.28157 129.583 7.36491 129.516 7.45866ZM129.661 14.7295C129.214 14.7295 128.839 14.5993 128.536 14.3337C128.229 14.0576 128.078 13.6982 128.078 13.2503C128.078 12.7816 128.214 12.3857 128.495 12.0628C128.786 11.7191 129.167 11.542 129.641 11.542C130.083 11.542 130.474 11.667 130.807 11.917C131.182 12.1982 131.37 12.5524 131.37 12.9795C131.37 13.4795 131.208 13.8962 130.891 14.2295C130.568 14.5628 130.161 14.7295 129.661 14.7295ZM125.641 7.41699C125.484 7.41699 125.349 7.46908 125.224 7.56283C125.083 7.67741 125.016 7.80241 125.016 7.93783C125.016 8.18783 125.062 8.38574 125.161 8.52116C125.271 8.64616 125.432 8.70866 125.641 8.70866C125.818 8.70866 125.979 8.67741 126.12 8.60449C126.286 8.51074 126.37 8.38574 126.37 8.22949C126.37 7.96908 126.307 7.76595 126.182 7.62533C126.068 7.48991 125.891 7.41699 125.641 7.41699ZM129.641 12.3753C129.401 12.3753 129.214 12.4691 129.078 12.6462C128.964 12.8024 128.911 13.0003 128.911 13.2503C128.911 13.4743 128.979 13.641 129.12 13.7503C129.255 13.8649 129.474 13.917 129.766 13.917C130.026 13.917 130.224 13.8441 130.349 13.6878C130.474 13.5368 130.536 13.3024 130.536 12.9795C130.536 12.8024 130.438 12.6462 130.245 12.5212C130.062 12.4274 129.859 12.3753 129.641 12.3753Z" fill="#DB2B2C"/>
</g>
<mask id="mask18_471_48845" style="mask-type:luminance" maskUnits="userSpaceOnUse" x="10" y="8" width="11" height="9">
<path d="M10.7083 8.00537H20.6927V16.9897H10.7083V8.00537Z" fill="white"/>
</mask>
<g mask="url(#mask18_471_48845)">
<path d="M13.25 8.01056C12.974 8.00535 12.7708 8.0366 12.5521 8.12514C11.9583 8.36473 11.5208 8.82306 11.1354 9.61473C10.8438 10.2085 10.75 10.6095 10.7292 11.3387C10.7188 11.7658 10.724 11.8699 10.7708 12.146C10.8021 12.3231 10.8646 12.5887 10.9167 12.7397C11.0156 13.0418 11.3021 13.6095 11.5313 13.9689C12.0052 14.7033 12.7344 15.3647 13.6458 15.9012C13.7865 15.9845 13.9844 16.1043 14.0833 16.172C14.1823 16.2397 14.4479 16.4012 14.6771 16.5314C14.9011 16.6616 15.1458 16.8126 15.2188 16.8647C15.2865 16.9168 15.4011 16.9897 15.474 17.0314C15.5469 17.0679 15.6354 17.0991 15.6719 17.0991C15.7604 17.0991 15.9688 16.9845 16.4636 16.672C17.6042 15.9585 18.4375 15.3126 19.1719 14.5679C19.5938 14.146 19.9948 13.5835 20.2708 13.0366C20.4531 12.6772 20.5261 12.4845 20.6511 12.0522C20.7917 11.5574 20.8281 11.3022 20.8125 10.8491C20.7813 10.0626 20.5886 9.54702 20.1458 9.07827C19.9115 8.82827 19.6511 8.6616 19.2969 8.54181C19.0625 8.45848 19.0417 8.45848 18.6667 8.45848C18.1823 8.46369 17.9011 8.53139 17.4844 8.73973C16.9688 8.99494 16.5156 9.40639 16.1875 9.91681L16.0469 10.146L15.9636 9.95848C15.5938 9.07827 15.0104 8.47931 14.2448 8.19285C13.9323 8.07306 13.7292 8.03139 13.375 8.01577C13.3333 8.01056 13.2917 8.01056 13.25 8.01056Z" fill="#DB2B2C"/>
</g>
</svg>
