<svg width="141" height="26" viewBox="0 0 141 26" fill="none" xmlns="http://www.w3.org/2000/svg">
<mask id="mask0_471_24846" style="mask-type:luminance" maskUnits="userSpaceOnUse" x="0" y="0" width="141" height="26">
<path d="M0 0H140.583V25.0208H0V0Z" fill="white"/>
</mask>
<g mask="url(#mask0_471_24846)">
<mask id="mask1_471_24846" style="mask-type:luminance" maskUnits="userSpaceOnUse" x="0" y="0" width="141" height="26">
<path d="M10.0833 0.09375H130.547C133.193 0.09375 135.734 1.14583 137.604 3.02083C139.479 4.89063 140.526 7.43229 140.526 10.0781V15.0365C140.526 17.6823 139.479 20.224 137.604 22.0938C135.734 23.9688 133.193 25.0208 130.547 25.0208H10.0833C7.43229 25.0208 4.89583 23.9688 3.02083 22.0938C1.15104 20.224 0.0989532 17.6823 0.0989532 15.0365V10.0781C0.0989532 7.43229 1.15104 4.89063 3.02083 3.02083C4.89583 1.14583 7.43229 0.09375 10.0833 0.09375Z" fill="white"/>
</mask>
<g mask="url(#mask1_471_24846)">
<mask id="mask2_471_24846" style="mask-type:luminance" maskUnits="userSpaceOnUse" x="-1" y="-2" width="142" height="28">
<path d="M140.802 -1.16675H-0.53125V25.4999H140.802V-1.16675Z" fill="white"/>
</mask>
<g mask="url(#mask2_471_24846)">
<mask id="mask3_471_24846" style="mask-type:luminance" maskUnits="userSpaceOnUse" x="0" y="0" width="141" height="26">
<path d="M0 0H140.583V25.0208H0V0Z" fill="white"/>
</mask>
<g mask="url(#mask3_471_24846)">
<mask id="mask4_471_24846" style="mask-type:luminance" maskUnits="userSpaceOnUse" x="0" y="0" width="141" height="26">
<path d="M10.0833 0.09375H130.547C133.193 0.09375 135.734 1.14583 137.604 3.02083C139.479 4.89063 140.526 7.43229 140.526 10.0781V15.0365C140.526 17.6823 139.479 20.224 137.604 22.0938C135.734 23.9688 133.193 25.0208 130.547 25.0208H10.0833C7.43229 25.0208 4.89583 23.9688 3.02083 22.0938C1.15104 20.224 0.0989532 17.6823 0.0989532 15.0365V10.0781C0.0989532 7.43229 1.15104 4.89063 3.02083 3.02083C4.89583 1.14583 7.43229 0.09375 10.0833 0.09375Z" fill="white"/>
</mask>
<g mask="url(#mask4_471_24846)">
<path d="M0.0989532 0.09375H140.484V25.0208H0.0989532V0.09375Z" fill="#FAF1E9"/>
</g>
</g>
</g>
</g>
</g>
<mask id="mask5_471_24846" style="mask-type:luminance" maskUnits="userSpaceOnUse" x="0" y="0" width="141" height="26">
<path d="M0.125 0.09375H140.802V25.0521H0.125V0.09375Z" fill="white"/>
</mask>
<g mask="url(#mask5_471_24846)">
<mask id="mask6_471_24846" style="mask-type:luminance" maskUnits="userSpaceOnUse" x="0" y="0" width="141" height="26">
<path d="M10.1042 0.09375H130.516C133.161 0.09375 135.698 1.14583 137.573 3.01562C139.443 4.89062 140.495 7.42708 140.495 10.0729V15.026C140.495 17.6771 139.443 20.2135 137.573 22.0833C135.698 23.9583 133.161 25.0052 130.516 25.0052H10.1042C7.45833 25.0052 4.92188 23.9583 3.04688 22.0833C1.17708 20.2135 0.125 17.6771 0.125 15.026V10.0729C0.125 7.42708 1.17708 4.89062 3.04688 3.01562C4.92188 1.14583 7.45833 0.09375 10.1042 0.09375Z" fill="white"/>
</mask>
<g mask="url(#mask6_471_24846)">
<path d="M10.1042 0.09375H130.516C133.161 0.09375 135.698 1.14583 137.573 3.01562C139.443 4.89062 140.495 7.42708 140.495 10.0729V15.026C140.495 17.6771 139.443 20.2135 137.573 22.0833C135.698 23.9583 133.161 25.0052 130.516 25.0052H10.1042C7.45833 25.0052 4.92187 23.9583 3.04687 22.0833C1.17708 20.2135 0.125 17.6771 0.125 15.026V10.0729C0.125 7.42708 1.17708 4.89062 3.04687 3.01562C4.92187 1.14583 7.45833 0.09375 10.1042 0.09375Z" stroke="#9C6C69" stroke-width="0.998344"/>
</g>
</g>
<mask id="mask7_471_24846" style="mask-type:luminance" maskUnits="userSpaceOnUse" x="28" y="10" width="72" height="6">
<path d="M28.0521 10.0625H99.5157V15.0521H28.0521V10.0625Z" fill="white"/>
</mask>
<g mask="url(#mask7_471_24846)">
<mask id="mask8_471_24846" style="mask-type:luminance" maskUnits="userSpaceOnUse" x="28" y="10" width="72" height="6">
<path d="M30.5469 10.0625H97C98.3802 10.0625 99.4948 11.1771 99.4948 12.5573C99.4948 13.9375 98.3802 15.0521 97 15.0521H30.5469C29.1667 15.0521 28.0521 13.9375 28.0521 12.5573C28.0521 11.1771 29.1667 10.0625 30.5469 10.0625Z" fill="white"/>
</mask>
<g mask="url(#mask8_471_24846)">
<mask id="mask9_471_24846" style="mask-type:luminance" maskUnits="userSpaceOnUse" x="27" y="9" width="74" height="8">
<path d="M100.802 9.5H27.4688V16.1667H100.802V9.5Z" fill="white"/>
</mask>
<g mask="url(#mask9_471_24846)">
<mask id="mask10_471_24846" style="mask-type:luminance" maskUnits="userSpaceOnUse" x="28" y="10" width="72" height="6">
<path d="M28.0521 10.0625H99.5105V15.0521H28.0521V10.0625Z" fill="white"/>
</mask>
<g mask="url(#mask10_471_24846)">
<mask id="mask11_471_24846" style="mask-type:luminance" maskUnits="userSpaceOnUse" x="28" y="10" width="72" height="6">
<path d="M30.5469 10.0625H97C98.3802 10.0625 99.4948 11.1771 99.4948 12.5573C99.4948 13.9375 98.3802 15.0521 97 15.0521H30.5469C29.1667 15.0521 28.0521 13.9375 28.0521 12.5573C28.0521 11.1771 29.1667 10.0625 30.5469 10.0625Z" fill="white"/>
</mask>
<g mask="url(#mask11_471_24846)">
<path d="M28.0521 10.0625H99.4948V15.0521H28.0521V10.0625Z" fill="#EECCBF"/>
</g>
</g>
</g>
</g>
</g>
<mask id="mask12_471_24846" style="mask-type:luminance" maskUnits="userSpaceOnUse" x="28" y="10" width="6" height="6">
<path d="M28.0521 10.0625H33.0417V15.0521H28.0521V10.0625Z" fill="white"/>
</mask>
<g mask="url(#mask12_471_24846)">
<mask id="mask13_471_24846" style="mask-type:luminance" maskUnits="userSpaceOnUse" x="28" y="10" width="6" height="6">
<path d="M30.5469 10.0625C31.9271 10.0625 33.0417 11.1771 33.0417 12.5573C33.0417 13.9375 31.9271 15.0521 30.5469 15.0521C29.1667 15.0521 28.0521 13.9375 28.0521 12.5573C28.0521 11.1771 29.1667 10.0625 30.5469 10.0625Z" fill="white"/>
</mask>
<g mask="url(#mask13_471_24846)">
<mask id="mask14_471_24846" style="mask-type:luminance" maskUnits="userSpaceOnUse" x="27" y="9" width="8" height="8">
<path d="M34.1354 9.5H27.4688V16.1667H34.1354V9.5Z" fill="white"/>
</mask>
<g mask="url(#mask14_471_24846)">
<mask id="mask15_471_24846" style="mask-type:luminance" maskUnits="userSpaceOnUse" x="28" y="10" width="6" height="6">
<path d="M28.0521 10.0625H33.0417V15.0521H28.0521V10.0625Z" fill="white"/>
</mask>
<g mask="url(#mask15_471_24846)">
<mask id="mask16_471_24846" style="mask-type:luminance" maskUnits="userSpaceOnUse" x="28" y="10" width="6" height="6">
<path d="M30.5469 10.0625C31.9271 10.0625 33.0417 11.1771 33.0417 12.5573C33.0417 13.9375 31.9271 15.0521 30.5469 15.0521C29.1667 15.0521 28.0521 13.9375 28.0521 12.5573C28.0521 11.1771 29.1667 10.0625 30.5469 10.0625Z" fill="white"/>
</mask>
<g mask="url(#mask16_471_24846)">
<path d="M28.0521 10.0625H33.0417V15.0521H28.0521V10.0625Z" fill="#DA2C2C"/>
</g>
</g>
</g>
</g>
</g>
<mask id="mask17_471_24846" style="mask-type:luminance" maskUnits="userSpaceOnUse" x="111" y="5" width="19" height="16">
<path d="M129.068 5.86963H111.734V20.5363H129.068V5.86963Z" fill="white"/>
</mask>
<g mask="url(#mask17_471_24846)">
<mask id="mask18_471_24846" style="mask-type:luminance" maskUnits="userSpaceOnUse" x="111" y="7" width="17" height="11">
<path d="M111.917 7.20288H127.734V17.8695H111.917V7.20288Z" fill="white"/>
</mask>
<g mask="url(#mask18_471_24846)">
<path d="M115.46 16.5349C114.46 16.5349 113.73 16.087 113.272 15.1807C112.923 14.4724 112.751 13.5662 112.751 12.4516C112.751 11.4932 112.98 10.6703 113.439 9.97241C113.965 9.13908 114.689 8.72241 115.605 8.72241C116.465 8.72241 117.137 9.0922 117.626 9.82658C118.027 10.4516 118.23 11.2224 118.23 12.1391C118.23 13.613 118.001 14.7172 117.543 15.4516C117.085 16.1755 116.387 16.5349 115.46 16.5349ZM115.605 9.65991C114.991 9.65991 114.506 9.97241 114.147 10.5974C113.855 11.113 113.71 11.7016 113.71 12.3682C113.71 13.4412 113.855 14.2432 114.147 14.7849C114.439 15.3266 114.876 15.5974 115.46 15.5974C116.152 15.5974 116.647 15.2016 116.939 14.4099C117.147 13.8578 117.251 13.1599 117.251 12.3266C117.251 11.4412 117.111 10.7745 116.835 10.3266C116.569 9.88387 116.158 9.65991 115.605 9.65991Z" fill="#DB2C2C"/>
<path d="M120.751 11.2432C120.292 11.2432 119.928 11.0869 119.667 10.764C119.428 10.4723 119.313 10.0973 119.313 9.639C119.313 9.32129 119.48 9.014 119.813 8.72233C120.131 8.44629 120.448 8.30566 120.771 8.30566C121.24 8.30566 121.615 8.46191 121.896 8.764C122.172 9.07129 122.313 9.46191 122.313 9.93066C122.313 10.3369 122.146 10.6598 121.813 10.9098C121.506 11.1338 121.152 11.2432 120.751 11.2432ZM124.626 9.15983C124.511 9.35775 124.386 9.61296 124.251 9.93066L123.896 10.7223L122.938 12.8057L121.834 15.1182C121.735 15.3682 121.568 15.7432 121.334 16.2432C121.235 16.4098 121.11 16.4932 120.959 16.4932C120.86 16.4932 120.761 16.4515 120.667 16.3682C120.584 16.3005 120.542 16.2119 120.542 16.0973C120.542 16.0452 120.553 15.988 120.584 15.9307C120.735 15.488 120.99 14.9098 121.355 14.2015C121.771 13.3577 122.042 12.7848 122.167 12.4932L123.501 9.55566C123.678 9.11296 123.839 8.81608 123.98 8.65983C124.073 8.55046 124.178 8.49316 124.292 8.49316C124.402 8.49316 124.501 8.53483 124.584 8.61816C124.678 8.7015 124.73 8.80046 124.73 8.90983C124.73 8.98275 124.693 9.06608 124.626 9.15983ZM124.771 16.4307C124.323 16.4307 123.948 16.3005 123.646 16.0348C123.339 15.7588 123.188 15.3994 123.188 14.9515C123.188 14.4827 123.323 14.0869 123.605 13.764C123.896 13.4202 124.277 13.2432 124.751 13.2432C125.193 13.2432 125.584 13.3682 125.917 13.6182C126.292 13.8994 126.48 14.2536 126.48 14.6807C126.48 15.1807 126.318 15.5973 126.001 15.9307C125.678 16.264 125.271 16.4307 124.771 16.4307ZM120.751 9.11816C120.594 9.11816 120.459 9.17025 120.334 9.264C120.193 9.37858 120.126 9.50358 120.126 9.639C120.126 9.889 120.172 10.0869 120.271 10.2223C120.381 10.3473 120.542 10.4098 120.751 10.4098C120.928 10.4098 121.089 10.3786 121.23 10.3057C121.396 10.2119 121.48 10.0869 121.48 9.93066C121.48 9.67025 121.417 9.46712 121.292 9.3265C121.178 9.19108 121.001 9.11816 120.751 9.11816ZM124.751 14.0765C124.511 14.0765 124.323 14.1702 124.188 14.3473C124.073 14.5036 124.021 14.7015 124.021 14.9515C124.021 15.1755 124.089 15.3421 124.23 15.4515C124.365 15.5661 124.584 15.6182 124.876 15.6182C125.136 15.6182 125.334 15.5452 125.459 15.389C125.584 15.238 125.646 15.0036 125.646 14.6807C125.646 14.5036 125.547 14.3473 125.355 14.2223C125.172 14.1286 124.969 14.0765 124.751 14.0765Z" fill="#DB2C2C"/>
</g>
</g>
<mask id="mask19_471_24846" style="mask-type:luminance" maskUnits="userSpaceOnUse" x="10" y="8" width="11" height="9">
<path d="M10.7084 8H20.6927V16.9896H10.7084V8Z" fill="white"/>
</mask>
<g mask="url(#mask19_471_24846)">
<path d="M13.25 8.00512C12.974 7.99992 12.7709 8.03637 12.5521 8.12492C11.9584 8.3645 11.5209 8.81762 11.1355 9.6145C10.8438 10.203 10.75 10.6041 10.7292 11.3385C10.7188 11.7655 10.724 11.8697 10.7709 12.1457C10.8021 12.3228 10.8646 12.5885 10.9167 12.7395C11.0157 13.0416 11.3021 13.6093 11.5313 13.9687C12.0053 14.703 12.7344 15.3645 13.6459 15.8957C13.7865 15.9791 13.9844 16.1041 14.0834 16.1666C14.1823 16.2343 14.448 16.3958 14.6771 16.526C14.9011 16.6562 15.1459 16.8072 15.2188 16.8645C15.2865 16.9166 15.4011 16.9895 15.474 17.026C15.5469 17.0624 15.6355 17.0937 15.6719 17.0937C15.7605 17.0937 15.9688 16.9843 16.4636 16.6718C17.6042 15.953 18.4375 15.3072 19.1719 14.5676C19.5938 14.1458 19.9948 13.578 20.2709 13.0364C20.4532 12.677 20.5261 12.4843 20.6511 12.0468C20.7917 11.552 20.8282 11.302 20.8125 10.8489C20.7813 10.0624 20.5886 9.54158 20.1459 9.07283C19.9115 8.82804 19.6511 8.66137 19.2969 8.54158C19.0625 8.45825 19.0417 8.45825 18.6667 8.45825C18.1823 8.46346 17.9011 8.52596 17.4844 8.73429C16.9688 8.9895 16.5157 9.40617 16.1875 9.91658L16.0469 10.1457L15.9636 9.95304C15.5938 9.07804 15.0105 8.47908 14.2448 8.18742C13.9323 8.07283 13.7292 8.03117 13.375 8.01033C13.3334 8.01033 13.2917 8.01033 13.25 8.00512Z" fill="#DB2C2C"/>
</g>
</svg>
