<svg width="141" height="26" viewBox="0 0 141 26" fill="none" xmlns="http://www.w3.org/2000/svg">
<mask id="mask0_471_24848" style="mask-type:luminance" maskUnits="userSpaceOnUse" x="0" y="0" width="141" height="26">
<path d="M0 0H140.583V25.0208H0V0Z" fill="white"/>
</mask>
<g mask="url(#mask0_471_24848)">
<mask id="mask1_471_24848" style="mask-type:luminance" maskUnits="userSpaceOnUse" x="0" y="0" width="141" height="26">
<path d="M10.0833 0.098877H130.547C133.193 0.098877 135.734 1.15096 137.604 3.02596C139.479 4.89575 140.526 7.43742 140.526 10.0833V15.0416C140.526 17.6874 139.479 20.2239 137.604 22.0989C135.734 23.9687 133.193 25.0208 130.547 25.0208H10.0833C7.43229 25.0208 4.89583 23.9687 3.02083 22.0989C1.15104 20.2239 0.0989532 17.6874 0.0989532 15.0416V10.0833C0.0989532 7.43742 1.15104 4.89575 3.02083 3.02596C4.89583 1.15096 7.43229 0.098877 10.0833 0.098877Z" fill="white"/>
</mask>
<g mask="url(#mask1_471_24848)">
<mask id="mask2_471_24848" style="mask-type:luminance" maskUnits="userSpaceOnUse" x="-1" y="-1" width="142" height="27">
<path d="M140.802 -0.041748H-0.53125V25.2916H140.802V-0.041748Z" fill="white"/>
</mask>
<g mask="url(#mask2_471_24848)">
<mask id="mask3_471_24848" style="mask-type:luminance" maskUnits="userSpaceOnUse" x="0" y="0" width="141" height="26">
<path d="M0 0H140.583V25.0208H0V0Z" fill="white"/>
</mask>
<g mask="url(#mask3_471_24848)">
<mask id="mask4_471_24848" style="mask-type:luminance" maskUnits="userSpaceOnUse" x="0" y="0" width="141" height="26">
<path d="M10.0833 0.098877H130.547C133.193 0.098877 135.734 1.15096 137.604 3.02596C139.479 4.89575 140.526 7.43742 140.526 10.0833V15.0416C140.526 17.6874 139.479 20.2239 137.604 22.0989C135.734 23.9687 133.193 25.0208 130.547 25.0208H10.0833C7.43229 25.0208 4.89583 23.9687 3.02083 22.0989C1.15104 20.2239 0.0989532 17.6874 0.0989532 15.0416V10.0833C0.0989532 7.43742 1.15104 4.89575 3.02083 3.02596C4.89583 1.15096 7.43229 0.098877 10.0833 0.098877Z" fill="white"/>
</mask>
<g mask="url(#mask4_471_24848)">
<path d="M0.0989532 0.098877H140.484V25.0208H0.0989532V0.098877Z" fill="#FAF1E9"/>
</g>
</g>
</g>
</g>
</g>
<mask id="mask5_471_24848" style="mask-type:luminance" maskUnits="userSpaceOnUse" x="0" y="0" width="141" height="26">
<path d="M0.125 0.0991211H140.802V25.0575H0.125V0.0991211Z" fill="white"/>
</mask>
<g mask="url(#mask5_471_24848)">
<mask id="mask6_471_24848" style="mask-type:luminance" maskUnits="userSpaceOnUse" x="0" y="0" width="141" height="26">
<path d="M10.1042 0.0991211H130.516C133.161 0.0991211 135.698 1.1512 137.573 3.021C139.443 4.896 140.495 7.43245 140.495 10.0783V15.0314C140.495 17.6772 139.443 20.2189 137.573 22.0887C135.698 23.9585 133.161 25.0106 130.516 25.0106H10.1042C7.45833 25.0106 4.92188 23.9585 3.04688 22.0887C1.17708 20.2189 0.125 17.6772 0.125 15.0314V10.0783C0.125 7.43245 1.17708 4.896 3.04688 3.021C4.92188 1.1512 7.45833 0.0991211 10.1042 0.0991211Z" fill="white"/>
</mask>
<g mask="url(#mask6_471_24848)">
<path d="M10.1042 0.0991211H130.516C133.161 0.0991211 135.698 1.1512 137.573 3.021C139.443 4.896 140.495 7.43245 140.495 10.0783V15.0314C140.495 17.6772 139.443 20.2189 137.573 22.0887C135.698 23.9585 133.161 25.0106 130.516 25.0106H10.1042C7.45833 25.0106 4.92187 23.9585 3.04687 22.0887C1.17708 20.2189 0.125 17.6772 0.125 15.0314V10.0783C0.125 7.43245 1.17708 4.896 3.04687 3.021C4.92187 1.1512 7.45833 0.0991211 10.1042 0.0991211Z" stroke="#9C6C69" stroke-width="0.998344"/>
</g>
</g>
<mask id="mask7_471_24848" style="mask-type:luminance" maskUnits="userSpaceOnUse" x="28" y="10" width="72" height="6">
<path d="M28.0521 10.0679H99.5157V15.0575H28.0521V10.0679Z" fill="white"/>
</mask>
<g mask="url(#mask7_471_24848)">
<mask id="mask8_471_24848" style="mask-type:luminance" maskUnits="userSpaceOnUse" x="28" y="10" width="72" height="6">
<path d="M30.5469 10.0679H97C98.3802 10.0679 99.4948 11.1825 99.4948 12.5627C99.4948 13.9377 98.3802 15.0575 97 15.0575H30.5469C29.1667 15.0575 28.0521 13.9377 28.0521 12.5627C28.0521 11.1825 29.1667 10.0679 30.5469 10.0679Z" fill="white"/>
</mask>
<g mask="url(#mask8_471_24848)">
<mask id="mask9_471_24848" style="mask-type:luminance" maskUnits="userSpaceOnUse" x="27" y="9" width="74" height="7">
<path d="M100.802 9.29175H27.4688V15.9584H100.802V9.29175Z" fill="white"/>
</mask>
<g mask="url(#mask9_471_24848)">
<mask id="mask10_471_24848" style="mask-type:luminance" maskUnits="userSpaceOnUse" x="28" y="10" width="72" height="6">
<path d="M28.0521 10.0679H99.5105V15.0575H28.0521V10.0679Z" fill="white"/>
</mask>
<g mask="url(#mask10_471_24848)">
<mask id="mask11_471_24848" style="mask-type:luminance" maskUnits="userSpaceOnUse" x="28" y="10" width="72" height="6">
<path d="M30.5469 10.0679H97C98.3802 10.0679 99.4948 11.1825 99.4948 12.5627C99.4948 13.9377 98.3802 15.0575 97 15.0575H30.5469C29.1667 15.0575 28.0521 13.9377 28.0521 12.5627C28.0521 11.1825 29.1667 10.0679 30.5469 10.0679Z" fill="white"/>
</mask>
<g mask="url(#mask11_471_24848)">
<path d="M28.0521 10.0679H99.4948V15.0575H28.0521V10.0679Z" fill="#EECCBF"/>
</g>
</g>
</g>
</g>
</g>
<mask id="mask12_471_24848" style="mask-type:luminance" maskUnits="userSpaceOnUse" x="28" y="10" width="36" height="6">
<path d="M28.0521 10.0679H63.7917V15.0575H28.0521V10.0679Z" fill="white"/>
</mask>
<g mask="url(#mask12_471_24848)">
<mask id="mask13_471_24848" style="mask-type:luminance" maskUnits="userSpaceOnUse" x="28" y="10" width="36" height="6">
<path d="M30.5469 10.0679H61.2761C62.6563 10.0679 63.7761 11.1825 63.7761 12.5627C63.7761 13.9377 62.6563 15.0575 61.2761 15.0575H30.5469C29.1667 15.0575 28.0521 13.9377 28.0521 12.5627C28.0521 11.1825 29.1667 10.0679 30.5469 10.0679Z" fill="white"/>
</mask>
<g mask="url(#mask13_471_24848)">
<mask id="mask14_471_24848" style="mask-type:luminance" maskUnits="userSpaceOnUse" x="27" y="9" width="38" height="7">
<path d="M64.8021 9.29175H27.4688V15.9584H64.8021V9.29175Z" fill="white"/>
</mask>
<g mask="url(#mask14_471_24848)">
<mask id="mask15_471_24848" style="mask-type:luminance" maskUnits="userSpaceOnUse" x="28" y="10" width="36" height="6">
<path d="M28.0521 10.0679H63.7917V15.0575H28.0521V10.0679Z" fill="white"/>
</mask>
<g mask="url(#mask15_471_24848)">
<mask id="mask16_471_24848" style="mask-type:luminance" maskUnits="userSpaceOnUse" x="28" y="10" width="36" height="6">
<path d="M30.5469 10.0679H61.2761C62.6563 10.0679 63.7761 11.1825 63.7761 12.5627C63.7761 13.9377 62.6563 15.0575 61.2761 15.0575H30.5469C29.1667 15.0575 28.0521 13.9377 28.0521 12.5627C28.0521 11.1825 29.1667 10.0679 30.5469 10.0679Z" fill="white"/>
</mask>
<g mask="url(#mask16_471_24848)">
<path d="M28.0521 10.0679H63.7761V15.0575H28.0521V10.0679Z" fill="#F6B717"/>
</g>
</g>
</g>
</g>
</g>
<mask id="mask17_471_24848" style="mask-type:luminance" maskUnits="userSpaceOnUse" x="107" y="5" width="25" height="15">
<path d="M131.734 5.32812H107.734V19.9948H131.734V5.32812Z" fill="white"/>
</mask>
<g mask="url(#mask17_471_24848)">
<path d="M112.152 16.3313C111.22 16.3313 110.538 15.9875 110.111 15.2896C110.053 15.2063 110.027 15.1178 110.027 15.0188C110.027 14.8938 110.074 14.7896 110.173 14.7063C110.267 14.6125 110.382 14.5605 110.507 14.5605C110.642 14.5605 110.777 14.6334 110.902 14.7688C111.069 14.9771 111.199 15.1125 111.298 15.1646C111.507 15.3209 111.788 15.3938 112.152 15.3938C112.72 15.3938 113.194 15.1803 113.569 14.748C113.913 14.3313 114.09 13.8313 114.09 13.248C114.09 12.7792 114.012 12.3886 113.861 12.0813C113.663 11.7063 113.35 11.5188 112.923 11.5188C112.574 11.5188 112.288 11.5709 112.069 11.6646C111.887 11.748 111.704 11.8834 111.527 12.0605L111.007 12.6438C110.85 12.7844 110.704 12.8521 110.569 12.8521C110.428 12.8521 110.309 12.8105 110.215 12.7271C110.132 12.6334 110.09 12.5188 110.09 12.3938C110.09 12.3261 110.116 12.0344 110.173 11.5188C110.283 10.4928 110.34 9.81047 110.34 9.47713C110.34 9.36776 110.303 9.24797 110.236 9.12297C110.178 8.98755 110.152 8.88338 110.152 8.81047C110.152 8.60213 110.324 8.49797 110.673 8.49797C110.741 8.49797 110.84 8.50838 110.965 8.5188C111.1 8.53442 111.204 8.53963 111.277 8.53963C111.454 8.53963 111.736 8.53442 112.111 8.5188C112.496 8.50838 112.788 8.49797 112.986 8.49797C113.069 8.49797 113.199 8.50838 113.382 8.5188C113.559 8.5188 113.694 8.5188 113.777 8.5188C113.845 8.5188 113.934 8.51359 114.048 8.49797C114.173 8.47192 114.262 8.4563 114.319 8.4563C114.444 8.4563 114.553 8.50838 114.652 8.60213C114.746 8.68547 114.798 8.78963 114.798 8.91463C114.798 9.28963 114.408 9.47713 113.632 9.47713C113.533 9.47713 113.408 9.47713 113.257 9.47713C113.1 9.46672 113.012 9.4563 112.986 9.4563H112.152L111.319 9.49797C111.319 9.63859 111.257 10.1803 111.132 11.123C111.59 10.7636 112.184 10.5813 112.923 10.5813C113.642 10.5813 114.194 10.8678 114.569 11.4355C114.887 11.9094 115.048 12.5136 115.048 13.248C115.048 14.1386 114.788 14.8678 114.277 15.4355C113.746 16.0292 113.038 16.3313 112.152 16.3313Z" fill="#F6B717"/>
<path d="M118.527 16.2063C117.527 16.2063 116.797 15.7584 116.339 14.8521C115.99 14.1438 115.818 13.2375 115.818 12.123C115.818 11.1646 116.047 10.3417 116.506 9.6438C117.032 8.81047 117.756 8.3938 118.672 8.3938C119.532 8.3938 120.204 8.76359 120.693 9.49797C121.094 10.123 121.297 10.8938 121.297 11.8105C121.297 13.2844 121.068 14.3886 120.61 15.123C120.152 15.8469 119.454 16.2063 118.527 16.2063ZM118.672 9.3313C118.058 9.3313 117.573 9.6438 117.214 10.2688C116.922 10.7844 116.777 11.373 116.777 12.0396C116.777 13.1125 116.922 13.9146 117.214 14.4563C117.506 14.998 117.943 15.2688 118.527 15.2688C119.219 15.2688 119.714 14.873 120.006 14.0813C120.214 13.5292 120.318 12.8313 120.318 11.998C120.318 11.1125 120.178 10.4459 119.902 9.99797C119.636 9.55526 119.225 9.3313 118.672 9.3313Z" fill="#F6B717"/>
<path d="M123.818 10.9146C123.359 10.9146 122.995 10.7583 122.734 10.4354C122.495 10.1437 122.38 9.76872 122.38 9.31038C122.38 8.99268 122.547 8.68538 122.88 8.39372C123.198 8.11768 123.515 7.97705 123.838 7.97705C124.307 7.97705 124.682 8.1333 124.963 8.43538C125.239 8.74268 125.38 9.1333 125.38 9.60205C125.38 10.0083 125.213 10.3312 124.88 10.5812C124.573 10.8052 124.219 10.9146 123.818 10.9146ZM127.693 8.83122C127.578 9.02913 127.453 9.28434 127.318 9.60205L126.963 10.3937L126.005 12.4771L124.901 14.7896C124.802 15.0396 124.635 15.4146 124.401 15.9146C124.302 16.0812 124.177 16.1646 124.026 16.1646C123.927 16.1646 123.828 16.1229 123.734 16.0396C123.651 15.9718 123.609 15.8833 123.609 15.7687C123.609 15.7166 123.62 15.6593 123.651 15.6021C123.802 15.1593 124.057 14.5812 124.422 13.8729C124.838 13.0291 125.109 12.4562 125.234 12.1646L126.568 9.22705C126.745 8.78434 126.906 8.48747 127.047 8.33122C127.14 8.22184 127.245 8.16455 127.359 8.16455C127.469 8.16455 127.568 8.20622 127.651 8.28955C127.745 8.37288 127.797 8.47184 127.797 8.58122C127.797 8.65413 127.76 8.73747 127.693 8.83122ZM127.838 16.1021C127.39 16.1021 127.015 15.9718 126.713 15.7062C126.406 15.4302 126.255 15.0708 126.255 14.6229C126.255 14.1541 126.39 13.7583 126.672 13.4354C126.963 13.0916 127.344 12.9146 127.818 12.9146C128.26 12.9146 128.651 13.0396 128.984 13.2896C129.359 13.5708 129.547 13.925 129.547 14.3521C129.547 14.8521 129.385 15.2687 129.068 15.6021C128.745 15.9354 128.338 16.1021 127.838 16.1021ZM123.818 8.78955C123.661 8.78955 123.526 8.84163 123.401 8.93538C123.26 9.04997 123.193 9.17497 123.193 9.31038C123.193 9.56038 123.239 9.7583 123.338 9.89372C123.448 10.0187 123.609 10.0812 123.818 10.0812C123.995 10.0812 124.156 10.05 124.297 9.97705C124.463 9.8833 124.547 9.7583 124.547 9.60205C124.547 9.34163 124.484 9.13851 124.359 8.99788C124.245 8.86247 124.068 8.78955 123.818 8.78955ZM127.818 13.7479C127.578 13.7479 127.39 13.8416 127.255 14.0187C127.14 14.175 127.088 14.3729 127.088 14.6229C127.088 14.8468 127.156 15.0135 127.297 15.1229C127.432 15.2375 127.651 15.2896 127.943 15.2896C128.203 15.2896 128.401 15.2166 128.526 15.0604C128.651 14.9093 128.713 14.675 128.713 14.3521C128.713 14.175 128.614 14.0187 128.422 13.8937C128.239 13.8 128.036 13.7479 127.818 13.7479Z" fill="#F6B717"/>
</g>
<mask id="mask18_471_24848" style="mask-type:luminance" maskUnits="userSpaceOnUse" x="10" y="8" width="11" height="9">
<path d="M10.7084 8.00537H20.6927V16.9897H10.7084V8.00537Z" fill="white"/>
</mask>
<g mask="url(#mask18_471_24848)">
<path d="M13.25 8.0105C12.974 8.00529 12.7709 8.04175 12.5521 8.13029C11.9584 8.36466 11.5209 8.823 11.1355 9.61987C10.8438 10.2084 10.75 10.6095 10.7292 11.3438C10.7188 11.7709 10.724 11.8751 10.7709 12.1511C10.8021 12.3282 10.8646 12.5938 10.9167 12.7449C11.0157 13.047 11.3021 13.6147 11.5313 13.9688C12.0053 14.7084 12.7344 15.3699 13.6459 15.9011C13.7865 15.9845 13.9844 16.1095 14.0834 16.172C14.1823 16.2397 14.448 16.4011 14.6771 16.5313C14.9011 16.6615 15.1459 16.8126 15.2188 16.8647C15.2865 16.922 15.4011 16.9949 15.474 17.0313C15.5469 17.0678 15.6355 17.099 15.6719 17.099C15.7605 17.099 15.9688 16.9897 16.4636 16.6772C17.6042 15.9584 18.4375 15.3126 19.1719 14.573C19.5938 14.1459 19.9948 13.5834 20.2709 13.0417C20.4532 12.6824 20.5261 12.4845 20.6511 12.0522C20.7917 11.5574 20.8282 11.3074 20.8125 10.8542C20.7813 10.0626 20.5886 9.54695 20.1459 9.0782C19.9115 8.8282 19.6511 8.66675 19.2969 8.54175C19.0625 8.46362 19.0417 8.45841 18.6667 8.46362C18.1823 8.46883 17.9011 8.53133 17.4844 8.73966C16.9688 8.99487 16.5157 9.41154 16.1875 9.92195L16.0469 10.1459L15.9636 9.95841C15.5938 9.08341 15.0105 8.47925 14.2448 8.19279C13.9323 8.0782 13.7292 8.03654 13.375 8.0157C13.3334 8.0157 13.2917 8.0105 13.25 8.0105Z" fill="#F6B717"/>
</g>
</svg>
