<svg width="141" height="26" viewBox="0 0 141 26" fill="none" xmlns="http://www.w3.org/2000/svg">
<mask id="mask0_471_24849" style="mask-type:luminance" maskUnits="userSpaceOnUse" x="0" y="0" width="141" height="26">
<path d="M0 0H140.583V25.0208H0V0Z" fill="white"/>
</mask>
<g mask="url(#mask0_471_24849)">
<mask id="mask1_471_24849" style="mask-type:luminance" maskUnits="userSpaceOnUse" x="0" y="0" width="141" height="26">
<path d="M10.0833 0.098877H130.547C133.193 0.098877 135.734 1.15096 137.604 3.02596C139.479 4.89575 140.526 7.43742 140.526 10.0833V15.0364C140.526 17.6874 139.479 20.2239 137.604 22.0989C135.734 23.9687 133.193 25.0208 130.547 25.0208H10.0833C7.43229 25.0208 4.89583 23.9687 3.02083 22.0989C1.15104 20.2239 0.0989532 17.6874 0.0989532 15.0364V10.0833C0.0989532 7.43742 1.15104 4.89575 3.02083 3.02596C4.89583 1.15096 7.43229 0.098877 10.0833 0.098877Z" fill="white"/>
</mask>
<g mask="url(#mask1_471_24849)">
<mask id="mask2_471_24849" style="mask-type:luminance" maskUnits="userSpaceOnUse" x="-1" y="-1" width="142" height="27">
<path d="M140.802 -0.958496H-0.53125V25.7082H140.802V-0.958496Z" fill="white"/>
</mask>
<g mask="url(#mask2_471_24849)">
<mask id="mask3_471_24849" style="mask-type:luminance" maskUnits="userSpaceOnUse" x="0" y="-1" width="141" height="27">
<path d="M0 -0.000244141H140.583V25.0206H0V-0.000244141Z" fill="white"/>
</mask>
<g mask="url(#mask3_471_24849)">
<mask id="mask4_471_24849" style="mask-type:luminance" maskUnits="userSpaceOnUse" x="0" y="0" width="141" height="26">
<path d="M10.0833 0.0986328H130.547C133.193 0.0986328 135.734 1.15072 137.604 3.02572C139.479 4.89551 140.526 7.43717 140.526 10.083V15.0361C140.526 17.6872 139.479 20.2236 137.604 22.0986C135.734 23.9684 133.193 25.0205 130.547 25.0205H10.0833C7.43229 25.0205 4.89583 23.9684 3.02083 22.0986C1.15104 20.2236 0.0989532 17.6872 0.0989532 15.0361V10.083C0.0989532 7.43717 1.15104 4.89551 3.02083 3.02572C4.89583 1.15072 7.43229 0.0986328 10.0833 0.0986328Z" fill="white"/>
</mask>
<g mask="url(#mask4_471_24849)">
<path d="M0.0989532 0.0986328H140.484V25.0205H0.0989532V0.0986328Z" fill="#FAF1E9"/>
</g>
</g>
</g>
</g>
</g>
<mask id="mask5_471_24849" style="mask-type:luminance" maskUnits="userSpaceOnUse" x="0" y="0" width="141" height="26">
<path d="M0.125 0.098877H140.802V25.0572H0.125V0.098877Z" fill="white"/>
</mask>
<g mask="url(#mask5_471_24849)">
<mask id="mask6_471_24849" style="mask-type:luminance" maskUnits="userSpaceOnUse" x="0" y="0" width="141" height="26">
<path d="M10.1042 0.098877H130.516C133.161 0.098877 135.698 1.15096 137.573 3.02075C139.443 4.89575 140.495 7.43221 140.495 10.078V15.0312C140.495 17.677 139.443 20.2187 137.573 22.0885C135.698 23.9583 133.161 25.0103 130.516 25.0103H10.1042C7.45833 25.0103 4.92188 23.9583 3.04688 22.0885C1.17708 20.2187 0.125 17.677 0.125 15.0312V10.078C0.125 7.43221 1.17708 4.89575 3.04688 3.02075C4.92188 1.15096 7.45833 0.098877 10.1042 0.098877Z" fill="white"/>
</mask>
<g mask="url(#mask6_471_24849)">
<path d="M10.1042 0.098877H130.516C133.161 0.098877 135.698 1.15096 137.573 3.02075C139.443 4.89575 140.495 7.43221 140.495 10.078V15.0312C140.495 17.677 139.443 20.2187 137.573 22.0885C135.698 23.9582 133.161 25.0103 130.516 25.0103H10.1042C7.45833 25.0103 4.92187 23.9582 3.04687 22.0885C1.17708 20.2187 0.125 17.677 0.125 15.0312V10.078C0.125 7.43221 1.17708 4.89575 3.04687 3.02075C4.92187 1.15096 7.45833 0.098877 10.1042 0.098877Z" stroke="#9C6C69" stroke-width="0.998344"/>
</g>
</g>
<mask id="mask7_471_24849" style="mask-type:luminance" maskUnits="userSpaceOnUse" x="28" y="10" width="72" height="6">
<path d="M28.0521 10.0625H99.5157V15.0573H28.0521V10.0625Z" fill="white"/>
</mask>
<g mask="url(#mask7_471_24849)">
<mask id="mask8_471_24849" style="mask-type:luminance" maskUnits="userSpaceOnUse" x="28" y="10" width="72" height="6">
<path d="M30.5469 10.0625H97C98.3802 10.0625 99.4948 11.1823 99.4948 12.5625C99.4948 13.9375 98.3802 15.0573 97 15.0573H30.5469C29.1667 15.0573 28.0521 13.9375 28.0521 12.5625C28.0521 11.1823 29.1667 10.0625 30.5469 10.0625Z" fill="white"/>
</mask>
<g mask="url(#mask8_471_24849)">
<mask id="mask9_471_24849" style="mask-type:luminance" maskUnits="userSpaceOnUse" x="27" y="9" width="74" height="8">
<path d="M100.802 9.70825H27.4688V16.3749H100.802V9.70825Z" fill="white"/>
</mask>
<g mask="url(#mask9_471_24849)">
<mask id="mask10_471_24849" style="mask-type:luminance" maskUnits="userSpaceOnUse" x="28" y="10" width="72" height="6">
<path d="M28.0521 10.0625H99.5105V15.0573H28.0521V10.0625Z" fill="white"/>
</mask>
<g mask="url(#mask10_471_24849)">
<mask id="mask11_471_24849" style="mask-type:luminance" maskUnits="userSpaceOnUse" x="28" y="10" width="72" height="6">
<path d="M30.5469 10.0625H97C98.3802 10.0625 99.4948 11.1823 99.4948 12.5625C99.4948 13.9375 98.3802 15.0573 97 15.0573H30.5469C29.1667 15.0573 28.0521 13.9375 28.0521 12.5625C28.0521 11.1823 29.1667 10.0625 30.5469 10.0625Z" fill="white"/>
</mask>
<g mask="url(#mask11_471_24849)">
<path d="M28.0521 10.0625H99.4948V15.0573H28.0521V10.0625Z" fill="#EECCBF"/>
</g>
</g>
</g>
</g>
</g>
<mask id="mask12_471_24849" style="mask-type:luminance" maskUnits="userSpaceOnUse" x="28" y="10" width="51" height="6">
<path d="M28.0521 10.0625H78.2605V15.0573H28.0521V10.0625Z" fill="white"/>
</mask>
<g mask="url(#mask12_471_24849)">
<mask id="mask13_471_24849" style="mask-type:luminance" maskUnits="userSpaceOnUse" x="28" y="10" width="51" height="6">
<path d="M30.5469 10.0625H75.7657C77.1407 10.0625 78.2605 11.1823 78.2605 12.5625C78.2605 13.9375 77.1407 15.0573 75.7657 15.0573H30.5469C29.1667 15.0573 28.0521 13.9375 28.0521 12.5625C28.0521 11.1823 29.1667 10.0625 30.5469 10.0625Z" fill="white"/>
</mask>
<g mask="url(#mask13_471_24849)">
<mask id="mask14_471_24849" style="mask-type:luminance" maskUnits="userSpaceOnUse" x="27" y="9" width="53" height="8">
<path d="M79.4688 9.70825H27.4688V16.3749H79.4688V9.70825Z" fill="white"/>
</mask>
<g mask="url(#mask14_471_24849)">
<mask id="mask15_471_24849" style="mask-type:luminance" maskUnits="userSpaceOnUse" x="28" y="10" width="51" height="6">
<path d="M28.0521 10.0625H78.2605V15.0573H28.0521V10.0625Z" fill="white"/>
</mask>
<g mask="url(#mask15_471_24849)">
<mask id="mask16_471_24849" style="mask-type:luminance" maskUnits="userSpaceOnUse" x="28" y="10" width="51" height="6">
<path d="M30.5469 10.0625H75.7657C77.1407 10.0625 78.2605 11.1823 78.2605 12.5625C78.2605 13.9375 77.1407 15.0573 75.7657 15.0573H30.5469C29.1667 15.0573 28.0521 13.9375 28.0521 12.5625C28.0521 11.1823 29.1667 10.0625 30.5469 10.0625Z" fill="white"/>
</mask>
<g mask="url(#mask16_471_24849)">
<path d="M28.0521 10.0625H78.2605V15.0573H28.0521V10.0625Z" fill="#61A41E"/>
</g>
</g>
</g>
</g>
</g>
<mask id="mask17_471_24849" style="mask-type:luminance" maskUnits="userSpaceOnUse" x="107" y="5" width="25" height="16">
<path d="M131.734 5.41138H107.734V20.078H131.734V5.41138Z" fill="white"/>
</mask>
<g mask="url(#mask17_471_24849)">
<path d="M115.069 9.28906L114.611 9.8099C114.194 10.2995 113.803 10.8932 113.444 11.6016L112.548 13.5599C112.491 13.7005 112.35 14.0755 112.132 14.6849C111.965 15.1745 111.803 15.5339 111.652 15.7682C111.569 15.9349 111.444 16.0182 111.277 16.0182C111.137 16.0182 111.017 15.9661 110.923 15.8724C110.824 15.7734 110.777 15.6641 110.777 15.5391C110.777 15.4141 110.882 15.0964 111.09 14.5807L112.194 11.8932C112.678 10.8255 113.178 9.9974 113.694 9.41406L113.777 9.3099L111.319 9.26823L110.215 9.22656C109.892 9.20052 109.736 9.04948 109.736 8.76823C109.736 8.63281 109.783 8.51823 109.882 8.4349C109.975 8.34115 110.095 8.28906 110.236 8.28906C110.637 8.28906 111.246 8.30469 112.069 8.33073C112.902 8.36198 113.527 8.3724 113.944 8.3724H114.84C115.184 8.3724 115.361 8.47656 115.361 8.6849C115.361 8.84115 115.262 9.03906 115.069 9.28906Z" fill="#61A41E"/>
<path d="M118.527 15.8726C117.527 15.8726 116.797 15.4246 116.339 14.5184C115.99 13.8101 115.818 12.9038 115.818 11.7892C115.818 10.8309 116.047 10.008 116.506 9.31006C117.032 8.47673 117.756 8.06006 118.672 8.06006C119.532 8.06006 120.204 8.42985 120.693 9.16423C121.094 9.78923 121.297 10.5601 121.297 11.4767C121.297 12.9507 121.068 14.0549 120.61 14.7892C120.152 15.5132 119.454 15.8726 118.527 15.8726ZM118.672 8.99756C118.058 8.99756 117.573 9.31006 117.214 9.93506C116.922 10.4507 116.777 11.0392 116.777 11.7059C116.777 12.7788 116.922 13.5809 117.214 14.1226C117.506 14.6642 117.943 14.9351 118.527 14.9351C119.219 14.9351 119.714 14.5392 120.006 13.7476C120.214 13.1955 120.318 12.4976 120.318 11.6642C120.318 10.7788 120.178 10.1121 119.902 9.66423C119.636 9.22152 119.225 8.99756 118.672 8.99756Z" fill="#61A41E"/>
<path d="M123.817 10.5808C123.359 10.5808 122.995 10.4246 122.734 10.1016C122.495 9.80998 122.38 9.43498 122.38 8.97664C122.38 8.65894 122.547 8.35164 122.88 8.05998C123.198 7.78394 123.515 7.64331 123.838 7.64331C124.307 7.64331 124.682 7.79956 124.963 8.10164C125.239 8.40894 125.38 8.79956 125.38 9.26831C125.38 9.67456 125.213 9.99748 124.88 10.2475C124.573 10.4714 124.219 10.5808 123.817 10.5808ZM127.692 8.49748C127.578 8.69539 127.453 8.9506 127.317 9.26831L126.963 10.06L126.005 12.1433L124.901 14.4558C124.802 14.7058 124.635 15.0808 124.401 15.5808C124.302 15.7475 124.177 15.8308 124.026 15.8308C123.927 15.8308 123.828 15.7891 123.734 15.7058C123.651 15.6381 123.609 15.5496 123.609 15.435C123.609 15.3829 123.62 15.3256 123.651 15.2683C123.802 14.8256 124.057 14.2475 124.422 13.5391C124.838 12.6954 125.109 12.1225 125.234 11.8308L126.567 8.89331C126.745 8.4506 126.906 8.15373 127.047 7.99748C127.14 7.8881 127.245 7.83081 127.359 7.83081C127.469 7.83081 127.567 7.87248 127.651 7.95581C127.745 8.03914 127.797 8.1381 127.797 8.24748C127.797 8.32039 127.76 8.40373 127.692 8.49748ZM127.838 15.7683C127.39 15.7683 127.015 15.6381 126.713 15.3725C126.406 15.0964 126.255 14.7371 126.255 14.2891C126.255 13.8204 126.39 13.4246 126.672 13.1016C126.963 12.7579 127.344 12.5808 127.817 12.5808C128.26 12.5808 128.651 12.7058 128.984 12.9558C129.359 13.2371 129.547 13.5912 129.547 14.0183C129.547 14.5183 129.385 14.935 129.067 15.2683C128.745 15.6016 128.338 15.7683 127.838 15.7683ZM123.817 8.45581C123.661 8.45581 123.526 8.50789 123.401 8.60164C123.26 8.71623 123.192 8.84123 123.192 8.97664C123.192 9.22664 123.239 9.42456 123.338 9.55998C123.448 9.68498 123.609 9.74748 123.817 9.74748C123.995 9.74748 124.156 9.71623 124.297 9.64331C124.463 9.54956 124.547 9.42456 124.547 9.26831C124.547 9.00789 124.484 8.80477 124.359 8.66414C124.245 8.52873 124.067 8.45581 123.817 8.45581ZM127.817 13.4141C127.578 13.4141 127.39 13.5079 127.255 13.685C127.14 13.8412 127.088 14.0391 127.088 14.2891C127.088 14.5131 127.156 14.6798 127.297 14.7891C127.432 14.9037 127.651 14.9558 127.942 14.9558C128.203 14.9558 128.401 14.8829 128.526 14.7266C128.651 14.5756 128.713 14.3412 128.713 14.0183C128.713 13.8412 128.614 13.685 128.422 13.56C128.239 13.4662 128.036 13.4141 127.817 13.4141Z" fill="#61A41E"/>
</g>
<mask id="mask18_471_24849" style="mask-type:luminance" maskUnits="userSpaceOnUse" x="10" y="8" width="11" height="9">
<path d="M10.7084 8.00513H20.6927V16.9895H10.7084V8.00513Z" fill="white"/>
</mask>
<g mask="url(#mask18_471_24849)">
<path d="M13.25 8.01025C12.974 8.00504 12.7709 8.0415 12.5521 8.13004C11.9584 8.36442 11.5209 8.82275 11.1355 9.61442C10.8438 10.2082 10.75 10.6092 10.7292 11.3436C10.7188 11.7655 10.724 11.8748 10.7709 12.1509C10.8021 12.328 10.8646 12.5936 10.9167 12.7446C11.0157 13.0467 11.3021 13.6144 11.5313 13.9686C12.0053 14.7082 12.7344 15.3696 13.6459 15.9009C13.7865 15.9842 13.9844 16.104 14.0834 16.1717C14.1823 16.2394 14.448 16.4009 14.6771 16.5311C14.9011 16.6613 15.1459 16.8123 15.2188 16.8644C15.2865 16.9217 15.4011 16.9946 15.474 17.0311C15.5469 17.0675 15.6355 17.0988 15.6719 17.0988C15.7605 17.0988 15.9688 16.9894 16.4636 16.6769C17.6042 15.9582 18.4375 15.3123 19.1719 14.5728C19.5938 14.1457 19.9948 13.5832 20.2709 13.0415C20.4532 12.6769 20.5261 12.4842 20.6511 12.0519C20.7917 11.5571 20.8282 11.3019 20.8125 10.854C20.7813 10.0623 20.5886 9.54671 20.1459 9.07796C19.9115 8.82796 19.6511 8.6665 19.2969 8.5415C19.0625 8.46338 19.0417 8.45817 18.6667 8.46338C18.1823 8.46338 17.9011 8.53108 17.4844 8.73942C16.9688 8.99463 16.5157 9.40609 16.1875 9.92171L16.0469 10.1457L15.9636 9.95817C15.5938 9.08317 15.0105 8.479 14.2448 8.19254C13.9323 8.07796 13.7292 8.03629 13.375 8.01546C13.3334 8.01546 13.2917 8.01025 13.25 8.01025Z" fill="#61A41E"/>
</g>
</svg>
