<svg width="141" height="26" viewBox="0 0 141 26" fill="none" xmlns="http://www.w3.org/2000/svg">
<mask id="mask0_471_24869" style="mask-type:luminance" maskUnits="userSpaceOnUse" x="0" y="0" width="141" height="26">
<path d="M0 0H140.578V25.0208H0V0Z" fill="white"/>
</mask>
<g mask="url(#mask0_471_24869)">
<mask id="mask1_471_24869" style="mask-type:luminance" maskUnits="userSpaceOnUse" x="0" y="0" width="141" height="26">
<path d="M10.0781 0.098877H130.542C133.193 0.098877 135.729 1.15096 137.604 3.02075C139.474 4.89575 140.526 7.43221 140.526 10.0833V15.0364C140.526 17.6874 139.474 20.2239 137.604 22.0989C135.729 23.9687 133.193 25.0208 130.542 25.0208H10.0781C7.43229 25.0208 4.89063 23.9687 3.02083 22.0989C1.14583 20.2239 0.09375 17.6874 0.09375 15.0364V10.0833C0.09375 7.43221 1.14583 4.89575 3.02083 3.02075C4.89063 1.15096 7.43229 0.098877 10.0781 0.098877Z" fill="white"/>
</mask>
<g mask="url(#mask1_471_24869)">
<mask id="mask2_471_24869" style="mask-type:luminance" maskUnits="userSpaceOnUse" x="-1" y="-1" width="142" height="28">
<path d="M140.911 -0.541748H-0.421875V26.1249H140.911V-0.541748Z" fill="white"/>
</mask>
<g mask="url(#mask2_471_24869)">
<mask id="mask3_471_24869" style="mask-type:luminance" maskUnits="userSpaceOnUse" x="0" y="0" width="141" height="26">
<path d="M0 0H140.578V25.0208H0V0Z" fill="white"/>
</mask>
<g mask="url(#mask3_471_24869)">
<mask id="mask4_471_24869" style="mask-type:luminance" maskUnits="userSpaceOnUse" x="0" y="0" width="141" height="26">
<path d="M10.0781 0.098877H130.542C133.193 0.098877 135.729 1.15096 137.604 3.02075C139.474 4.89575 140.526 7.43221 140.526 10.0833V15.0364C140.526 17.6874 139.474 20.2239 137.604 22.0989C135.729 23.9687 133.193 25.0208 130.542 25.0208H10.0781C7.43229 25.0208 4.89062 23.9687 3.02083 22.0989C1.14583 20.2239 0.09375 17.6874 0.09375 15.0364V10.0833C0.09375 7.43221 1.14583 4.89575 3.02083 3.02075C4.89062 1.15096 7.43229 0.098877 10.0781 0.098877Z" fill="white"/>
</mask>
<g mask="url(#mask4_471_24869)">
<path d="M0.09375 0.098877H140.484V25.0208H0.09375V0.098877Z" fill="#FAF1E9"/>
</g>
</g>
</g>
</g>
</g>
<mask id="mask5_471_24869" style="mask-type:luminance" maskUnits="userSpaceOnUse" x="0" y="0" width="141" height="26">
<path d="M0.125 0.0991211H140.865V25.0575H0.125V0.0991211Z" fill="white"/>
</mask>
<g mask="url(#mask5_471_24869)">
<mask id="mask6_471_24869" style="mask-type:luminance" maskUnits="userSpaceOnUse" x="0" y="0" width="141" height="26">
<path d="M10.1042 0.0991211H130.51C133.161 0.0991211 135.698 1.1512 137.568 3.021C139.438 4.89079 140.49 7.43245 140.49 10.0783V15.0314C140.49 17.6772 139.438 20.2189 137.568 22.0887C135.698 23.9585 133.161 25.0106 130.51 25.0106H10.1042C7.45833 25.0106 4.91667 23.9585 3.04688 22.0887C1.17708 20.2189 0.125 17.6772 0.125 15.0314V10.0783C0.125 7.43245 1.17708 4.89079 3.04688 3.021C4.91667 1.1512 7.45833 0.0991211 10.1042 0.0991211Z" fill="white"/>
</mask>
<g mask="url(#mask6_471_24869)">
<path d="M10.1042 0.0991211H130.51C133.161 0.0991211 135.698 1.1512 137.568 3.021C139.437 4.89079 140.49 7.43245 140.49 10.0783V15.0314C140.49 17.6772 139.437 20.2189 137.568 22.0887C135.698 23.9585 133.161 25.0106 130.51 25.0106H10.1042C7.45833 25.0106 4.91666 23.9585 3.04687 22.0887C1.17708 20.2189 0.125 17.6772 0.125 15.0314V10.0783C0.125 7.43245 1.17708 4.89079 3.04687 3.021C4.91666 1.1512 7.45833 0.0991211 10.1042 0.0991211Z" stroke="#9C6C69" stroke-width="0.998344"/>
</g>
</g>
<mask id="mask7_471_24869" style="mask-type:luminance" maskUnits="userSpaceOnUse" x="28" y="10" width="72" height="6">
<path d="M28.0469 10.0625H99.5104V15.0573H28.0469V10.0625Z" fill="white"/>
</mask>
<g mask="url(#mask7_471_24869)">
<mask id="mask8_471_24869" style="mask-type:luminance" maskUnits="userSpaceOnUse" x="28" y="10" width="72" height="6">
<path d="M30.5469 10.0625H97C98.375 10.0625 99.4948 11.1823 99.4948 12.5625C99.4948 13.9375 98.375 15.0573 97 15.0573H30.5469C29.1667 15.0573 28.0469 13.9375 28.0469 12.5625C28.0469 11.1823 29.1667 10.0625 30.5469 10.0625Z" fill="white"/>
</mask>
<g mask="url(#mask8_471_24869)">
<mask id="mask9_471_24869" style="mask-type:luminance" maskUnits="userSpaceOnUse" x="27" y="8" width="73" height="8">
<path d="M99.5781 8.79175H27.5781V15.4584H99.5781V8.79175Z" fill="white"/>
</mask>
<g mask="url(#mask9_471_24869)">
<mask id="mask10_471_24869" style="mask-type:luminance" maskUnits="userSpaceOnUse" x="28" y="10" width="72" height="6">
<path d="M28.0469 10.0625H99.5104V15.0573H28.0469V10.0625Z" fill="white"/>
</mask>
<g mask="url(#mask10_471_24869)">
<mask id="mask11_471_24869" style="mask-type:luminance" maskUnits="userSpaceOnUse" x="28" y="10" width="72" height="6">
<path d="M30.5469 10.0625H97C98.375 10.0625 99.4948 11.1823 99.4948 12.5625C99.4948 13.9375 98.375 15.0573 97 15.0573H30.5469C29.1667 15.0573 28.0469 13.9375 28.0469 12.5625C28.0469 11.1823 29.1667 10.0625 30.5469 10.0625Z" fill="white"/>
</mask>
<g mask="url(#mask11_471_24869)">
<path d="M28.0469 10.0625H99.4948V15.0573H28.0469V10.0625Z" fill="#EECCBF"/>
</g>
</g>
</g>
</g>
</g>
<mask id="mask12_471_24869" style="mask-type:luminance" maskUnits="userSpaceOnUse" x="28" y="10" width="36" height="6">
<path d="M28.0469 10.0625H63.7917V15.0573H28.0469V10.0625Z" fill="white"/>
</mask>
<g mask="url(#mask12_471_24869)">
<mask id="mask13_471_24869" style="mask-type:luminance" maskUnits="userSpaceOnUse" x="28" y="10" width="36" height="6">
<path d="M30.5469 10.0625H61.276C62.6562 10.0625 63.7708 11.1823 63.7708 12.5625C63.7708 13.9375 62.6562 15.0573 61.276 15.0573H30.5469C29.1667 15.0573 28.0469 13.9375 28.0469 12.5625C28.0469 11.1823 29.1667 10.0625 30.5469 10.0625Z" fill="white"/>
</mask>
<g mask="url(#mask13_471_24869)">
<mask id="mask14_471_24869" style="mask-type:luminance" maskUnits="userSpaceOnUse" x="27" y="8" width="38" height="8">
<path d="M64.9115 8.79175H27.5781V15.4584H64.9115V8.79175Z" fill="white"/>
</mask>
<g mask="url(#mask14_471_24869)">
<mask id="mask15_471_24869" style="mask-type:luminance" maskUnits="userSpaceOnUse" x="28" y="10" width="36" height="6">
<path d="M28.0469 10.0625H63.7917V15.0573H28.0469V10.0625Z" fill="white"/>
</mask>
<g mask="url(#mask15_471_24869)">
<mask id="mask16_471_24869" style="mask-type:luminance" maskUnits="userSpaceOnUse" x="28" y="10" width="36" height="6">
<path d="M30.5469 10.0625H61.276C62.6562 10.0625 63.7708 11.1823 63.7708 12.5625C63.7708 13.9375 62.6562 15.0573 61.276 15.0573H30.5469C29.1667 15.0573 28.0469 13.9375 28.0469 12.5625C28.0469 11.1823 29.1667 10.0625 30.5469 10.0625Z" fill="white"/>
</mask>
<g mask="url(#mask16_471_24869)">
<path d="M28.0469 10.0625H63.7708V15.0573H28.0469V10.0625Z" fill="#F6B717"/>
</g>
</g>
</g>
</g>
</g>
<mask id="mask17_471_24869" style="mask-type:luminance" maskUnits="userSpaceOnUse" x="11" y="5" width="8" height="4">
<path d="M11.5781 5.375H18.2448V8.79167H11.5781V5.375Z" fill="white"/>
</mask>
<g mask="url(#mask17_471_24869)">
<path d="M16.4427 5.51564C16.1771 5.37501 15.8542 5.41147 15.625 5.59897C15.2135 5.94272 14.6458 6.02605 14.1563 5.81772L13.9115 5.71355C13.7552 5.64585 13.5833 5.62501 13.4115 5.64064C12.9063 5.69793 12.6406 6.27605 12.9271 6.70314C13.2865 7.22397 13.724 7.8646 14.0313 8.31772C14.4688 8.15105 14.9635 8.06772 15.5208 8.0573H15.5313C16.026 8.06772 16.4792 8.13543 16.8854 8.27084C17.0885 7.88543 17.3594 7.54689 17.6875 7.26043L18.1771 6.83334C18.276 6.7448 18.2552 6.57814 18.1302 6.52605L17.9948 6.46355C17.5885 6.28647 17.1146 6.4323 16.8802 6.81251C16.7917 6.94793 16.7083 7.07814 16.6458 7.1823C16.6927 6.95314 16.7656 6.61459 16.8229 6.32293C16.8906 6.00001 16.7344 5.66668 16.4427 5.51564Z" fill="#F6B717"/>
</g>
<mask id="mask18_471_24869" style="mask-type:luminance" maskUnits="userSpaceOnUse" x="10" y="8" width="11" height="11">
<path d="M10.2761 8.5H20.7709V18.3542H10.2761V8.5Z" fill="white"/>
</mask>
<g mask="url(#mask18_471_24869)">
<path d="M15.8438 15.599V15.9688C15.8438 16.1458 15.698 16.2917 15.5209 16.2917C15.3438 16.2917 15.198 16.1458 15.198 15.9688V15.6302C14.9375 15.599 14.6459 15.5156 14.3907 15.375C14.1823 15.2656 14.1146 15.0052 14.2396 14.8073C14.3542 14.6354 14.5834 14.5781 14.7657 14.6771C14.9844 14.7969 15.1875 14.8594 15.4011 14.8594C15.7761 14.8594 15.9375 14.7031 15.9375 14.4062C15.9375 13.724 14.198 13.7396 14.198 12.5469C14.198 11.901 14.573 11.4479 15.198 11.3281V10.9688C15.198 10.7865 15.3438 10.6458 15.5209 10.6458C15.698 10.6458 15.8438 10.7865 15.8438 10.9688V11.3125C16.099 11.3542 16.3125 11.4427 16.5 11.5729C16.6875 11.7031 16.7188 11.9687 16.573 12.1406C16.448 12.2813 16.2396 12.3073 16.0834 12.2083C15.9375 12.1198 15.7917 12.0729 15.6146 12.0729C15.2969 12.0729 15.125 12.2031 15.125 12.5C15.125 13.1302 16.8698 13.0729 16.8698 14.3385C16.8698 14.9688 16.5209 15.4583 15.8438 15.599ZM17.3542 8.97396C16.8073 8.63021 16.1563 8.51042 15.5261 8.5C14.8907 8.51042 14.2396 8.63021 13.6928 8.97396C13.3542 9.18229 12.9896 9.5 12.6303 9.88542C11.1146 11.5365 9.69276 14.4896 10.5209 16.3646C10.6407 16.6406 10.8125 16.8958 11.0365 17.1146C11.1719 17.2448 11.3178 17.3646 11.4792 17.4635C12.5 18.1354 13.9584 18.4323 15.5261 18.4323C17.0573 18.4323 18.5469 18.1354 19.573 17.4635C19.7292 17.3646 19.8803 17.2448 20.0105 17.1146C20.2396 16.8958 20.4063 16.6406 20.5313 16.3646C21.3594 14.4896 19.9323 11.5365 18.4167 9.88542C18.0573 9.5 17.698 9.18229 17.3542 8.97396Z" fill="#F6B717"/>
</g>
<mask id="mask19_471_24869" style="mask-type:luminance" maskUnits="userSpaceOnUse" x="106" y="4" width="23" height="17">
<path d="M128.912 4.79175H106.245V20.7917H128.912V4.79175Z" fill="white"/>
</mask>
<g mask="url(#mask19_471_24869)">
<mask id="mask20_471_24869" style="mask-type:luminance" maskUnits="userSpaceOnUse" x="106" y="8" width="22" height="11">
<path d="M106.547 8.79175H127.578V18.1251H106.547V8.79175Z" fill="white"/>
</mask>
<g mask="url(#mask20_471_24869)">
<path d="M109.402 17.2188C108.47 17.2188 107.788 16.875 107.36 16.1771C107.303 16.0938 107.277 16.0052 107.277 15.9062C107.277 15.7812 107.324 15.6771 107.423 15.5938C107.517 15.5 107.631 15.4479 107.756 15.4479C107.892 15.4479 108.027 15.5208 108.152 15.6562C108.319 15.8646 108.449 16 108.548 16.0521C108.756 16.2083 109.038 16.2812 109.402 16.2812C109.97 16.2812 110.444 16.0677 110.819 15.6354C111.163 15.2188 111.34 14.7188 111.34 14.1354C111.34 13.6667 111.262 13.276 111.11 12.9688C110.913 12.5938 110.6 12.4062 110.173 12.4062C109.824 12.4062 109.538 12.4583 109.319 12.5521C109.137 12.6354 108.954 12.7708 108.777 12.9479L108.256 13.5312C108.1 13.6719 107.954 13.7396 107.819 13.7396C107.678 13.7396 107.558 13.6979 107.465 13.6146C107.381 13.5208 107.34 13.4062 107.34 13.2812C107.34 13.2135 107.366 12.9219 107.423 12.4062C107.532 11.3802 107.59 10.6979 107.59 10.3646C107.59 10.2552 107.553 10.1354 107.485 10.0104C107.428 9.875 107.402 9.77083 107.402 9.69792C107.402 9.48958 107.574 9.38542 107.923 9.38542C107.991 9.38542 108.09 9.39583 108.215 9.40625C108.35 9.42188 108.454 9.42708 108.527 9.42708C108.704 9.42708 108.985 9.42188 109.36 9.40625C109.746 9.39583 110.038 9.38542 110.235 9.38542C110.319 9.38542 110.449 9.39583 110.631 9.40625C110.808 9.40625 110.944 9.40625 111.027 9.40625C111.095 9.40625 111.183 9.40104 111.298 9.38542C111.423 9.35938 111.512 9.34375 111.569 9.34375C111.694 9.34375 111.803 9.39583 111.902 9.48958C111.996 9.57292 112.048 9.67708 112.048 9.80208C112.048 10.1771 111.657 10.3646 110.881 10.3646C110.782 10.3646 110.657 10.3646 110.506 10.3646C110.35 10.3542 110.262 10.3438 110.235 10.3438H109.402L108.569 10.3854C108.569 10.526 108.506 11.0677 108.381 12.0104C108.84 11.651 109.433 11.4688 110.173 11.4688C110.892 11.4688 111.444 11.7552 111.819 12.3229C112.137 12.7969 112.298 13.401 112.298 14.1354C112.298 15.026 112.038 15.7552 111.527 16.3229C110.996 16.9167 110.288 17.2188 109.402 17.2188Z" fill="#F6B717"/>
<path d="M115.776 17.0938C114.776 17.0938 114.047 16.6458 113.589 15.7396C113.24 15.0312 113.068 14.125 113.068 13.0104C113.068 12.0521 113.297 11.2292 113.756 10.5312C114.282 9.69792 115.006 9.28125 115.922 9.28125C116.782 9.28125 117.453 9.65104 117.943 10.3854C118.344 11.0104 118.547 11.7812 118.547 12.6979C118.547 14.1719 118.318 15.276 117.86 16.0104C117.401 16.7344 116.703 17.0938 115.776 17.0938ZM115.922 10.2188C115.308 10.2188 114.823 10.5312 114.464 11.1562C114.172 11.6719 114.026 12.2604 114.026 12.9271C114.026 14 114.172 14.8021 114.464 15.3438C114.756 15.8854 115.193 16.1562 115.776 16.1562C116.469 16.1562 116.964 15.7604 117.256 14.9688C117.464 14.4167 117.568 13.7188 117.568 12.8854C117.568 12 117.427 11.3333 117.151 10.8854C116.886 10.4427 116.474 10.2188 115.922 10.2188Z" fill="#F6B717"/>
<path d="M121.067 11.802C120.609 11.802 120.244 11.6458 119.984 11.3228C119.744 11.0312 119.63 10.6562 119.63 10.1978C119.63 9.88013 119.796 9.57284 120.13 9.28117C120.447 9.00513 120.765 8.8645 121.088 8.8645C121.557 8.8645 121.932 9.02075 122.213 9.32284C122.489 9.63013 122.63 10.0208 122.63 10.4895C122.63 10.8958 122.463 11.2187 122.13 11.4687C121.822 11.6926 121.468 11.802 121.067 11.802ZM124.942 9.71867C124.828 9.91658 124.703 10.1718 124.567 10.4895L124.213 11.2812L123.255 13.3645L122.151 15.677C122.052 15.927 121.885 16.302 121.651 16.802C121.552 16.9687 121.427 17.052 121.276 17.052C121.177 17.052 121.078 17.0103 120.984 16.927C120.901 16.8593 120.859 16.7708 120.859 16.6562C120.859 16.6041 120.869 16.5468 120.901 16.4895C121.052 16.0468 121.307 15.4687 121.671 14.7603C122.088 13.9166 122.359 13.3437 122.484 13.052L123.817 10.1145C123.994 9.67179 124.156 9.37492 124.296 9.21867C124.39 9.10929 124.494 9.052 124.609 9.052C124.718 9.052 124.817 9.09367 124.901 9.177C124.994 9.26034 125.046 9.35929 125.046 9.46867C125.046 9.54158 125.01 9.62492 124.942 9.71867ZM125.088 16.9895C124.64 16.9895 124.265 16.8593 123.963 16.5937C123.656 16.3176 123.505 15.9583 123.505 15.5103C123.505 15.0416 123.64 14.6458 123.921 14.3228C124.213 13.9791 124.593 13.802 125.067 13.802C125.51 13.802 125.901 13.927 126.234 14.177C126.609 14.4583 126.796 14.8124 126.796 15.2395C126.796 15.7395 126.635 16.1562 126.317 16.4895C125.994 16.8228 125.588 16.9895 125.088 16.9895ZM121.067 9.677C120.911 9.677 120.776 9.72909 120.651 9.82284C120.51 9.93742 120.442 10.0624 120.442 10.1978C120.442 10.4478 120.489 10.6458 120.588 10.7812C120.697 10.9062 120.859 10.9687 121.067 10.9687C121.244 10.9687 121.406 10.9374 121.546 10.8645C121.713 10.7708 121.796 10.6458 121.796 10.4895C121.796 10.2291 121.734 10.026 121.609 9.88534C121.494 9.74992 121.317 9.677 121.067 9.677ZM125.067 14.6353C124.828 14.6353 124.64 14.7291 124.505 14.9062C124.39 15.0624 124.338 15.2603 124.338 15.5103C124.338 15.7343 124.406 15.901 124.546 16.0103C124.682 16.1249 124.901 16.177 125.192 16.177C125.453 16.177 125.651 16.1041 125.776 15.9478C125.901 15.7968 125.963 15.5624 125.963 15.2395C125.963 15.0624 125.864 14.9062 125.671 14.7812C125.489 14.6874 125.286 14.6353 125.067 14.6353Z" fill="#F6B717"/>
</g>
</g>
</svg>
