<svg width="141" height="26" viewBox="0 0 141 26" fill="none" xmlns="http://www.w3.org/2000/svg">
<mask id="mask0_471_24855" style="mask-type:luminance" maskUnits="userSpaceOnUse" x="0" y="0" width="141" height="26">
<path d="M0 0H140.583V25.0208H0V0Z" fill="white"/>
</mask>
<g mask="url(#mask0_471_24855)">
<mask id="mask1_471_24855" style="mask-type:luminance" maskUnits="userSpaceOnUse" x="0" y="0" width="141" height="26">
<path d="M10.0833 0.098877H130.547C133.193 0.098877 135.734 1.15096 137.604 3.02075C139.479 4.89575 140.531 7.43221 140.531 10.0833V15.0364C140.531 17.6874 139.479 20.2239 137.604 22.0989C135.734 23.9687 133.193 25.0208 130.547 25.0208H10.0833C7.43227 25.0208 4.89581 23.9687 3.02081 22.0989C1.15102 20.2239 0.098938 17.6874 0.098938 15.0364V10.0833C0.098938 7.43221 1.15102 4.89575 3.02081 3.02075C4.89581 1.15096 7.43227 0.098877 10.0833 0.098877Z" fill="white"/>
</mask>
<g mask="url(#mask1_471_24855)">
<mask id="mask2_471_24855" style="mask-type:luminance" maskUnits="userSpaceOnUse" x="-2" y="-1" width="144" height="28">
<path d="M141.578 -0.541748H-1.08856V26.1249H141.578V-0.541748Z" fill="white"/>
</mask>
<g mask="url(#mask2_471_24855)">
<mask id="mask3_471_24855" style="mask-type:luminance" maskUnits="userSpaceOnUse" x="0" y="0" width="141" height="26">
<path d="M0.026001 0H140.583V25.0208H0.026001V0Z" fill="white"/>
</mask>
<g mask="url(#mask3_471_24855)">
<mask id="mask4_471_24855" style="mask-type:luminance" maskUnits="userSpaceOnUse" x="0" y="0" width="141" height="26">
<path d="M10.0833 0.098877H130.547C133.193 0.098877 135.734 1.15096 137.604 3.02075C139.479 4.89575 140.531 7.43221 140.531 10.0833V15.0364C140.531 17.6874 139.479 20.2239 137.604 22.0989C135.734 23.9687 133.193 25.0208 130.547 25.0208H10.0833C7.43227 25.0208 4.89581 23.9687 3.02081 22.0989C1.15102 20.2239 0.098938 17.6874 0.098938 15.0364V10.0833C0.098938 7.43221 1.15102 4.89575 3.02081 3.02075C4.89581 1.15096 7.43227 0.098877 10.0833 0.098877Z" fill="white"/>
</mask>
<g mask="url(#mask4_471_24855)">
<path d="M0.098938 0.098877H140.484V25.0208H0.098938V0.098877Z" fill="#FAF1E9"/>
</g>
</g>
</g>
</g>
</g>
<mask id="mask5_471_24855" style="mask-type:luminance" maskUnits="userSpaceOnUse" x="0" y="0" width="141" height="26">
<path d="M0.125 0.0991211H140.865V25.0575H0.125V0.0991211Z" fill="white"/>
</mask>
<g mask="url(#mask5_471_24855)">
<mask id="mask6_471_24855" style="mask-type:luminance" maskUnits="userSpaceOnUse" x="0" y="0" width="141" height="26">
<path d="M10.1042 0.0991211H130.516C133.161 0.0991211 135.698 1.1512 137.573 3.021C139.443 4.89079 140.495 7.43245 140.495 10.0783V15.0314C140.495 17.6772 139.443 20.2189 137.573 22.0887C135.698 23.9585 133.161 25.0106 130.516 25.0106H10.1042C7.45833 25.0106 4.92188 23.9585 3.04688 22.0887C1.17708 20.2189 0.125 17.6772 0.125 15.0314V10.0783C0.125 7.43245 1.17708 4.89079 3.04688 3.021C4.92188 1.1512 7.45833 0.0991211 10.1042 0.0991211Z" fill="white"/>
</mask>
<g mask="url(#mask6_471_24855)">
<path d="M10.1042 0.0991211H130.516C133.161 0.0991211 135.698 1.1512 137.573 3.021C139.443 4.89079 140.495 7.43245 140.495 10.0783V15.0314C140.495 17.6772 139.443 20.2189 137.573 22.0887C135.698 23.9585 133.161 25.0106 130.516 25.0106H10.1042C7.45833 25.0106 4.92187 23.9585 3.04687 22.0887C1.17708 20.2189 0.125 17.6772 0.125 15.0314V10.0783C0.125 7.43245 1.17708 4.89079 3.04687 3.021C4.92187 1.1512 7.45833 0.0991211 10.1042 0.0991211Z" stroke="#9C6C69" stroke-width="0.998344"/>
</g>
</g>
<mask id="mask7_471_24855" style="mask-type:luminance" maskUnits="userSpaceOnUse" x="28" y="10" width="72" height="6">
<path d="M28.0521 10.0625H99.5156V15.0573H28.0521V10.0625Z" fill="white"/>
</mask>
<g mask="url(#mask7_471_24855)">
<mask id="mask8_471_24855" style="mask-type:luminance" maskUnits="userSpaceOnUse" x="28" y="10" width="72" height="6">
<path d="M30.5469 10.0625H97C98.3802 10.0625 99.4948 11.1823 99.4948 12.5625C99.4948 13.9375 98.3802 15.0573 97 15.0573H30.5469C29.1719 15.0573 28.0521 13.9375 28.0521 12.5625C28.0521 11.1823 29.1719 10.0625 30.5469 10.0625Z" fill="white"/>
</mask>
<g mask="url(#mask8_471_24855)">
<mask id="mask9_471_24855" style="mask-type:luminance" maskUnits="userSpaceOnUse" x="26" y="8" width="75" height="8">
<path d="M100.245 8.79175H26.9114V15.4584H100.245V8.79175Z" fill="white"/>
</mask>
<g mask="url(#mask9_471_24855)">
<mask id="mask10_471_24855" style="mask-type:luminance" maskUnits="userSpaceOnUse" x="28" y="10" width="72" height="6">
<path d="M28.0521 10.0625H99.5156V15.0573H28.0521V10.0625Z" fill="white"/>
</mask>
<g mask="url(#mask10_471_24855)">
<mask id="mask11_471_24855" style="mask-type:luminance" maskUnits="userSpaceOnUse" x="28" y="10" width="72" height="6">
<path d="M30.5469 10.0625H97C98.3802 10.0625 99.4948 11.1823 99.4948 12.5625C99.4948 13.9375 98.3802 15.0573 97 15.0573H30.5469C29.1719 15.0573 28.0521 13.9375 28.0521 12.5625C28.0521 11.1823 29.1719 10.0625 30.5469 10.0625Z" fill="white"/>
</mask>
<g mask="url(#mask11_471_24855)">
<path d="M28.0521 10.0625H99.4948V15.0573H28.0521V10.0625Z" fill="#EECCBF"/>
</g>
</g>
</g>
</g>
</g>
<mask id="mask12_471_24855" style="mask-type:luminance" maskUnits="userSpaceOnUse" x="28" y="10" width="36" height="6">
<path d="M28.0521 10.0625H63.7916V15.0573H28.0521V10.0625Z" fill="white"/>
</mask>
<g mask="url(#mask12_471_24855)">
<mask id="mask13_471_24855" style="mask-type:luminance" maskUnits="userSpaceOnUse" x="28" y="10" width="36" height="6">
<path d="M30.5469 10.0625H61.2812C62.6562 10.0625 63.776 11.1823 63.776 12.5625C63.776 13.9375 62.6562 15.0573 61.2812 15.0573H30.5469C29.1719 15.0573 28.0521 13.9375 28.0521 12.5625C28.0521 11.1823 29.1719 10.0625 30.5469 10.0625Z" fill="white"/>
</mask>
<g mask="url(#mask13_471_24855)">
<mask id="mask14_471_24855" style="mask-type:luminance" maskUnits="userSpaceOnUse" x="26" y="8" width="39" height="8">
<path d="M64.2448 8.79175H26.9114V15.4584H64.2448V8.79175Z" fill="white"/>
</mask>
<g mask="url(#mask14_471_24855)">
<mask id="mask15_471_24855" style="mask-type:luminance" maskUnits="userSpaceOnUse" x="28" y="10" width="36" height="6">
<path d="M28.0521 10.0625H63.7916V15.0573H28.0521V10.0625Z" fill="white"/>
</mask>
<g mask="url(#mask15_471_24855)">
<mask id="mask16_471_24855" style="mask-type:luminance" maskUnits="userSpaceOnUse" x="28" y="10" width="36" height="6">
<path d="M30.5469 10.0625H61.2812C62.6562 10.0625 63.776 11.1823 63.776 12.5625C63.776 13.9375 62.6562 15.0573 61.2812 15.0573H30.5469C29.1719 15.0573 28.0521 13.9375 28.0521 12.5625C28.0521 11.1823 29.1719 10.0625 30.5469 10.0625Z" fill="white"/>
</mask>
<g mask="url(#mask16_471_24855)">
<path d="M28.0521 10.0625H63.776V15.0573H28.0521V10.0625Z" fill="#F6B717"/>
</g>
</g>
</g>
</g>
</g>
<path d="M21.6927 15.2448C21.6927 15.3698 21.776 15.4688 21.8698 15.4688H21.9791C22.0781 15.4688 22.1562 15.3698 22.1562 15.2448V11.4219L21.6927 11.6146V15.2448Z" fill="#F6B717"/>
<path d="M11.1094 12.3179C11.1094 12.9116 11.1094 14.0939 11.1094 14.1252C11.1094 15.4533 13.0781 16.0262 15.5052 16.0262C17.9375 16.0262 19.901 15.4377 19.901 14.1252C19.901 14.0783 19.901 13.87 19.901 13.7918V12.3022L15.5052 13.8231L11.1094 12.3179Z" fill="#F6B717"/>
<mask id="mask17_471_24855" style="mask-type:luminance" maskUnits="userSpaceOnUse" x="8" y="8" width="15" height="7">
<path d="M8.13538 8.396H22.9114V14.1252H8.13538V8.396Z" fill="white"/>
</mask>
<g mask="url(#mask17_471_24855)">
<path d="M22.9062 10.6563L15.5052 13.3751L8.13538 10.6876L15.4114 8.40112L20.7812 10.0157H15.5052V10.4011H22.0625L22.9062 10.6563Z" fill="#F6B717"/>
</g>
<path d="M22.3646 15.2292C22.3646 15.3542 22.3229 15.4583 22.2344 15.5469C22.1458 15.6302 22.0417 15.6771 21.9167 15.6771C21.7917 15.6771 21.6875 15.6302 21.599 15.5469C21.5156 15.4583 21.4688 15.3542 21.4688 15.2292C21.4688 15.1042 21.5156 15 21.599 14.9115C21.6875 14.8229 21.7917 14.7812 21.9167 14.7812C22.0417 14.7812 22.1458 14.8229 22.2344 14.9115C22.3229 15 22.3646 15.1042 22.3646 15.2292Z" fill="#F6B717"/>
<path d="M22.2708 18.0261H21.5677C21.4218 18.0261 21.2916 17.9324 21.2916 17.8178L21.9166 15.2136L22.5416 17.8178C22.5416 17.948 22.427 18.0261 22.2708 18.0261Z" fill="#F6B717"/>
<mask id="mask18_471_24855" style="mask-type:luminance" maskUnits="userSpaceOnUse" x="108" y="4" width="23" height="16">
<path d="M130.911 4.79175H108.245V19.4584H130.911V4.79175Z" fill="white"/>
</mask>
<g mask="url(#mask18_471_24855)">
<path d="M111.887 15.5918C110.955 15.5918 110.273 15.248 109.846 14.5501C109.788 14.4668 109.762 14.3783 109.762 14.2793C109.762 14.1543 109.809 14.0501 109.908 13.9668C110.002 13.873 110.117 13.821 110.242 13.821C110.377 13.821 110.512 13.8939 110.637 14.0293C110.804 14.2376 110.934 14.373 111.033 14.4251C111.242 14.5814 111.523 14.6543 111.887 14.6543C112.455 14.6543 112.929 14.4408 113.304 14.0085C113.648 13.5918 113.825 13.0918 113.825 12.5085C113.825 12.0397 113.747 11.6491 113.596 11.3418C113.398 10.9668 113.085 10.7793 112.658 10.7793C112.309 10.7793 112.023 10.8314 111.804 10.9251C111.622 11.0085 111.44 11.1439 111.262 11.321L110.742 11.9043C110.585 12.0449 110.44 12.1126 110.304 12.1126C110.163 12.1126 110.044 12.071 109.95 11.9876C109.867 11.8939 109.825 11.7793 109.825 11.6543C109.825 11.5866 109.851 11.2949 109.908 10.7793C110.018 9.75326 110.075 9.07096 110.075 8.73763C110.075 8.62826 110.038 8.50846 109.971 8.38346C109.913 8.24805 109.887 8.14388 109.887 8.07096C109.887 7.86263 110.059 7.75846 110.408 7.75846C110.476 7.75846 110.575 7.76888 110.7 7.7793C110.835 7.79492 110.94 7.80013 111.012 7.80013C111.19 7.80013 111.471 7.79492 111.846 7.7793C112.231 7.76888 112.523 7.75846 112.721 7.75846C112.804 7.75846 112.934 7.76888 113.117 7.7793C113.294 7.7793 113.429 7.7793 113.512 7.7793C113.58 7.7793 113.669 7.77409 113.783 7.75846C113.908 7.73242 113.997 7.7168 114.054 7.7168C114.179 7.7168 114.288 7.76888 114.387 7.86263C114.481 7.94596 114.533 8.05013 114.533 8.17513C114.533 8.55013 114.143 8.73763 113.367 8.73763C113.268 8.73763 113.143 8.73763 112.992 8.73763C112.835 8.72721 112.747 8.7168 112.721 8.7168H111.887L111.054 8.75846C111.054 8.89909 110.992 9.44076 110.867 10.3835C111.325 10.0241 111.919 9.8418 112.658 9.8418C113.377 9.8418 113.929 10.1283 114.304 10.696C114.622 11.1699 114.783 11.7741 114.783 12.5085C114.783 13.3991 114.523 14.1283 114.012 14.696C113.481 15.2897 112.773 15.5918 111.887 15.5918Z" fill="#F6B717"/>
<path d="M118.262 15.4668C117.262 15.4668 116.532 15.0189 116.074 14.1126C115.725 13.4043 115.553 12.498 115.553 11.3835C115.553 10.4251 115.782 9.60221 116.241 8.9043C116.767 8.07096 117.491 7.6543 118.407 7.6543C119.267 7.6543 119.939 8.02409 120.428 8.75846C120.829 9.38346 121.032 10.1543 121.032 11.071C121.032 12.5449 120.803 13.6491 120.345 14.3835C119.887 15.1074 119.189 15.4668 118.262 15.4668ZM118.407 8.5918C117.793 8.5918 117.308 8.9043 116.949 9.5293C116.657 10.0449 116.512 10.6335 116.512 11.3001C116.512 12.373 116.657 13.1751 116.949 13.7168C117.241 14.2585 117.678 14.5293 118.262 14.5293C118.954 14.5293 119.449 14.1335 119.741 13.3418C119.949 12.7897 120.053 12.0918 120.053 11.2585C120.053 10.373 119.913 9.70638 119.637 9.25846C119.371 8.81576 118.96 8.5918 118.407 8.5918Z" fill="#F6B717"/>
<path d="M123.553 10.175C123.094 10.175 122.73 10.0188 122.469 9.69588C122.23 9.40422 122.115 9.02922 122.115 8.57088C122.115 8.25317 122.282 7.94588 122.615 7.65422C122.933 7.37817 123.25 7.23755 123.573 7.23755C124.042 7.23755 124.417 7.3938 124.698 7.69588C124.974 8.00317 125.115 8.3938 125.115 8.86255C125.115 9.2688 124.948 9.59172 124.615 9.84172C124.308 10.0657 123.954 10.175 123.553 10.175ZM127.428 8.09172C127.313 8.28963 127.188 8.54484 127.053 8.86255L126.698 9.65422L125.74 11.7375L124.636 14.05C124.537 14.3 124.37 14.675 124.136 15.175C124.037 15.3417 123.912 15.425 123.761 15.425C123.662 15.425 123.563 15.3834 123.469 15.3C123.386 15.2323 123.344 15.1438 123.344 15.0292C123.344 14.9771 123.355 14.9198 123.386 14.8625C123.537 14.4198 123.792 13.8417 124.157 13.1334C124.573 12.2896 124.844 11.7167 124.969 11.425L126.303 8.48755C126.48 8.04484 126.641 7.74796 126.782 7.59172C126.875 7.48234 126.98 7.42505 127.094 7.42505C127.204 7.42505 127.303 7.46672 127.386 7.55005C127.48 7.63338 127.532 7.73234 127.532 7.84172C127.532 7.91463 127.495 7.99796 127.428 8.09172ZM127.573 15.3625C127.125 15.3625 126.75 15.2323 126.448 14.9667C126.141 14.6907 125.99 14.3313 125.99 13.8834C125.99 13.4146 126.125 13.0188 126.407 12.6959C126.698 12.3521 127.079 12.175 127.553 12.175C127.995 12.175 128.386 12.3 128.719 12.55C129.094 12.8313 129.282 13.1855 129.282 13.6125C129.282 14.1125 129.12 14.5292 128.803 14.8625C128.48 15.1959 128.073 15.3625 127.573 15.3625ZM123.553 8.05005C123.396 8.05005 123.261 8.10213 123.136 8.19588C122.995 8.31047 122.928 8.43547 122.928 8.57088C122.928 8.82088 122.974 9.0188 123.073 9.15422C123.183 9.27922 123.344 9.34172 123.553 9.34172C123.73 9.34172 123.891 9.31047 124.032 9.23755C124.198 9.1438 124.282 9.0188 124.282 8.86255C124.282 8.60213 124.219 8.39901 124.094 8.25838C123.98 8.12296 123.803 8.05005 123.553 8.05005ZM127.553 13.0084C127.313 13.0084 127.125 13.1021 126.99 13.2792C126.875 13.4355 126.823 13.6334 126.823 13.8834C126.823 14.1073 126.891 14.274 127.032 14.3834C127.167 14.498 127.386 14.55 127.678 14.55C127.938 14.55 128.136 14.4771 128.261 14.3209C128.386 14.1698 128.448 13.9355 128.448 13.6125C128.448 13.4355 128.349 13.2792 128.157 13.1542C127.974 13.0605 127.771 13.0084 127.553 13.0084Z" fill="#F6B717"/>
</g>
</svg>
